<svg version="1.2" xmlns="http://www.w3.org/2000/svg" viewBox="0 0 202 52" width="202" height="52">
	<title>Group 9-svg</title>
	<defs>
		<clipPath clipPathUnits="userSpaceOnUse" id="cp1">
			<path d="m63.4 34.69h137.95v0.47h-137.95z"/>
		</clipPath>
	</defs>
	<style>
		.s0 { fill: #ffffff } 
	</style>
	<g id="Group_9">
		<g id="Group_1">
			<path id="Path_1" class="s0" d="m22.2 0v51.9h-22.2v-4.8l14.3-7.3v-27.7l-14.3-7.3v-4.8z"/>
		</g>
		<g id="Group_2">
			<path id="Path_2" class="s0" d="m33 5.8v40.3l14.1-8.5v14.3h-14.1-7.9v-51.9h22v14.3z"/>
		</g>
		<g id="Group_3">
			<path id="Path_3" class="s0" d="m62.9 20.3h-2.2v-13.1h2.2z"/>
			<path id="Path_4" class="s0" d="m68.6 20.3h-2.1v-13.1h1q0.4 0.1 0.9 0.1 0.4 0 0.8 0.1 0.5 0.1 0.9 0.2 0.4 0 0.8 0.2 0.5 0.1 0.9 0.3 0.5 0.1 1 0.3 0.4 0.2 0.9 0.4 0.4 0.2 0.9 0.4 0.4 0.3 0.9 0.5 0.4 0.3 0.9 0.6 0.4 0.3 0.8 0.6 0.4 0.3 0.8 0.6 0.4 0.3 0.8 0.7 0.4 0.3 0.7 0.7 0.4 0.3 0.7 0.7 0.3 0.4 0.6 0.8v-7.2h2.2v13.1h-2.2q0-0.4 0-0.8-0.1-0.5-0.2-0.9-0.1-0.4-0.2-0.8-0.2-0.4-0.4-0.8-0.2-0.4-0.4-0.8-0.2-0.4-0.5-0.7-0.3-0.4-0.6-0.7-0.3-0.4-0.6-0.7-0.3-0.3-0.7-0.6-0.3-0.4-0.7-0.7-0.3-0.3-0.7-0.5-0.4-0.3-0.8-0.6-0.4-0.2-0.8-0.4-0.4-0.3-0.8-0.5-0.4-0.2-0.8-0.4-0.5-0.2-0.9-0.4-0.4-0.1-0.8-0.3-0.3-0.1-0.7-0.2-0.4-0.1-0.8-0.2-0.4-0.1-0.8-0.1z"/>
			<path id="Path_5" class="s0" d="m88.7 20.3h-2.1v-13.1h1q0.5 0.1 0.9 0.1 0.4 0 0.9 0.1 0.4 0.1 0.8 0.2 0.4 0 0.8 0.2 0.5 0.1 1 0.3 0.4 0.1 0.9 0.3 0.5 0.2 0.9 0.4 0.5 0.2 0.9 0.4 0.5 0.3 0.9 0.5 0.5 0.3 0.9 0.6 0.4 0.3 0.8 0.6 0.5 0.3 0.9 0.6 0.4 0.3 0.7 0.7 0.4 0.3 0.8 0.7 0.3 0.3 0.6 0.7 0.4 0.4 0.7 0.8v-7.2h2.1v13.1h-2.1q0-0.4-0.1-0.8 0-0.5-0.1-0.9-0.1-0.4-0.3-0.8-0.1-0.4-0.3-0.8-0.2-0.4-0.5-0.8-0.2-0.4-0.5-0.7-0.2-0.4-0.5-0.7-0.3-0.4-0.7-0.7-0.3-0.3-0.6-0.6-0.4-0.4-0.8-0.7-0.3-0.3-0.7-0.5-0.4-0.3-0.8-0.6-0.4-0.2-0.8-0.4-0.4-0.3-0.8-0.5-0.4-0.2-0.8-0.4-0.4-0.2-0.9-0.4-0.3-0.1-0.7-0.3-0.4-0.1-0.8-0.2-0.4-0.1-0.8-0.2-0.4-0.1-0.8-0.1z"/>
			<path id="Path_6" fill-rule="evenodd" class="s0" d="m124.6 13.8q0 0.3-0.1 0.6 0 0.4-0.1 0.7 0 0.3-0.1 0.6-0.1 0.3-0.2 0.6-0.2 0.3-0.3 0.6-0.2 0.3-0.3 0.5-0.2 0.3-0.4 0.5-0.2 0.3-0.4 0.5-0.3 0.2-0.5 0.4-0.3 0.2-0.5 0.4-0.3 0.2-0.6 0.3-0.3 0.2-0.6 0.3-0.3 0.1-0.7 0.2-0.3 0.1-0.7 0.2-0.3 0.1-0.7 0.1-0.3 0-0.7 0h-5q-0.3 0-0.7 0-0.4 0-0.7-0.1-0.4-0.1-0.7-0.2-0.4-0.1-0.7-0.2-0.3-0.1-0.6-0.3-0.3-0.1-0.6-0.3-0.2-0.2-0.5-0.4-0.2-0.2-0.5-0.4-0.2-0.2-0.4-0.5-0.2-0.2-0.4-0.5-0.1-0.2-0.3-0.5-0.1-0.3-0.3-0.6-0.2-0.6-0.3-1.2-0.2-0.7-0.2-1.3 0-0.7 0.2-1.3 0.1-0.6 0.3-1.3 0.3-0.5 0.6-1.1 0.4-0.5 0.9-1 0.4-0.4 1-0.8 0.5-0.3 1.1-0.6 0.3-0.1 0.7-0.2 0.3-0.1 0.7-0.1 0.3-0.1 0.7-0.1 0.4-0.1 0.7-0.1h5q0.4 0 0.7 0.1 0.4 0 0.7 0.1 0.4 0 0.7 0.1 0.4 0.1 0.7 0.2 0.6 0.3 1.1 0.6 0.6 0.4 1 0.8 0.5 0.5 0.9 1 0.3 0.6 0.6 1.1 0.1 0.3 0.2 0.7 0.1 0.3 0.1 0.6 0.1 0.3 0.1 0.6 0.1 0.4 0.1 0.7zm-2.2 0q0-0.3 0-0.6 0-0.3-0.1-0.6-0.1-0.3-0.2-0.6-0.1-0.3-0.2-0.6-0.2-0.2-0.4-0.5-0.1-0.2-0.3-0.4-0.2-0.2-0.5-0.4-0.2-0.2-0.5-0.4-0.3-0.1-0.6-0.2-0.3-0.2-0.6-0.2-0.3-0.1-0.6-0.2-0.4 0-0.7 0h-5q-0.3 0-0.6 0-0.4 0.1-0.7 0.2-0.3 0-0.6 0.2-0.3 0.1-0.6 0.2-0.3 0.2-0.5 0.4-0.2 0.2-0.4 0.4-0.2 0.2-0.4 0.4-0.2 0.3-0.3 0.5-0.2 0.3-0.3 0.6-0.1 0.3-0.2 0.6-0.1 0.3-0.1 0.6 0 0.3 0 0.6 0 0.3 0 0.6 0 0.3 0.1 0.6 0.1 0.3 0.2 0.6 0.1 0.2 0.3 0.5 0.1 0.3 0.3 0.5 0.2 0.3 0.4 0.5 0.2 0.2 0.4 0.4 0.2 0.2 0.5 0.3 0.3 0.2 0.6 0.3 0.3 0.1 0.6 0.2 0.3 0.1 0.7 0.1 0.3 0 0.6 0h5q0.3 0 0.7 0 0.3 0 0.6-0.1 0.3-0.1 0.6-0.2 0.3-0.1 0.6-0.3 0.3-0.1 0.5-0.3 0.3-0.2 0.5-0.4 0.2-0.2 0.3-0.5 0.2-0.2 0.4-0.5 0.1-0.3 0.2-0.5 0.1-0.3 0.2-0.6 0.1-0.3 0.1-0.6 0-0.3 0-0.6z"/>
			<path id="Path_7" class="s0" d="m143.1 7.2l-7.9 13.1h-2.4l-7.9-13.1h2.5l6.6 11.1 6.6-11.1z"/>
			<path id="Path_8" class="s0" d="m160.9 20.3h-2.2v-3.7h-11.9v-1.9h11.9v-5.6h-7.6q-0.4 0-0.7 0-0.4 0.1-0.7 0.2-0.3 0-0.7 0.2-0.3 0.1-0.6 0.2-0.3 0.2-0.6 0.4-0.2 0.1-0.5 0.4-0.2 0.2-0.4 0.4-0.2 0.3-0.4 0.5-0.2 0.3-0.3 0.6-0.2 0.2-0.3 0.5-0.1 0.3-0.1 0.7 0 0.3 0 0.6v6.5h-2.2v-6.5q0-0.4 0.1-0.7 0-0.3 0.1-0.6 0-0.3 0.1-0.6 0.2-0.4 0.3-0.7 0.1-0.2 0.3-0.5 0.2-0.3 0.4-0.6 0.2-0.2 0.4-0.5 0.2-0.2 0.5-0.4 0.3-0.3 0.5-0.5 0.3-0.2 0.6-0.4 0.3-0.1 0.6-0.3 0.4-0.1 0.7-0.2 0.3-0.2 0.7-0.3 0.3-0.1 0.7-0.1 0.4-0.1 0.7-0.1 0.4-0.1 0.8-0.1h9.8z"/>
			<path id="Path_9" class="s0" d="m181.7 20.3h-2.9l-4.4-3.7h-6.6v-1.9h8.6q0.2 0 0.4 0 0.2 0 0.4-0.1 0.2 0 0.4-0.1 0.2-0.1 0.4-0.2 0.2 0 0.3-0.2 0.2-0.1 0.4-0.2 0.1-0.1 0.2-0.3 0.2-0.1 0.3-0.3 0.2-0.3 0.3-0.7 0.1-0.3 0.1-0.7 0-0.4-0.1-0.7-0.1-0.4-0.3-0.7-0.1-0.2-0.3-0.3-0.1-0.2-0.2-0.3-0.2-0.1-0.4-0.2-0.1-0.1-0.3-0.2-0.2-0.1-0.4-0.2-0.2-0.1-0.4-0.1-0.2 0-0.4-0.1-0.2 0-0.4 0h-9.8v11.2h-2.1v-13.1h11.9q0.3 0 0.7 0.1 0.3 0 0.7 0.1 0.3 0.1 0.6 0.2 0.4 0.1 0.7 0.3 0.3 0.1 0.5 0.3 0.3 0.2 0.6 0.4 0.2 0.2 0.4 0.4 0.2 0.3 0.4 0.6 0.3 0.5 0.5 1 0.2 0.6 0.2 1.2 0 0.6-0.1 1.2-0.2 0.5-0.5 1.1-0.1 0.2-0.3 0.4-0.2 0.3-0.4 0.5-0.2 0.2-0.4 0.4-0.2 0.1-0.5 0.3-0.2 0.2-0.5 0.3-0.3 0.1-0.6 0.2-0.3 0.1-0.6 0.2-0.3 0.1-0.6 0.1z"/>
			<path id="Path_10" fill-rule="evenodd" class="s0" d="m199.9 20.3h-15.4v-13.1h15.4v1.9h-13.3v9.3h13.3zm-1.8-5.6h-10.4v-1.8h10.4z"/>
		</g>
		<g id="Group_4">
			<path id="Path_11" class="s0" d="m76.7 30.9q-0.2 0-0.4 0-0.2-0.1-0.5-0.1-0.2 0-0.4-0.1-0.2 0-0.5-0.1-0.2-0.1-0.3-0.2-0.2 0-0.4-0.1-0.2-0.1-0.4-0.3-0.1-0.1-0.3-0.2-0.1-0.1-0.3-0.3-0.1-0.1-0.2-0.3-0.1-0.1-0.2-0.3-0.2-0.2-0.2-0.3-0.2-0.4-0.3-0.8-0.1-0.4-0.1-0.8 0-0.3 0.1-0.7 0.1-0.4 0.3-0.8 0-0.1 0.2-0.3 0.1-0.2 0.2-0.3 0.1-0.2 0.2-0.3 0.2-0.2 0.3-0.3 0.2-0.1 0.3-0.2 0.2-0.2 0.4-0.3 0.2-0.1 0.4-0.1 0.2-0.1 0.3-0.2 0.5-0.1 0.9-0.2 0.5-0.1 1-0.1 0.4 0 0.9 0.1 0.4 0.1 0.9 0.2 0.2 0.1 0.4 0.2 0.2 0.1 0.3 0.2 0.2 0.1 0.4 0.2 0.1 0.1 0.3 0.3l-0.8 0.7q-0.1-0.1-0.2-0.2-0.2-0.1-0.3-0.2-0.2-0.1-0.3-0.2-0.1 0-0.3-0.1-0.2-0.1-0.3-0.1-0.2 0-0.3-0.1-0.2 0-0.4 0-0.1 0-0.3 0-0.2 0-0.3 0-0.2 0-0.4 0-0.1 0.1-0.3 0.1-0.2 0-0.3 0.1-0.2 0-0.3 0.1-0.2 0.1-0.3 0.1-0.1 0.1-0.3 0.2-0.1 0.1-0.2 0.2-0.1 0.1-0.2 0.2-0.1 0.1-0.2 0.2-0.1 0.1-0.2 0.3 0 0.1-0.1 0.2-0.1 0.3-0.2 0.6-0.1 0.3-0.1 0.6 0 0.2 0.1 0.5 0.1 0.3 0.2 0.6 0.1 0.1 0.1 0.3 0.1 0.1 0.2 0.2 0.1 0.1 0.2 0.2 0.1 0.1 0.2 0.2 0.1 0.1 0.2 0.2 0.2 0.1 0.3 0.2 0.1 0 0.3 0.1 0.1 0.1 0.3 0.1 0.1 0.1 0.3 0.1 0.2 0 0.3 0.1 0.2 0 0.4 0 0.1 0 0.3 0 0.2 0 0.3 0 0.2 0 0.4 0 0.1-0.1 0.3-0.1 0.1 0 0.3-0.1 0.2-0.1 0.3-0.1 0.1-0.1 0.3-0.2 0.1-0.1 0.3-0.2 0.1-0.1 0.2-0.2l0.8 0.7q-0.2 0.1-0.3 0.3-0.2 0.1-0.4 0.2-0.1 0.1-0.3 0.2-0.2 0.1-0.4 0.2-0.2 0-0.5 0.1-0.2 0.1-0.4 0.1-0.3 0-0.5 0.1-0.2 0-0.5 0z"/>
			<path id="Path_12" fill-rule="evenodd" class="s0" d="m86.6 30.9q-0.2 0-0.4 0-0.3-0.1-0.5-0.1-0.2 0-0.4-0.1-0.3 0-0.5-0.1-0.2-0.1-0.4-0.2-0.2-0.1-0.3-0.2-0.2-0.1-0.4-0.2-0.2-0.1-0.3-0.2-0.2-0.1-0.3-0.3-0.1-0.1-0.3-0.3-0.1-0.1-0.2-0.3-0.1-0.2-0.2-0.3-0.1-0.4-0.2-0.8-0.1-0.4-0.1-0.7 0-0.4 0.1-0.8 0.1-0.4 0.2-0.8 0.1-0.1 0.2-0.3 0.1-0.2 0.2-0.3 0.2-0.2 0.3-0.3 0.1-0.1 0.3-0.3 0.1-0.1 0.3-0.2 0.2-0.1 0.4-0.2 0.1-0.1 0.3-0.2 0.2-0.1 0.4-0.2 0.5-0.1 0.9-0.2 0.5-0.1 0.9-0.1 0.5 0 0.9 0.1 0.5 0.1 0.9 0.2 0.2 0.1 0.4 0.2 0.2 0.1 0.4 0.2 0.2 0.1 0.3 0.2 0.2 0.1 0.4 0.2 0.1 0.1 0.3 0.3 0.1 0.1 0.2 0.3 0.1 0.1 0.2 0.3 0.1 0.2 0.2 0.3 0.2 0.4 0.3 0.8 0.1 0.4 0.1 0.8 0 0.4-0.1 0.7-0.1 0.4-0.3 0.8-0.1 0.2-0.2 0.3-0.1 0.2-0.2 0.3-0.1 0.2-0.2 0.3-0.2 0.2-0.3 0.3-0.2 0.1-0.4 0.2-0.1 0.2-0.3 0.3-0.2 0.1-0.4 0.1-0.2 0.1-0.4 0.2-0.2 0.1-0.4 0.1-0.2 0.1-0.5 0.1-0.2 0-0.4 0.1-0.2 0-0.5 0zm0-1q0.2 0 0.4 0 0.1 0 0.3 0 0.2-0.1 0.3-0.1 0.2 0 0.3-0.1 0.2 0 0.3-0.1 0.2-0.1 0.3-0.1 0.1-0.1 0.3-0.2 0.1-0.1 0.2-0.2 0.1-0.1 0.2-0.2 0.1-0.1 0.2-0.2 0.1-0.1 0.2-0.3 0-0.1 0.1-0.2 0.1-0.3 0.2-0.6 0-0.3 0-0.5 0-0.3 0-0.6-0.1-0.3-0.2-0.6-0.1-0.1-0.1-0.2-0.1-0.2-0.2-0.3-0.1-0.1-0.2-0.2-0.1-0.1-0.2-0.2-0.1-0.1-0.2-0.2-0.2-0.1-0.3-0.2-0.1 0-0.3-0.1-0.1-0.1-0.3-0.1-0.3-0.1-0.6-0.2-0.3 0-0.7 0-0.3 0-0.6 0-0.4 0.1-0.7 0.2-0.1 0-0.3 0.1-0.1 0.1-0.2 0.2-0.2 0-0.3 0.1-0.1 0.1-0.2 0.2-0.2 0.1-0.3 0.2-0.1 0.1-0.1 0.2-0.1 0.1-0.2 0.3-0.1 0.1-0.1 0.2-0.2 0.3-0.2 0.6-0.1 0.3-0.1 0.6 0 0.2 0.1 0.5 0 0.3 0.2 0.6 0 0.1 0.1 0.2 0.1 0.2 0.2 0.3 0 0.1 0.1 0.2 0.1 0.1 0.3 0.2 0.1 0.1 0.2 0.2 0.1 0.1 0.3 0.2 0.1 0 0.2 0.1 0.2 0.1 0.3 0.1 0.2 0.1 0.3 0.1 0.2 0 0.4 0.1 0.1 0 0.3 0 0.2 0 0.3 0z"/>
			<path id="Path_13" class="s0" d="m94.3 30.8v-7.5h1l5.6 6.1h-0.5v-6.1h1.2v7.5h-1l-5.7-6.2h0.6v6.2z"/>
			<path id="Path_14" class="s0" d="m107.9 30.9q-0.3 0-0.5 0-0.2-0.1-0.5-0.1-0.2 0-0.4-0.1-0.3 0-0.5-0.1-0.2 0-0.4-0.1-0.2-0.1-0.3-0.2-0.2-0.1-0.4-0.2-0.1-0.1-0.3-0.2l0.5-0.8q0.1 0.1 0.2 0.2 0.2 0.1 0.4 0.2 0.1 0 0.3 0.1 0.1 0.1 0.3 0.1 0.2 0.1 0.4 0.1 0.2 0.1 0.4 0.1 0.2 0 0.4 0 0.2 0.1 0.4 0.1 0.1 0 0.3 0 0.1 0 0.3-0.1 0.1 0 0.3 0 0.1 0 0.3-0.1 0.1 0 0.2-0.1 0.1 0 0.2 0 0-0.1 0.1-0.2 0.1 0 0.2-0.1 0-0.1 0.1-0.1 0-0.1 0-0.2 0.1-0.1 0.1-0.1 0-0.1 0-0.2 0-0.1 0-0.2 0-0.1-0.1-0.1 0-0.1-0.1-0.2 0-0.1-0.1-0.1-0.1-0.1-0.2-0.1-0.1-0.1-0.2-0.1 0-0.1-0.1-0.1-0.1-0.1-0.2-0.1-0.2 0-0.3-0.1-0.1 0-0.2 0-0.2-0.1-0.3-0.1-0.1 0-0.2 0-0.6-0.1-1.1-0.3-0.2 0-0.3-0.1-0.1 0-0.3 0-0.1-0.1-0.2-0.1-0.1-0.1-0.3-0.2-0.1 0-0.2-0.1-0.1 0-0.2-0.1-0.1-0.1-0.1-0.2-0.1-0.1-0.2-0.2-0.1-0.1-0.1-0.2-0.1-0.1-0.1-0.2-0.1-0.1-0.1-0.3 0-0.1 0-0.2 0-0.2 0-0.3 0.1-0.2 0.1-0.3 0.1-0.1 0.1-0.3 0.1-0.1 0.2-0.2 0.1-0.1 0.2-0.2 0.1-0.2 0.2-0.3 0.2-0.1 0.3-0.1 0.2-0.1 0.3-0.2 0.3 0 0.5-0.1 0.2-0.1 0.5-0.1 0.2 0 0.4-0.1 0.3 0 0.5 0 0.2 0 0.4 0 0.1 0.1 0.3 0.1 0.2 0 0.4 0 0.2 0.1 0.4 0.1 0.1 0 0.3 0.1 0.2 0 0.3 0.1 0.2 0.1 0.3 0.1 0.2 0.1 0.3 0.2l-0.4 0.9q-0.1-0.1-0.2-0.2-0.2-0.1-0.3-0.1-0.2-0.1-0.3-0.1-0.2-0.1-0.3-0.1-0.2 0-0.3-0.1-0.2 0-0.3 0-0.2 0-0.3 0-0.2-0.1-0.3-0.1-0.2 0-0.3 0-0.2 0.1-0.3 0.1-0.2 0-0.3 0-0.1 0.1-0.3 0.1-0.1 0-0.2 0.1-0.1 0-0.2 0.1 0 0-0.1 0.1-0.1 0.1-0.2 0.1 0 0.1-0.1 0.2 0 0 0 0.1-0.1 0.1-0.1 0.2 0 0 0 0.1 0 0.1 0 0.2 0 0.1 0.1 0.2 0 0.1 0.1 0.1 0 0.1 0.1 0.2 0.1 0 0.2 0.1 0.1 0 0.2 0.1 0.1 0 0.1 0.1 0.1 0 0.2 0 0.5 0.2 1.1 0.3 0.5 0.1 1.1 0.2 0.1 0.1 0.2 0.1 0.1 0 0.3 0.1 0.1 0 0.2 0.1 0.1 0 0.3 0.1 0.1 0 0.2 0.1 0.1 0.1 0.2 0.2 0.1 0 0.1 0.1 0.1 0.1 0.2 0.2 0.1 0.1 0.1 0.2 0.1 0.1 0.1 0.3 0.1 0.1 0.1 0.2 0 0.1 0 0.3 0 0.1 0 0.2-0.1 0.2-0.1 0.3 0 0.1-0.1 0.3-0.1 0.1-0.2 0.2-0.1 0.1-0.2 0.3-0.1 0.1-0.3 0.2-0.1 0.1-0.2 0.1-0.2 0.1-0.4 0.2-0.2 0.1-0.4 0.1-0.2 0.1-0.5 0.1-0.2 0-0.5 0.1-0.2 0-0.4 0z"/>
			<path id="Path_15" class="s0" d="m115.8 30.8v-6.6h-3v-0.9h7.1v0.9h-2.9v6.6z"/>
			<path id="Path_16" fill-rule="evenodd" class="s0" d="m122.4 30.8v-7.5h3.4q0.2 0 0.5 0 0.2 0 0.5 0.1 0.2 0 0.4 0.1 0.3 0 0.5 0.1 0.2 0.1 0.3 0.2 0.2 0.1 0.4 0.2 0.1 0.1 0.3 0.2 0.1 0.2 0.2 0.3 0.1 0.2 0.2 0.3 0.1 0.2 0.1 0.4 0.1 0.2 0.1 0.4 0 0.1 0 0.3 0 0.2 0 0.4 0 0.2-0.1 0.4 0 0.1-0.1 0.3-0.1 0.2-0.2 0.3-0.1 0.2-0.2 0.3-0.2 0.1-0.3 0.3-0.2 0.1-0.4 0.2-0.1 0-0.3 0.1-0.1 0-0.2 0.1l2 2.5h-1.3l-1.9-2.3q0 0 0 0-0.3 0-0.5 0h-2.1v2.3zm1.2-2.3v-0.4-0.5h-0.6l0.5 0.5-0.5 0.4zm0-0.4v-0.1zm2.1-0.5q0.2 0 0.5 0 0.2 0 0.4-0.1 0.3 0 0.5-0.1 0.2-0.1 0.4-0.2 0.3-0.3 0.4-0.6 0.2-0.3 0.2-0.7 0-0.3-0.2-0.7-0.1-0.3-0.4-0.5-0.2-0.1-0.4-0.2-0.2-0.1-0.5-0.2-0.2 0-0.4 0-0.3-0.1-0.5 0h-2.1v3.3zm-2-3.3v-0.6l-0.6 0.6z"/>
			<path id="Path_17" class="s0" d="m136.1 30.9q-0.4 0-0.7-0.1-0.4 0-0.7-0.1-0.4-0.1-0.7-0.3-0.3-0.2-0.6-0.4-0.2-0.2-0.4-0.5-0.2-0.3-0.3-0.6-0.1-0.3-0.2-0.7-0.1-0.3 0-0.6v-4.3h1.2v4.2q0 0.3 0 0.5 0 0.3 0.1 0.5 0.1 0.2 0.2 0.4 0.1 0.3 0.3 0.4 0.4 0.3 0.9 0.5 0.4 0.1 0.9 0.1 0.5 0 0.9-0.1 0.5-0.2 0.9-0.5 0.1-0.1 0.3-0.4 0.1-0.2 0.2-0.4 0.1-0.2 0.1-0.5 0-0.2 0-0.5v-4.2h1.2v4.3q0 0.3 0 0.6-0.1 0.4-0.2 0.7-0.1 0.3-0.3 0.6-0.2 0.3-0.5 0.5-0.2 0.2-0.6 0.4-0.3 0.2-0.6 0.3-0.4 0.1-0.7 0.1-0.4 0.1-0.7 0.1z"/>
			<path id="Path_18" class="s0" d="m147.2 30.9q-0.2 0-0.4 0-0.2-0.1-0.5-0.1-0.2 0-0.4-0.1-0.2 0-0.5-0.1-0.2-0.1-0.3-0.2-0.2 0-0.4-0.1-0.2-0.1-0.4-0.3-0.1-0.1-0.3-0.2-0.1-0.1-0.3-0.3-0.1-0.1-0.2-0.3-0.1-0.1-0.2-0.3-0.2-0.2-0.2-0.3-0.2-0.4-0.3-0.8-0.1-0.4-0.1-0.8 0-0.3 0.1-0.7 0.1-0.4 0.3-0.8 0-0.1 0.2-0.3 0.1-0.2 0.2-0.3 0.1-0.2 0.2-0.3 0.2-0.2 0.3-0.3 0.2-0.1 0.3-0.2 0.2-0.2 0.4-0.3 0.2-0.1 0.4-0.1 0.2-0.1 0.3-0.2 0.5-0.1 0.9-0.2 0.5-0.1 1-0.1 0.4 0 0.9 0.1 0.4 0.1 0.9 0.2 0.2 0.1 0.4 0.2 0.2 0.1 0.3 0.2 0.2 0.1 0.4 0.2 0.1 0.1 0.3 0.3l-0.8 0.7q-0.1-0.1-0.2-0.2-0.2-0.1-0.3-0.2-0.2-0.1-0.3-0.2-0.1 0-0.3-0.1-0.2-0.1-0.3-0.1-0.2 0-0.3-0.1-0.2 0-0.4 0-0.1 0-0.3 0-0.2 0-0.3 0-0.2 0-0.4 0-0.1 0.1-0.3 0.1-0.2 0-0.3 0.1-0.2 0-0.3 0.1-0.2 0.1-0.3 0.1-0.1 0.1-0.3 0.2-0.1 0.1-0.2 0.2-0.1 0.1-0.2 0.2-0.1 0.1-0.2 0.2-0.1 0.1-0.2 0.3 0 0.1-0.1 0.2-0.1 0.3-0.2 0.6-0.1 0.3-0.1 0.6 0 0.2 0.1 0.5 0.1 0.3 0.2 0.6 0.1 0.1 0.1 0.3 0.1 0.1 0.2 0.2 0.1 0.1 0.2 0.2 0.1 0.1 0.2 0.2 0.1 0.1 0.2 0.2 0.2 0.1 0.3 0.2 0.1 0 0.3 0.1 0.1 0.1 0.3 0.1 0.1 0.1 0.3 0.1 0.2 0 0.3 0.1 0.2 0 0.4 0 0.1 0 0.3 0 0.2 0 0.3 0 0.2 0 0.4 0 0.1-0.1 0.3-0.1 0.1 0 0.3-0.1 0.2-0.1 0.3-0.1 0.1-0.1 0.3-0.2 0.1-0.1 0.3-0.2 0.1-0.1 0.2-0.2l0.8 0.7q-0.2 0.1-0.3 0.3-0.2 0.1-0.4 0.2-0.1 0.1-0.3 0.2-0.2 0.1-0.4 0.2-0.2 0-0.5 0.1-0.2 0.1-0.4 0.1-0.3 0-0.5 0.1-0.2 0-0.5 0z"/>
			<path id="Path_19" class="s0" d="m155.1 30.8v-6.6h-3v-0.9h7.1v0.9h-2.9v6.6z"/>
			<path id="Path_20" class="s0" d="m161.7 30.8v-7.5h1.3v7.5z"/>
			<path id="Path_21" fill-rule="evenodd" class="s0" d="m170.6 30.9q-0.2 0-0.4 0-0.3-0.1-0.5-0.1-0.2 0-0.5-0.1-0.2 0-0.4-0.1-0.2-0.1-0.4-0.2-0.2-0.1-0.4-0.2-0.1-0.1-0.3-0.2-0.2-0.1-0.3-0.2-0.2-0.1-0.3-0.3-0.2-0.1-0.3-0.3-0.1-0.1-0.2-0.3-0.1-0.2-0.2-0.3-0.2-0.4-0.3-0.8 0-0.4 0-0.7 0-0.4 0-0.8 0.1-0.4 0.3-0.8 0.1-0.1 0.2-0.3 0.1-0.2 0.2-0.3 0.1-0.2 0.3-0.3 0.1-0.1 0.3-0.3 0.1-0.1 0.3-0.2 0.2-0.1 0.3-0.2 0.2-0.1 0.4-0.2 0.2-0.1 0.4-0.2 0.4-0.1 0.9-0.2 0.4-0.1 0.9-0.1 0.5 0 0.9 0.1 0.5 0.1 0.9 0.2 0.2 0.1 0.4 0.2 0.2 0.1 0.4 0.2 0.1 0.1 0.3 0.2 0.2 0.1 0.4 0.2 0.1 0.1 0.2 0.3 0.2 0.1 0.3 0.3 0.1 0.1 0.2 0.3 0.1 0.2 0.2 0.3 0.2 0.4 0.3 0.8 0 0.4 0 0.8 0 0.4 0 0.7-0.1 0.4-0.3 0.8-0.1 0.2-0.2 0.3-0.1 0.2-0.2 0.3-0.1 0.2-0.3 0.3-0.1 0.2-0.2 0.3-0.2 0.1-0.4 0.2-0.2 0.2-0.3 0.3-0.2 0.1-0.4 0.1-0.2 0.1-0.4 0.2-0.2 0.1-0.4 0.1-0.3 0.1-0.5 0.1-0.2 0-0.4 0.1-0.3 0-0.5 0zm0-1q0.2 0 0.3 0 0.2 0 0.4 0 0.1-0.1 0.3-0.1 0.2 0 0.3-0.1 0.2 0 0.3-0.1 0.1-0.1 0.3-0.1 0.1-0.1 0.2-0.2 0.2-0.1 0.3-0.2 0.1-0.1 0.2-0.2 0.1-0.1 0.2-0.2 0.1-0.1 0.1-0.3 0.1-0.1 0.2-0.2 0.1-0.3 0.2-0.6 0-0.3 0-0.5 0-0.3 0-0.6-0.1-0.3-0.2-0.6-0.1-0.1-0.2-0.2 0-0.2-0.1-0.3-0.1-0.1-0.2-0.2-0.1-0.1-0.2-0.2-0.1-0.1-0.3-0.2-0.1-0.1-0.2-0.2-0.2 0-0.3-0.1-0.1-0.1-0.3-0.1-0.1-0.1-0.3-0.1-0.2 0-0.3-0.1-0.2 0-0.4 0-0.1 0-0.3 0-0.2 0-0.3 0-0.2 0-0.4 0-0.1 0.1-0.3 0.1-0.2 0-0.3 0.1-0.2 0-0.3 0.1-0.1 0.1-0.3 0.2-0.1 0-0.2 0.1-0.2 0.1-0.3 0.2-0.1 0.1-0.2 0.2-0.1 0.1-0.2 0.2-0.1 0.1-0.1 0.3-0.1 0.1-0.2 0.2-0.1 0.3-0.2 0.6 0 0.3 0 0.6 0 0.2 0 0.5 0.1 0.3 0.2 0.6 0.1 0.1 0.2 0.2 0 0.2 0.1 0.3 0.1 0.1 0.2 0.2 0.1 0.1 0.2 0.2 0.1 0.1 0.3 0.2 0.1 0.1 0.2 0.2 0.2 0 0.3 0.1 0.1 0.1 0.3 0.1 0.1 0.1 0.3 0.1 0.2 0 0.3 0.1 0.2 0 0.4 0 0.1 0 0.3 0z"/>
			<path id="Path_22" class="s0" d="m178.2 30.8v-7.5h1l5.7 6.1h-0.5v-6.1h1.2v7.5h-1l-5.7-6.2h0.5v6.2z"/>
		</g>
		<g id="Group_5">
			<path id="Path_23" class="s0" d="m66.2 43.7v-4.2h0.7v3.7h2.6v0.5z"/>
			<path id="Path_24" fill-rule="evenodd" class="s0" d="m74.9 43.7q-0.1 0-0.2 0-0.2 0-0.3 0-0.1 0-0.2-0.1-0.2 0-0.3 0-0.1-0.1-0.2-0.1-0.1-0.1-0.2-0.1-0.1-0.1-0.2-0.1-0.1-0.1-0.2-0.2-0.1-0.1-0.2-0.1 0-0.1-0.1-0.2-0.1-0.1-0.1-0.2-0.1-0.1-0.1-0.2-0.1-0.2-0.2-0.4 0-0.2 0-0.4 0-0.2 0-0.4 0.1-0.3 0.2-0.5 0-0.1 0.1-0.2 0 0 0.1-0.1 0.1-0.1 0.1-0.2 0.1-0.1 0.2-0.1 0.1-0.1 0.2-0.2 0.1 0 0.2-0.1 0.1-0.1 0.2-0.1 0.1-0.1 0.2-0.1 0.3-0.1 0.5-0.1 0.3-0.1 0.5-0.1 0.3 0 0.5 0.1 0.3 0 0.6 0.1 0.1 0 0.2 0.1 0.1 0 0.2 0.1 0.1 0 0.2 0.1 0.1 0.1 0.2 0.2 0 0 0.1 0.1 0.1 0.1 0.2 0.2 0 0.1 0.1 0.1 0 0.1 0.1 0.2 0.1 0.2 0.1 0.5 0.1 0.2 0.1 0.4 0 0.2-0.1 0.4 0 0.2-0.1 0.4-0.1 0.1-0.1 0.2-0.1 0.1-0.1 0.2-0.1 0.1-0.2 0.2-0.1 0.1-0.1 0.1-0.1 0.1-0.2 0.2-0.1 0-0.2 0.1-0.1 0-0.2 0.1-0.1 0-0.2 0.1-0.2 0-0.3 0-0.1 0.1-0.2 0.1-0.2 0-0.3 0-0.1 0-0.3 0zm0-0.5q0.1 0 0.2 0 0.1 0 0.2 0 0.1 0 0.2-0.1 0.1 0 0.2 0 0.1 0 0.1-0.1 0.1 0 0.2-0.1 0.1 0 0.1-0.1 0.1 0 0.2-0.1 0 0 0.1-0.1 0 0 0.1-0.1 0-0.1 0.1-0.1 0-0.1 0.1-0.2 0-0.1 0.1-0.3 0-0.1 0-0.3 0-0.2 0-0.3-0.1-0.2-0.1-0.4-0.1 0-0.1-0.1-0.1-0.1-0.1-0.1-0.1-0.1-0.1-0.2-0.1 0-0.1-0.1-0.1 0-0.2-0.1 0 0-0.1-0.1-0.1 0-0.2 0 0-0.1-0.1-0.1-0.2-0.1-0.4-0.1-0.2 0-0.4 0-0.2 0-0.3 0-0.2 0-0.4 0.1-0.1 0-0.2 0.1 0 0-0.1 0-0.1 0.1-0.2 0.1 0 0.1-0.1 0.1-0.1 0.1-0.1 0.1-0.1 0.1-0.1 0.2-0.1 0-0.1 0.1-0.1 0.1-0.1 0.1-0.1 0.2-0.1 0.4 0 0.1 0 0.3 0 0.2 0 0.3 0 0.2 0.1 0.3 0 0.1 0.1 0.2 0 0 0.1 0.1 0 0.1 0.1 0.1 0 0.1 0.1 0.1 0.1 0.1 0.1 0.1 0.1 0.1 0.2 0.1 0.1 0.1 0.1 0.1 0.1 0.1 0.2 0.1 0.1 0 0.2 0 0.1 0.1 0.2 0.1 0.1 0 0.1 0 0.1 0 0.2 0z"/>
			<path id="Path_25" class="s0" d="m82.4 43.7l-2.1-4.2h0.7l2 3.9h-0.5l2-3.9h0.7l-2.1 4.2z"/>
			<path id="Path_26" fill-rule="evenodd" class="s0" d="m89.1 43.2h2.8v0.5h-3.5v-4.2h3.4v0.5h-2.7v1.3h-0.1v0.5h0.1zm2.4-1.3v-0.6h-2.4v0.6z"/>
			<path id="Path_27" class="s0" d="m101.2 43.7l-1.7-4.2h0.8l1.4 3.9h-0.3l1.5-3.9h0.6l1.5 3.9h-0.3l1.5-3.9h0.6l-1.6 4.2h-0.7l-1.4-3.6h0.2l-1.4 3.6z"/>
			<path id="Path_28" class="s0" d="m111 43.7h-0.7v-4.2h0.7zm2.8-1.9h-2.9v-0.5h2.9zm-0.1-2.3h0.7v4.2h-0.7z"/>
			<path id="Path_29" fill-rule="evenodd" class="s0" d="m119.1 43.2h2.8v0.5h-3.4v-4.2h3.4v0.5h-2.7l-0.1 1.3v0.5zm2.5-1.3v-0.6h-2.4v0.6z"/>
			<path id="Path_30" fill-rule="evenodd" class="s0" d="m125.7 43.7v-4.2h1.8q0.2 0 0.3 0 0.2 0 0.3 0 0.1 0 0.3 0.1 0.1 0 0.2 0.1 0.1 0 0.2 0 0.1 0.1 0.2 0.2 0.1 0 0.2 0.1 0 0.1 0.1 0.2 0.1 0 0.1 0.1 0.1 0.1 0.1 0.2 0 0.1 0 0.2 0 0.1 0 0.2 0 0.1 0 0.3 0 0.1 0 0.2 0 0.1-0.1 0.1 0 0.1-0.1 0.2-0.1 0.1-0.1 0.2-0.1 0.1-0.2 0.1-0.1 0.1-0.2 0.1-0.1 0.1-0.2 0.1 0 0-0.1 0.1l1.1 1.4h-0.7l-1.1-1.3q0 0 0 0-0.1 0-0.3 0h-1.1v1.3zm0.6-1.3v-0.2-0.3h-0.3l0.3 0.2-0.3 0.3zm0-0.2v-0.1zm1.2-0.3q0.1 0 0.3 0 0.1 0 0.2 0 0.1-0.1 0.3-0.1 0.1-0.1 0.2-0.1 0.2-0.2 0.2-0.3 0.1-0.2 0.1-0.4 0-0.2-0.1-0.4 0-0.2-0.2-0.3-0.1-0.1-0.2-0.1-0.2-0.1-0.3-0.1-0.1-0.1-0.2-0.1-0.2 0-0.3 0h-1.2v-0.3l-0.3 0.3h0.3v1.9z"/>
			<path id="Path_31" fill-rule="evenodd" class="s0" d="m134 43.2h2.8v0.5h-3.5v-4.2h3.4v0.5h-2.7v1.3h-0.1v0.5h0.1zm2.4-1.3v-0.6h-2.4v0.6z"/>
			<path id="Path_32" class="s0" d="m146.1 43.7v-1.6l0.1 0.4-2-3h0.7l1.7 2.5h-0.4l1.8-2.5h0.7l-2.1 3 0.2-0.4v1.6z"/>
			<path id="Path_33" fill-rule="evenodd" class="s0" d="m153.9 43.7q-0.1 0-0.2 0-0.2 0-0.3 0-0.1 0-0.2-0.1-0.2 0-0.3 0-0.1-0.1-0.2-0.1-0.1-0.1-0.2-0.1-0.1-0.1-0.2-0.1-0.1-0.1-0.2-0.2-0.1-0.1-0.2-0.1 0-0.1-0.1-0.2-0.1-0.1-0.1-0.2-0.1-0.1-0.1-0.2-0.1-0.2-0.2-0.4 0-0.2 0-0.4 0-0.2 0-0.4 0.1-0.3 0.2-0.5 0-0.1 0.1-0.2 0 0 0.1-0.1 0.1-0.1 0.1-0.2 0.1-0.1 0.2-0.1 0.1-0.1 0.2-0.2 0.1 0 0.2-0.1 0.1-0.1 0.2-0.1 0.1-0.1 0.2-0.1 0.3-0.1 0.5-0.1 0.3-0.1 0.5-0.1 0.3 0 0.5 0.1 0.3 0 0.5 0.1 0.2 0 0.3 0.1 0.1 0 0.2 0.1 0.1 0 0.2 0.1 0.1 0.1 0.2 0.2 0 0 0.1 0.1 0.1 0.1 0.2 0.2 0 0.1 0.1 0.1 0 0.1 0.1 0.2 0.1 0.2 0.1 0.5 0.1 0.2 0.1 0.4 0 0.2-0.1 0.4 0 0.2-0.1 0.4-0.1 0.1-0.1 0.2-0.1 0.1-0.1 0.2-0.1 0.1-0.2 0.2-0.1 0.1-0.1 0.1-0.1 0.1-0.2 0.2-0.1 0-0.2 0.1-0.1 0-0.2 0.1-0.1 0-0.3 0.1-0.1 0-0.2 0-0.1 0.1-0.3 0.1-0.1 0-0.2 0-0.1 0-0.3 0zm0-0.5q0.1 0 0.2 0 0.1 0 0.2 0 0.1 0 0.2-0.1 0.1 0 0.2 0 0.1 0 0.1-0.1 0.1 0 0.2-0.1 0.1 0 0.1-0.1 0.1 0 0.2-0.1 0 0 0.1-0.1 0 0 0.1-0.1 0-0.1 0.1-0.1 0-0.1 0.1-0.2 0-0.1 0.1-0.3 0-0.1 0-0.3 0-0.2 0-0.3-0.1-0.2-0.1-0.4-0.1 0-0.1-0.1-0.1-0.1-0.1-0.1-0.1-0.1-0.1-0.2-0.1 0-0.1-0.1-0.1 0-0.2-0.1 0 0-0.1-0.1-0.1 0-0.2 0 0-0.1-0.1-0.1-0.2-0.1-0.4-0.1-0.2 0-0.4 0-0.2 0-0.3 0-0.2 0-0.4 0.1-0.1 0-0.2 0.1 0 0-0.1 0-0.1 0.1-0.2 0.1 0 0.1-0.1 0.1-0.1 0.1-0.1 0.1-0.1 0.1-0.1 0.2-0.1 0-0.1 0.1-0.1 0.1-0.1 0.1-0.1 0.2-0.1 0.4 0 0.1 0 0.3 0 0.2 0 0.3 0 0.2 0.1 0.3 0 0.1 0.1 0.2 0 0 0.1 0.1 0 0.1 0.1 0.1 0 0.1 0.1 0.1 0.1 0.1 0.1 0.1 0.1 0.1 0.2 0.1 0.1 0.1 0.1 0.1 0.1 0.1 0.2 0.1 0.1 0 0.2 0 0.1 0.1 0.2 0.1 0.1 0 0.1 0 0.1 0 0.2 0z"/>
			<path id="Path_34" class="s0" d="m162.1 43.7q-0.2 0-0.4 0-0.2 0-0.4-0.1-0.1 0-0.3-0.1-0.2-0.1-0.4-0.2-0.1-0.2-0.2-0.3-0.1-0.2-0.2-0.4-0.1-0.2-0.1-0.3 0-0.2 0-0.4v-2.4h0.7v2.4q0 0.1 0 0.2 0 0.2 0.1 0.3 0 0.1 0.1 0.3 0 0.1 0.1 0.2 0.3 0.1 0.5 0.2 0.3 0.1 0.5 0.1 0.3 0 0.6-0.1 0.2-0.1 0.4-0.2 0.1-0.1 0.2-0.2 0.1-0.2 0.1-0.3 0.1-0.1 0.1-0.3 0-0.1 0-0.2v-2.4h0.7v2.4q0 0.2-0.1 0.4 0 0.1-0.1 0.3 0 0.2-0.1 0.4-0.1 0.1-0.3 0.3-0.1 0.1-0.3 0.2-0.2 0.1-0.4 0.1-0.2 0.1-0.4 0.1-0.2 0-0.4 0z"/>
			<path id="Path_35" class="s0" d="m172.6 43.7v-4.2h0.7v3.7h2.6v0.5z"/>
			<path id="Path_36" class="s0" d="m179.3 43.7v-4.2h0.7v4.2z"/>
			<path id="Path_37" class="s0" d="m185.4 43.7l-2.1-4.2h0.7l2 3.9h-0.5l2-3.9h0.7l-2.1 4.2z"/>
			<path id="Path_38" fill-rule="evenodd" class="s0" d="m192.1 43.2h2.8v0.5h-3.5v-4.2h3.4v0.5h-2.7v1.3h-0.1v0.5h0.1zm2.4-1.3v-0.6h-2.4v0.6z"/>
		</g>
		<g id="Group_8">
			<g id="Group_7">
				<g id="Clip-Path: Group_6" clip-path="url(#cp1)">
					<g id="Group_6">
						<path id="Path_39" class="s0" d=""/>
						<path id="Rectangle_514" class="s0" d="m63.4 34.7h0.3v0.5h-0.3z"/>
						<path id="Rectangle_515" class="s0" d="m63.7 34.7h0.3v0.5h-0.3z"/>
						<path id="Rectangle_516" class="s0" d="m64 34.7h0.2v0.5h-0.2z"/>
						<path id="Rectangle_517" class="s0" d="m64.2 34.7h0.3v0.5h-0.3z"/>
						<path id="Rectangle_518" class="s0" d="m64.5 34.7h0.3v0.5h-0.3z"/>
						<path id="Rectangle_519" class="s0" d="m64.8 34.7h0.3v0.5h-0.3z"/>
						<path id="Rectangle_520" class="s0" d="m65.1 34.7h0.3v0.5h-0.3z"/>
						<path id="Rectangle_521" class="s0" d="m65.4 34.7h0.3v0.5h-0.3z"/>
						<path id="Rectangle_522" class="s0" d="m65.7 34.7h0.2v0.5h-0.2z"/>
						<path id="Rectangle_523" class="s0" d="m65.9 34.7h0.3v0.5h-0.3z"/>
						<path id="Rectangle_524" class="s0" d="m66.2 34.7h0.3v0.5h-0.3z"/>
						<path id="Rectangle_525" class="s0" d="m66.5 34.7h0.3v0.5h-0.3z"/>
						<path id="Rectangle_526" class="s0" d="m66.8 34.7h0.3v0.5h-0.3z"/>
						<path id="Rectangle_527" class="s0" d="m67.1 34.7h0.2v0.5h-0.2z"/>
						<path id="Rectangle_528" class="s0" d="m67.3 34.7h0.3v0.5h-0.3z"/>
						<path id="Rectangle_529" class="s0" d="m67.6 34.7h0.3v0.5h-0.3z"/>
						<path id="Rectangle_530" class="s0" d="m67.9 34.7h0.3v0.5h-0.3z"/>
						<path id="Rectangle_531" class="s0" d="m68.2 34.7h0.3v0.5h-0.3z"/>
						<path id="Rectangle_532" class="s0" d="m68.5 34.7h0.3v0.5h-0.3z"/>
						<path id="Rectangle_533" class="s0" d="m68.8 34.7h0.2v0.5h-0.2z"/>
						<path id="Rectangle_534" class="s0" d="m69 34.7h0.3v0.5h-0.3z"/>
						<path id="Rectangle_535" class="s0" d="m69.3 34.7h0.3v0.5h-0.3z"/>
						<path id="Rectangle_536" class="s0" d="m69.6 34.7h0.3v0.5h-0.3z"/>
						<path id="Rectangle_537" class="s0" d="m69.9 34.7h0.3v0.5h-0.3z"/>
						<path id="Rectangle_538" class="s0" d="m70.2 34.7h0.2v0.5h-0.2z"/>
						<path id="Rectangle_539" class="s0" d="m70.4 34.7h0.3v0.5h-0.3z"/>
						<path id="Rectangle_540" class="s0" d="m70.7 34.7h0.3v0.5h-0.3z"/>
						<path id="Rectangle_541" class="s0" d="m71 34.7h0.3v0.5h-0.3z"/>
						<path id="Rectangle_542" class="s0" d="m71.3 34.7h0.3v0.5h-0.3z"/>
						<path id="Rectangle_543" class="s0" d="m71.6 34.7h0.3v0.5h-0.3z"/>
						<path id="Rectangle_544" class="s0" d="m71.9 34.7h0.2v0.5h-0.2z"/>
						<path id="Rectangle_545" class="s0" d="m72.1 34.7h0.3v0.5h-0.3z"/>
						<path id="Rectangle_546" class="s0" d="m72.4 34.7h0.3v0.5h-0.3z"/>
						<path id="Rectangle_547" class="s0" d="m72.7 34.7h0.3v0.5h-0.3z"/>
						<path id="Rectangle_548" class="s0" d="m73 34.7h0.3v0.5h-0.3z"/>
						<path id="Rectangle_549" class="s0" d="m73.3 34.7h0.3v0.5h-0.3z"/>
						<path id="Rectangle_550" class="s0" d="m73.6 34.7h0.2v0.5h-0.2z"/>
						<path id="Rectangle_551" class="s0" d="m73.8 34.7h0.3v0.5h-0.3z"/>
						<path id="Rectangle_552" class="s0" d="m74.1 34.7h0.3v0.5h-0.3z"/>
						<path id="Rectangle_553" class="s0" d="m74.4 34.7h0.3v0.5h-0.3z"/>
						<path id="Rectangle_554" class="s0" d="m74.7 34.7h0.3v0.5h-0.3z"/>
						<path id="Rectangle_555" class="s0" d="m75 34.7h0.2v0.5h-0.2z"/>
						<path id="Rectangle_556" class="s0" d="m75.2 34.7h0.3v0.5h-0.3z"/>
						<path id="Rectangle_557" class="s0" d="m75.5 34.7h0.3v0.5h-0.3z"/>
						<path id="Rectangle_558" class="s0" d="m75.8 34.7h0.3v0.5h-0.3z"/>
						<path id="Rectangle_559" class="s0" d="m76.1 34.7h0.3v0.5h-0.3z"/>
						<path id="Rectangle_560" class="s0" d="m76.4 34.7h0.3v0.5h-0.3z"/>
						<path id="Rectangle_561" class="s0" d="m76.7 34.7h0.2v0.5h-0.2z"/>
						<path id="Rectangle_562" class="s0" d="m76.9 34.7h0.3v0.5h-0.3z"/>
						<path id="Rectangle_563" class="s0" d="m77.2 34.7h0.3v0.5h-0.3z"/>
						<path id="Rectangle_564" class="s0" d="m77.5 34.7h0.3v0.5h-0.3z"/>
						<path id="Rectangle_565" class="s0" d="m77.8 34.7h0.3v0.5h-0.3z"/>
						<path id="Rectangle_566" class="s0" d="m78.1 34.7h0.2v0.5h-0.2z"/>
						<path id="Rectangle_567" class="s0" d="m78.3 34.7h0.3v0.5h-0.3z"/>
						<path id="Rectangle_568" class="s0" d="m78.6 34.7h0.3v0.5h-0.3z"/>
						<path id="Rectangle_569" class="s0" d="m78.9 34.7h0.3v0.5h-0.3z"/>
						<path id="Rectangle_570" class="s0" d="m79.2 34.7h0.3v0.5h-0.3z"/>
						<path id="Rectangle_571" class="s0" d="m79.5 34.7h0.3v0.5h-0.3z"/>
						<path id="Rectangle_572" class="s0" d="m79.8 34.7h0.2v0.5h-0.2z"/>
						<path id="Rectangle_573" class="s0" d="m80 34.7h0.3v0.5h-0.3z"/>
						<path id="Rectangle_574" class="s0" d="m80.3 34.7h0.3v0.5h-0.3z"/>
						<path id="Rectangle_575" class="s0" d="m80.6 34.7h0.3v0.5h-0.3z"/>
						<path id="Rectangle_576" class="s0" d="m80.9 34.7h0.3v0.5h-0.3z"/>
						<path id="Rectangle_577" class="s0" d="m81.2 34.7h0.2v0.5h-0.2z"/>
						<path id="Rectangle_578" class="s0" d="m81.4 34.7h0.3v0.5h-0.3z"/>
						<path id="Rectangle_579" class="s0" d="m81.7 34.7h0.3v0.5h-0.3z"/>
						<path id="Rectangle_580" class="s0" d="m82 34.7h0.3v0.5h-0.3z"/>
						<path id="Rectangle_581" class="s0" d="m82.3 34.7h0.3v0.5h-0.3z"/>
						<path id="Rectangle_582" class="s0" d="m82.6 34.7h0.3v0.5h-0.3z"/>
						<path id="Rectangle_583" class="s0" d="m82.9 34.7h0.2v0.5h-0.2z"/>
						<path id="Rectangle_584" class="s0" d="m83.1 34.7h0.3v0.5h-0.3z"/>
						<path id="Rectangle_585" class="s0" d="m83.4 34.7h0.3v0.5h-0.3z"/>
						<path id="Rectangle_586" class="s0" d="m83.7 34.7h0.3v0.5h-0.3z"/>
						<path id="Rectangle_587" class="s0" d="m84 34.7h0.3v0.5h-0.3z"/>
						<path id="Rectangle_588" class="s0" d="m84.3 34.7h0.3v0.5h-0.3z"/>
						<path id="Rectangle_589" class="s0" d="m84.5 34.7h0.3v0.5h-0.3z"/>
						<path id="Rectangle_590" class="s0" d="m84.8 34.7h0.3v0.5h-0.3z"/>
						<path id="Rectangle_591" class="s0" d="m85.1 34.7h0.3v0.5h-0.3z"/>
						<path id="Rectangle_592" class="s0" d="m85.4 34.7h0.3v0.5h-0.3z"/>
						<path id="Rectangle_593" class="s0" d="m85.7 34.7h0.3v0.5h-0.3z"/>
						<path id="Rectangle_594" class="s0" d="m86 34.7h0.2v0.5h-0.2z"/>
						<path id="Rectangle_595" class="s0" d="m86.2 34.7h0.3v0.5h-0.3z"/>
						<path id="Rectangle_596" class="s0" d="m86.5 34.7h0.3v0.5h-0.3z"/>
						<path id="Rectangle_597" class="s0" d="m86.8 34.7h0.3v0.5h-0.3z"/>
						<path id="Rectangle_598" class="s0" d="m87.1 34.7h0.3v0.5h-0.3z"/>
						<path id="Rectangle_599" class="s0" d="m87.4 34.7h0.3v0.5h-0.3z"/>
						<path id="Rectangle_600" class="s0" d="m87.7 34.7h0.2v0.5h-0.2z"/>
						<path id="Rectangle_601" class="s0" d="m87.9 34.7h0.3v0.5h-0.3z"/>
						<path id="Rectangle_602" class="s0" d="m88.2 34.7h0.3v0.5h-0.3z"/>
						<path id="Rectangle_603" class="s0" d="m88.5 34.7h0.3v0.5h-0.3z"/>
						<path id="Rectangle_604" class="s0" d="m88.8 34.7h0.3v0.5h-0.3z"/>
						<path id="Rectangle_605" class="s0" d="m89.1 34.7h0.2v0.5h-0.2z"/>
						<path id="Rectangle_606" class="s0" d="m89.3 34.7h0.3v0.5h-0.3z"/>
						<path id="Rectangle_607" class="s0" d="m89.6 34.7h0.3v0.5h-0.3z"/>
						<path id="Rectangle_608" class="s0" d="m89.9 34.7h0.3v0.5h-0.3z"/>
						<path id="Rectangle_609" class="s0" d="m90.2 34.7h0.3v0.5h-0.3z"/>
						<path id="Rectangle_610" class="s0" d="m90.5 34.7h0.3v0.5h-0.3z"/>
						<path id="Rectangle_611" class="s0" d="m90.8 34.7h0.2v0.5h-0.2z"/>
						<path id="Rectangle_612" class="s0" d="m91 34.7h0.3v0.5h-0.3z"/>
						<path id="Rectangle_613" class="s0" d="m91.3 34.7h0.3v0.5h-0.3z"/>
						<path id="Rectangle_614" class="s0" d="m91.6 34.7h0.3v0.5h-0.3z"/>
						<path id="Rectangle_615" class="s0" d="m91.9 34.7h0.3v0.5h-0.3z"/>
						<path id="Rectangle_616" class="s0" d="m92.2 34.7h0.2v0.5h-0.2z"/>
						<path id="Rectangle_617" class="s0" d="m92.4 34.7h0.3v0.5h-0.3z"/>
						<path id="Rectangle_618" class="s0" d="m92.7 34.7h0.3v0.5h-0.3z"/>
						<path id="Rectangle_619" class="s0" d="m93 34.7h0.3v0.5h-0.3z"/>
						<path id="Rectangle_620" class="s0" d="m93.3 34.7h0.3v0.5h-0.3z"/>
						<path id="Rectangle_621" class="s0" d="m93.6 34.7h0.3v0.5h-0.3z"/>
						<path id="Rectangle_622" class="s0" d="m93.9 34.7h0.2v0.5h-0.2z"/>
						<path id="Rectangle_623" class="s0" d="m94.1 34.7h0.3v0.5h-0.3z"/>
						<path id="Rectangle_624" class="s0" d="m94.4 34.7h0.3v0.5h-0.3z"/>
						<path id="Rectangle_625" class="s0" d="m94.7 34.7h0.3v0.5h-0.3z"/>
						<path id="Rectangle_626" class="s0" d="m95 34.7h0.3v0.5h-0.3z"/>
						<path id="Rectangle_627" class="s0" d="m95.3 34.7h0.2v0.5h-0.2z"/>
						<path id="Rectangle_628" class="s0" d="m95.5 34.7h0.3v0.5h-0.3z"/>
						<path id="Rectangle_629" class="s0" d="m95.8 34.7h0.3v0.5h-0.3z"/>
						<path id="Rectangle_630" class="s0" d="m96.1 34.7h0.3v0.5h-0.3z"/>
						<path id="Rectangle_631" class="s0" d="m96.4 34.7h0.3v0.5h-0.3z"/>
						<path id="Rectangle_632" class="s0" d="m96.7 34.7h0.3v0.5h-0.3z"/>
						<path id="Rectangle_633" class="s0" d="m97 34.7h0.2v0.5h-0.2z"/>
						<path id="Rectangle_634" class="s0" d="m97.2 34.7h0.3v0.5h-0.3z"/>
						<path id="Rectangle_635" class="s0" d="m97.5 34.7h0.3v0.5h-0.3z"/>
						<path id="Rectangle_636" class="s0" d="m97.8 34.7h0.3v0.5h-0.3z"/>
						<path id="Rectangle_637" class="s0" d="m98.1 34.7h0.3v0.5h-0.3z"/>
						<path id="Rectangle_638" class="s0" d="m98.4 34.7h0.3v0.5h-0.3z"/>
						<path id="Rectangle_639" class="s0" d="m98.7 34.7h0.2v0.5h-0.2z"/>
						<path id="Rectangle_640" class="s0" d="m98.9 34.7h0.3v0.5h-0.3z"/>
						<path id="Rectangle_641" class="s0" d="m99.2 34.7h0.3v0.5h-0.3z"/>
						<path id="Rectangle_642" class="s0" d="m99.5 34.7h0.3v0.5h-0.3z"/>
						<path id="Rectangle_643" class="s0" d="m99.8 34.7h0.3v0.5h-0.3z"/>
						<path id="Rectangle_644" class="s0" d="m100.1 34.7h0.2v0.5h-0.2z"/>
						<path id="Rectangle_645" class="s0" d="m100.3 34.7h0.3v0.5h-0.3z"/>
						<path id="Rectangle_646" class="s0" d="m100.6 34.7h0.3v0.5h-0.3z"/>
						<path id="Rectangle_647" class="s0" d="m100.9 34.7h0.3v0.5h-0.3z"/>
						<path id="Rectangle_648" class="s0" d="m101.2 34.7h0.3v0.5h-0.3z"/>
						<path id="Rectangle_649" class="s0" d="m101.5 34.7h0.3v0.5h-0.3z"/>
						<path id="Rectangle_650" class="s0" d="m101.8 34.7h0.2v0.5h-0.2z"/>
						<path id="Rectangle_651" class="s0" d="m102 34.7h0.3v0.5h-0.3z"/>
						<path id="Rectangle_652" class="s0" d="m102.3 34.7h0.3v0.5h-0.3z"/>
						<path id="Rectangle_653" class="s0" d="m102.6 34.7h0.3v0.5h-0.3z"/>
						<path id="Rectangle_654" class="s0" d="m102.9 34.7h0.3v0.5h-0.3z"/>
						<path id="Rectangle_655" class="s0" d="m103.2 34.7h0.2v0.5h-0.2z"/>
						<path id="Rectangle_656" class="s0" d="m103.4 34.7h0.3v0.5h-0.3z"/>
						<path id="Rectangle_657" class="s0" d="m103.7 34.7h0.3v0.5h-0.3z"/>
						<path id="Rectangle_658" class="s0" d="m104 34.7h0.3v0.5h-0.3z"/>
						<path id="Rectangle_659" class="s0" d="m104.3 34.7h0.3v0.5h-0.3z"/>
						<path id="Rectangle_660" class="s0" d="m104.6 34.7h0.3v0.5h-0.3z"/>
						<path id="Rectangle_661" class="s0" d="m104.9 34.7h0.2v0.5h-0.2z"/>
						<path id="Rectangle_662" class="s0" d="m105.1 34.7h0.3v0.5h-0.3z"/>
						<path id="Rectangle_663" class="s0" d="m105.4 34.7h0.3v0.5h-0.3z"/>
						<path id="Rectangle_664" class="s0" d="m105.7 34.7h0.3v0.5h-0.3z"/>
						<path id="Rectangle_665" class="s0" d="m106 34.7h0.3v0.5h-0.3z"/>
						<path id="Rectangle_666" class="s0" d="m106.3 34.7h0.2v0.5h-0.2z"/>
						<path id="Rectangle_667" class="s0" d="m106.5 34.7h0.3v0.5h-0.3z"/>
						<path id="Rectangle_668" class="s0" d="m106.8 34.7h0.3v0.5h-0.3z"/>
						<path id="Rectangle_669" class="s0" d="m107.1 34.7h0.3v0.5h-0.3z"/>
						<path id="Rectangle_670" class="s0" d="m107.4 34.7h0.3v0.5h-0.3z"/>
						<path id="Rectangle_671" class="s0" d="m107.7 34.7h0.3v0.5h-0.3z"/>
						<path id="Rectangle_672" class="s0" d="m108 34.7h0.2v0.5h-0.2z"/>
						<path id="Rectangle_673" class="s0" d="m108.2 34.7h0.3v0.5h-0.3z"/>
						<path id="Rectangle_674" class="s0" d="m108.5 34.7h0.3v0.5h-0.3z"/>
						<path id="Rectangle_675" class="s0" d="m108.8 34.7h0.3v0.5h-0.3z"/>
						<path id="Rectangle_676" class="s0" d="m109.1 34.7h0.3v0.5h-0.3z"/>
						<path id="Rectangle_677" class="s0" d="m109.4 34.7h0.2v0.5h-0.2z"/>
						<path id="Rectangle_678" class="s0" d="m109.6 34.7h0.3v0.5h-0.3z"/>
						<path id="Rectangle_679" class="s0" d="m109.9 34.7h0.3v0.5h-0.3z"/>
						<path id="Rectangle_680" class="s0" d="m110.2 34.7h0.3v0.5h-0.3z"/>
						<path id="Rectangle_681" class="s0" d="m110.5 34.7h0.3v0.5h-0.3z"/>
						<path id="Rectangle_682" class="s0" d="m110.8 34.7h0.3v0.5h-0.3z"/>
						<path id="Rectangle_683" class="s0" d="m111.1 34.7h0.2v0.5h-0.2z"/>
						<path id="Rectangle_684" class="s0" d="m111.3 34.7h0.3v0.5h-0.3z"/>
						<path id="Rectangle_685" class="s0" d="m111.6 34.7h0.3v0.5h-0.3z"/>
						<path id="Rectangle_686" class="s0" d="m111.9 34.7h0.3v0.5h-0.3z"/>
						<path id="Rectangle_687" class="s0" d="m112.2 34.7h0.3v0.5h-0.3z"/>
						<path id="Rectangle_688" class="s0" d="m112.5 34.7h0.3v0.5h-0.3z"/>
						<path id="Rectangle_689" class="s0" d="m112.8 34.7h0.2v0.5h-0.2z"/>
						<path id="Rectangle_690" class="s0" d="m113 34.7h0.3v0.5h-0.3z"/>
						<path id="Rectangle_691" class="s0" d="m113.3 34.7h0.3v0.5h-0.3z"/>
						<path id="Rectangle_692" class="s0" d="m113.6 34.7h0.3v0.5h-0.3z"/>
						<path id="Rectangle_693" class="s0" d="m113.9 34.7h0.3v0.5h-0.3z"/>
						<path id="Rectangle_694" class="s0" d="m114.2 34.7h0.2v0.5h-0.2z"/>
						<path id="Rectangle_695" class="s0" d="m114.4 34.7h0.3v0.5h-0.3z"/>
						<path id="Rectangle_696" class="s0" d="m114.7 34.7h0.3v0.5h-0.3z"/>
						<path id="Rectangle_697" class="s0" d="m115 34.7h0.3v0.5h-0.3z"/>
						<path id="Rectangle_698" class="s0" d="m115.3 34.7h0.3v0.5h-0.3z"/>
						<path id="Rectangle_699" class="s0" d="m115.6 34.7h0.3v0.5h-0.3z"/>
						<path id="Rectangle_700" class="s0" d="m115.9 34.7h0.2v0.5h-0.2z"/>
						<path id="Rectangle_701" class="s0" d="m116.1 34.7h0.3v0.5h-0.3z"/>
						<path id="Rectangle_702" class="s0" d="m116.4 34.7h0.3v0.5h-0.3z"/>
						<path id="Rectangle_703" class="s0" d="m116.7 34.7h0.3v0.5h-0.3z"/>
						<path id="Rectangle_704" class="s0" d="m117 34.7h0.3v0.5h-0.3z"/>
						<path id="Rectangle_705" class="s0" d="m117.3 34.7h0.2v0.5h-0.2z"/>
						<path id="Rectangle_706" class="s0" d="m117.5 34.7h0.3v0.5h-0.3z"/>
						<path id="Rectangle_707" class="s0" d="m117.8 34.7h0.3v0.5h-0.3z"/>
						<path id="Rectangle_708" class="s0" d="m118.1 34.7h0.3v0.5h-0.3z"/>
						<path id="Rectangle_709" class="s0" d="m118.4 34.7h0.3v0.5h-0.3z"/>
						<path id="Rectangle_710" class="s0" d="m118.7 34.7h0.3v0.5h-0.3z"/>
						<path id="Rectangle_711" class="s0" d="m119 34.7h0.2v0.5h-0.2z"/>
						<path id="Rectangle_712" class="s0" d="m119.2 34.7h0.3v0.5h-0.3z"/>
						<path id="Rectangle_713" class="s0" d="m119.5 34.7h0.3v0.5h-0.3z"/>
						<path id="Rectangle_714" class="s0" d="m119.8 34.7h0.3v0.5h-0.3z"/>
						<path id="Rectangle_715" class="s0" d="m120.1 34.7h0.3v0.5h-0.3z"/>
						<path id="Rectangle_716" class="s0" d="m120.4 34.7h0.2v0.5h-0.2z"/>
						<path id="Rectangle_717" class="s0" d="m120.6 34.7h0.3v0.5h-0.3z"/>
						<path id="Rectangle_718" class="s0" d="m120.9 34.7h0.3v0.5h-0.3z"/>
						<path id="Rectangle_719" class="s0" d="m121.2 34.7h0.3v0.5h-0.3z"/>
						<path id="Rectangle_720" class="s0" d="m121.5 34.7h0.3v0.5h-0.3z"/>
						<path id="Rectangle_721" class="s0" d="m121.8 34.7h0.3v0.5h-0.3z"/>
						<path id="Rectangle_722" class="s0" d="m122.1 34.7h0.2v0.5h-0.2z"/>
						<path id="Rectangle_723" class="s0" d="m122.3 34.7h0.3v0.5h-0.3z"/>
						<path id="Rectangle_724" class="s0" d="m122.6 34.7h0.3v0.5h-0.3z"/>
						<path id="Rectangle_725" class="s0" d="m122.9 34.7h0.3v0.5h-0.3z"/>
						<path id="Rectangle_726" class="s0" d="m123.2 34.7h0.3v0.5h-0.3z"/>
						<path id="Rectangle_727" class="s0" d="m123.5 34.7h0.3v0.5h-0.3z"/>
						<path id="Rectangle_728" class="s0" d="m123.8 34.7h0.2v0.5h-0.2z"/>
						<path id="Rectangle_729" class="s0" d="m124 34.7h0.3v0.5h-0.3z"/>
						<path id="Rectangle_730" class="s0" d="m124.3 34.7h0.3v0.5h-0.3z"/>
						<path id="Rectangle_731" class="s0" d="m124.6 34.7h0.3v0.5h-0.3z"/>
						<path id="Rectangle_732" class="s0" d="m124.9 34.7h0.3v0.5h-0.3z"/>
						<path id="Rectangle_733" class="s0" d="m125.2 34.7h0.2v0.5h-0.2z"/>
						<path id="Rectangle_734" class="s0" d="m125.4 34.7h0.3v0.5h-0.3z"/>
						<path id="Rectangle_735" class="s0" d="m125.7 34.7h0.3v0.5h-0.3z"/>
						<path id="Rectangle_736" class="s0" d="m126 34.7h0.3v0.5h-0.3z"/>
						<path id="Rectangle_737" class="s0" d="m126.3 34.7h0.3v0.5h-0.3z"/>
						<path id="Rectangle_738" class="s0" d="m126.6 34.7h0.3v0.5h-0.3z"/>
						<path id="Rectangle_739" class="s0" d="m126.9 34.7h0.2v0.5h-0.2z"/>
						<path id="Rectangle_740" class="s0" d="m127.1 34.7h0.3v0.5h-0.3z"/>
						<path id="Rectangle_741" class="s0" d="m127.4 34.7h0.3v0.5h-0.3z"/>
						<path id="Rectangle_742" class="s0" d="m127.7 34.7h0.3v0.5h-0.3z"/>
						<path id="Rectangle_743" class="s0" d="m128 34.7h0.3v0.5h-0.3z"/>
						<path id="Rectangle_744" class="s0" d="m128.3 34.7h0.2v0.5h-0.2z"/>
						<path id="Rectangle_745" class="s0" d="m128.5 34.7h0.3v0.5h-0.3z"/>
						<path id="Rectangle_746" class="s0" d="m128.8 34.7h0.3v0.5h-0.3z"/>
						<path id="Rectangle_747" class="s0" d="m129.1 34.7h0.3v0.5h-0.3z"/>
						<path id="Rectangle_748" class="s0" d="m129.4 34.7h0.3v0.5h-0.3z"/>
						<path id="Rectangle_749" class="s0" d="m129.7 34.7h0.3v0.5h-0.3z"/>
						<path id="Rectangle_750" class="s0" d="m130 34.7h0.2v0.5h-0.2z"/>
						<path id="Rectangle_751" class="s0" d="m130.2 34.7h0.3v0.5h-0.3z"/>
						<path id="Rectangle_752" class="s0" d="m130.5 34.7h0.3v0.5h-0.3z"/>
						<path id="Rectangle_753" class="s0" d="m130.8 34.7h0.3v0.5h-0.3z"/>
						<path id="Rectangle_754" class="s0" d="m131.1 34.7h0.3v0.5h-0.3z"/>
						<path id="Rectangle_755" class="s0" d="m131.4 34.7h0.2v0.5h-0.2z"/>
						<path id="Rectangle_756" class="s0" d="m131.6 34.7h0.3v0.5h-0.3z"/>
						<path id="Rectangle_757" class="s0" d="m131.9 34.7h0.3v0.5h-0.3z"/>
						<path id="Rectangle_758" class="s0" d="m132.2 34.7h0.3v0.5h-0.3z"/>
						<path id="Rectangle_759" class="s0" d="m132.5 34.7h0.3v0.5h-0.3z"/>
						<path id="Rectangle_760" class="s0" d="m132.8 34.7h0.3v0.5h-0.3z"/>
						<path id="Rectangle_761" class="s0" d="m133.1 34.7h0.2v0.5h-0.2z"/>
						<path id="Rectangle_762" class="s0" d="m133.3 34.7h0.3v0.5h-0.3z"/>
						<path id="Rectangle_763" class="s0" d="m133.6 34.7h0.3v0.5h-0.3z"/>
						<path id="Rectangle_764" class="s0" d="m133.9 34.7h0.3v0.5h-0.3z"/>
						<path id="Rectangle_765" class="s0" d="m134.2 34.7h0.3v0.5h-0.3z"/>
						<path id="Rectangle_766" class="s0" d="m134.5 34.7h0.2v0.5h-0.2z"/>
						<path id="Rectangle_767" class="s0" d="m134.7 34.7h0.3v0.5h-0.3z"/>
						<path id="Rectangle_768" class="s0" d="m135 34.7h0.3v0.5h-0.3z"/>
						<path id="Rectangle_769" class="s0" d="m135.3 34.7h0.3v0.5h-0.3z"/>
						<path id="Rectangle_770" class="s0" d="m135.6 34.7h0.2v0.5h-0.2z"/>
						<path id="Rectangle_771" class="s0" d="m135.8 34.7h0.3v0.5h-0.3z"/>
						<path id="Rectangle_772" class="s0" d="m136.1 34.7h0.2v0.5h-0.2z"/>
						<path id="Rectangle_773" class="s0" d="m136.3 34.7h0.3v0.5h-0.3z"/>
						<path id="Rectangle_774" class="s0" d="m136.6 34.7h0.3v0.5h-0.3z"/>
						<path id="Rectangle_775" class="s0" d="m136.9 34.7h0.2v0.5h-0.2z"/>
						<path id="Rectangle_776" class="s0" d="m137.1 34.7h0.3v0.5h-0.3z"/>
						<path id="Rectangle_777" class="s0" d="m137.4 34.7h0.2v0.5h-0.2z"/>
						<path id="Rectangle_778" class="s0" d="m137.6 34.7h0.3v0.5h-0.3z"/>
						<path id="Rectangle_779" class="s0" d="m137.9 34.7h0.3v0.5h-0.3z"/>
						<path id="Rectangle_780" class="s0" d="m138.2 34.7h0.2v0.5h-0.2z"/>
						<path id="Rectangle_781" class="s0" d="m138.4 34.7h0.3v0.5h-0.3z"/>
						<path id="Rectangle_782" class="s0" d="m138.7 34.7h0.2v0.5h-0.2z"/>
						<path id="Rectangle_783" class="s0" d="m138.9 34.7h0.3v0.5h-0.3z"/>
						<path id="Rectangle_784" class="s0" d="m139.2 34.7h0.3v0.5h-0.3z"/>
						<path id="Rectangle_785" class="s0" d="m139.5 34.7h0.2v0.5h-0.2z"/>
						<path id="Rectangle_786" class="s0" d="m139.7 34.7h0.3v0.5h-0.3z"/>
						<path id="Rectangle_787" class="s0" d="m140 34.7h0.2v0.5h-0.2z"/>
						<path id="Rectangle_788" class="s0" d="m140.2 34.7h0.3v0.5h-0.3z"/>
						<path id="Rectangle_789" class="s0" d="m140.5 34.7h0.3v0.5h-0.3z"/>
						<path id="Rectangle_790" class="s0" d="m140.8 34.7h0.2v0.5h-0.2z"/>
						<path id="Rectangle_791" class="s0" d="m141 34.7h0.3v0.5h-0.3z"/>
						<path id="Rectangle_792" class="s0" d="m141.3 34.7h0.2v0.5h-0.2z"/>
						<path id="Rectangle_793" class="s0" d="m141.5 34.7h0.3v0.5h-0.3z"/>
						<path id="Rectangle_794" class="s0" d="m141.8 34.7h0.2v0.5h-0.2z"/>
						<path id="Rectangle_795" class="s0" d="m142 34.7h0.3v0.5h-0.3z"/>
						<path id="Rectangle_796" class="s0" d="m142.3 34.7h0.3v0.5h-0.3z"/>
						<path id="Rectangle_797" class="s0" d="m142.6 34.7h0.2v0.5h-0.2z"/>
						<path id="Rectangle_798" class="s0" d="m142.8 34.7h0.3v0.5h-0.3z"/>
						<path id="Rectangle_799" class="s0" d="m143.1 34.7h0.2v0.5h-0.2z"/>
						<path id="Rectangle_800" class="s0" d="m143.3 34.7h0.3v0.5h-0.3z"/>
						<path id="Rectangle_801" class="s0" d="m143.6 34.7h0.3v0.5h-0.3z"/>
						<path id="Rectangle_802" class="s0" d="m143.9 34.7h0.2v0.5h-0.2z"/>
						<path id="Rectangle_803" class="s0" d="m144.1 34.7h0.3v0.5h-0.3z"/>
						<path id="Rectangle_804" class="s0" d="m144.4 34.7h0.2v0.5h-0.2z"/>
						<path id="Rectangle_805" class="s0" d="m144.6 34.7h0.3v0.5h-0.3z"/>
						<path id="Rectangle_806" class="s0" d="m144.9 34.7h0.3v0.5h-0.3z"/>
						<path id="Rectangle_807" class="s0" d="m145.2 34.7h0.2v0.5h-0.2z"/>
						<path id="Rectangle_808" class="s0" d="m145.4 34.7h0.3v0.5h-0.3z"/>
						<path id="Rectangle_809" class="s0" d="m145.7 34.7h0.2v0.5h-0.2z"/>
						<path id="Rectangle_810" class="s0" d="m145.9 34.7h0.3v0.5h-0.3z"/>
						<path id="Rectangle_811" class="s0" d="m146.2 34.7h0.2v0.5h-0.2z"/>
						<path id="Rectangle_812" class="s0" d="m146.4 34.7h0.3v0.5h-0.3z"/>
						<path id="Rectangle_813" class="s0" d="m146.7 34.7h0.3v0.5h-0.3z"/>
						<path id="Rectangle_814" class="s0" d="m147 34.7h0.2v0.5h-0.2z"/>
						<path id="Rectangle_815" class="s0" d="m147.2 34.7h0.3v0.5h-0.3z"/>
						<path id="Rectangle_816" class="s0" d="m147.5 34.7h0.2v0.5h-0.2z"/>
						<path id="Rectangle_817" class="s0" d="m147.7 34.7h0.3v0.5h-0.3z"/>
						<path id="Rectangle_818" class="s0" d="m148 34.7h0.3v0.5h-0.3z"/>
						<path id="Rectangle_819" class="s0" d="m148.3 34.7h0.2v0.5h-0.2z"/>
						<path id="Rectangle_820" class="s0" d="m148.5 34.7h0.3v0.5h-0.3z"/>
						<path id="Rectangle_821" class="s0" d="m148.8 34.7h0.2v0.5h-0.2z"/>
						<path id="Rectangle_822" class="s0" d="m149 34.7h0.3v0.5h-0.3z"/>
						<path id="Rectangle_823" class="s0" d="m149.3 34.7h0.3v0.5h-0.3z"/>
						<path id="Rectangle_824" class="s0" d="m149.6 34.7h0.2v0.5h-0.2z"/>
						<path id="Rectangle_825" class="s0" d="m149.8 34.7h0.3v0.5h-0.3z"/>
						<path id="Rectangle_826" class="s0" d="m150.1 34.7h0.2v0.5h-0.2z"/>
						<path id="Rectangle_827" class="s0" d="m150.3 34.7h0.3v0.5h-0.3z"/>
						<path id="Rectangle_828" class="s0" d="m150.6 34.7h0.3v0.5h-0.3z"/>
						<path id="Rectangle_829" class="s0" d="m150.9 34.7h0.2v0.5h-0.2z"/>
						<path id="Rectangle_830" class="s0" d="m151.1 34.7h0.3v0.5h-0.3z"/>
						<path id="Rectangle_831" class="s0" d="m151.4 34.7h0.2v0.5h-0.2z"/>
						<path id="Rectangle_832" class="s0" d="m151.6 34.7h0.3v0.5h-0.3z"/>
						<path id="Rectangle_833" class="s0" d="m151.9 34.7h0.2v0.5h-0.2z"/>
						<path id="Rectangle_834" class="s0" d="m152.1 34.7h0.3v0.5h-0.3z"/>
						<path id="Rectangle_835" class="s0" d="m152.4 34.7h0.3v0.5h-0.3z"/>
						<path id="Rectangle_836" class="s0" d="m152.7 34.7h0.2v0.5h-0.2z"/>
						<path id="Rectangle_837" class="s0" d="m152.9 34.7h0.3v0.5h-0.3z"/>
						<path id="Rectangle_838" class="s0" d="m153.2 34.7h0.2v0.5h-0.2z"/>
						<path id="Rectangle_839" class="s0" d="m153.4 34.7h0.3v0.5h-0.3z"/>
						<path id="Rectangle_840" class="s0" d="m153.7 34.7h0.3v0.5h-0.3z"/>
						<path id="Rectangle_841" class="s0" d="m154 34.7h0.2v0.5h-0.2z"/>
						<path id="Rectangle_842" class="s0" d="m154.2 34.7h0.3v0.5h-0.3z"/>
						<path id="Rectangle_843" class="s0" d="m154.5 34.7h0.2v0.5h-0.2z"/>
						<path id="Rectangle_844" class="s0" d="m154.7 34.7h0.3v0.5h-0.3z"/>
						<path id="Rectangle_845" class="s0" d="m155 34.7h0.3v0.5h-0.3z"/>
						<path id="Rectangle_846" class="s0" d="m155.3 34.7h0.2v0.5h-0.2z"/>
						<path id="Rectangle_847" class="s0" d="m155.5 34.7h0.3v0.5h-0.3z"/>
						<path id="Rectangle_848" class="s0" d="m155.8 34.7h0.2v0.5h-0.2z"/>
						<path id="Rectangle_849" class="s0" d="m156 34.7h0.3v0.5h-0.3z"/>
						<path id="Rectangle_850" class="s0" d="m156.3 34.7h0.2v0.5h-0.2z"/>
						<path id="Rectangle_851" class="s0" d="m156.5 34.7h0.3v0.5h-0.3z"/>
						<path id="Rectangle_852" class="s0" d="m156.8 34.7h0.3v0.5h-0.3z"/>
						<path id="Rectangle_853" class="s0" d="m157.1 34.7h0.2v0.5h-0.2z"/>
						<path id="Rectangle_854" class="s0" d="m157.3 34.7h0.3v0.5h-0.3z"/>
						<path id="Rectangle_855" class="s0" d="m157.6 34.7h0.2v0.5h-0.2z"/>
						<path id="Rectangle_856" class="s0" d="m157.8 34.7h0.3v0.5h-0.3z"/>
						<path id="Rectangle_857" class="s0" d="m158.1 34.7h0.3v0.5h-0.3z"/>
						<path id="Rectangle_858" class="s0" d="m158.4 34.7h0.2v0.5h-0.2z"/>
						<path id="Rectangle_859" class="s0" d="m158.6 34.7h0.3v0.5h-0.3z"/>
						<path id="Rectangle_860" class="s0" d="m158.9 34.7h0.2v0.5h-0.2z"/>
						<path id="Rectangle_861" class="s0" d="m159.1 34.7h0.3v0.5h-0.3z"/>
						<path id="Rectangle_862" class="s0" d="m159.4 34.7h0.3v0.5h-0.3z"/>
						<path id="Rectangle_863" class="s0" d="m159.7 34.7h0.2v0.5h-0.2z"/>
						<path id="Rectangle_864" class="s0" d="m159.9 34.7h0.3v0.5h-0.3z"/>
						<path id="Rectangle_865" class="s0" d="m160.2 34.7h0.2v0.5h-0.2z"/>
						<path id="Rectangle_866" class="s0" d="m160.4 34.7h0.3v0.5h-0.3z"/>
						<path id="Rectangle_867" class="s0" d="m160.7 34.7h0.3v0.5h-0.3z"/>
						<path id="Rectangle_868" class="s0" d="m160.9 34.7h0.3v0.5h-0.3z"/>
						<path id="Rectangle_869" class="s0" d="m161.2 34.7h0.3v0.5h-0.3z"/>
						<path id="Rectangle_870" class="s0" d="m161.5 34.7h0.2v0.5h-0.2z"/>
						<path id="Rectangle_871" class="s0" d="m161.7 34.7h0.3v0.5h-0.3z"/>
						<path id="Rectangle_872" class="s0" d="m162 34.7h0.2v0.5h-0.2z"/>
						<path id="Rectangle_873" class="s0" d="m162.2 34.7h0.3v0.5h-0.3z"/>
						<path id="Rectangle_874" class="s0" d="m162.5 34.7h0.3v0.5h-0.3z"/>
						<path id="Rectangle_875" class="s0" d="m162.8 34.7h0.2v0.5h-0.2z"/>
						<path id="Rectangle_876" class="s0" d="m163 34.7h0.3v0.5h-0.3z"/>
						<path id="Rectangle_877" class="s0" d="m163.3 34.7h0.2v0.5h-0.2z"/>
						<path id="Rectangle_878" class="s0" d="m163.5 34.7h0.3v0.5h-0.3z"/>
						<path id="Rectangle_879" class="s0" d="m163.8 34.7h0.3v0.5h-0.3z"/>
						<path id="Rectangle_880" class="s0" d="m164.1 34.7h0.2v0.5h-0.2z"/>
						<path id="Rectangle_881" class="s0" d="m164.3 34.7h0.3v0.5h-0.3z"/>
						<path id="Rectangle_882" class="s0" d="m164.6 34.7h0.2v0.5h-0.2z"/>
						<path id="Rectangle_883" class="s0" d="m164.8 34.7h0.3v0.5h-0.3z"/>
						<path id="Rectangle_884" class="s0" d="m165.1 34.7h0.3v0.5h-0.3z"/>
						<path id="Rectangle_885" class="s0" d="m165.4 34.7h0.2v0.5h-0.2z"/>
						<path id="Rectangle_886" class="s0" d="m165.6 34.7h0.3v0.5h-0.3z"/>
						<path id="Rectangle_887" class="s0" d="m165.9 34.7h0.2v0.5h-0.2z"/>
						<path id="Rectangle_888" class="s0" d="m166.1 34.7h0.3v0.5h-0.3z"/>
						<path id="Rectangle_889" class="s0" d="m166.4 34.7h0.2v0.5h-0.2z"/>
						<path id="Rectangle_890" class="s0" d="m166.6 34.7h0.3v0.5h-0.3z"/>
						<path id="Rectangle_891" class="s0" d="m166.9 34.7h0.3v0.5h-0.3z"/>
						<path id="Rectangle_892" class="s0" d="m167.2 34.7h0.2v0.5h-0.2z"/>
						<path id="Rectangle_893" class="s0" d="m167.4 34.7h0.3v0.5h-0.3z"/>
						<path id="Rectangle_894" class="s0" d="m167.7 34.7h0.2v0.5h-0.2z"/>
						<path id="Rectangle_895" class="s0" d="m167.9 34.7h0.3v0.5h-0.3z"/>
						<path id="Rectangle_896" class="s0" d="m168.2 34.7h0.3v0.5h-0.3z"/>
						<path id="Rectangle_897" class="s0" d="m168.5 34.7h0.2v0.5h-0.2z"/>
						<path id="Rectangle_898" class="s0" d="m168.7 34.7h0.3v0.5h-0.3z"/>
						<path id="Rectangle_899" class="s0" d="m169 34.7h0.2v0.5h-0.2z"/>
						<path id="Rectangle_900" class="s0" d="m169.2 34.7h0.3v0.5h-0.3z"/>
						<path id="Rectangle_901" class="s0" d="m169.5 34.7h0.3v0.5h-0.3z"/>
						<path id="Rectangle_902" class="s0" d="m169.8 34.7h0.2v0.5h-0.2z"/>
						<path id="Rectangle_903" class="s0" d="m170 34.7h0.3v0.5h-0.3z"/>
						<path id="Rectangle_904" class="s0" d="m170.3 34.7h0.2v0.5h-0.2z"/>
						<path id="Rectangle_905" class="s0" d="m170.5 34.7h0.3v0.5h-0.3z"/>
						<path id="Rectangle_906" class="s0" d="m170.8 34.7h0.2v0.5h-0.2z"/>
						<path id="Rectangle_907" class="s0" d="m171 34.7h0.3v0.5h-0.3z"/>
						<path id="Rectangle_908" class="s0" d="m171.3 34.7h0.3v0.5h-0.3z"/>
						<path id="Rectangle_909" class="s0" d="m171.6 34.7h0.2v0.5h-0.2z"/>
						<path id="Rectangle_910" class="s0" d="m171.8 34.7h0.3v0.5h-0.3z"/>
						<path id="Rectangle_911" class="s0" d="m172.1 34.7h0.2v0.5h-0.2z"/>
						<path id="Rectangle_912" class="s0" d="m172.3 34.7h0.3v0.5h-0.3z"/>
						<path id="Rectangle_913" class="s0" d="m172.6 34.7h0.3v0.5h-0.3z"/>
						<path id="Rectangle_914" class="s0" d="m172.9 34.7h0.2v0.5h-0.2z"/>
						<path id="Rectangle_915" class="s0" d="m173.1 34.7h0.3v0.5h-0.3z"/>
						<path id="Rectangle_916" class="s0" d="m173.4 34.7h0.2v0.5h-0.2z"/>
						<path id="Rectangle_917" class="s0" d="m173.6 34.7h0.3v0.5h-0.3z"/>
						<path id="Rectangle_918" class="s0" d="m173.9 34.7h0.3v0.5h-0.3z"/>
						<path id="Rectangle_919" class="s0" d="m174.2 34.7h0.2v0.5h-0.2z"/>
						<path id="Rectangle_920" class="s0" d="m174.4 34.7h0.3v0.5h-0.3z"/>
						<path id="Rectangle_921" class="s0" d="m174.7 34.7h0.2v0.5h-0.2z"/>
						<path id="Rectangle_922" class="s0" d="m174.9 34.7h0.3v0.5h-0.3z"/>
						<path id="Rectangle_923" class="s0" d="m175.2 34.7h0.3v0.5h-0.3z"/>
						<path id="Rectangle_924" class="s0" d="m175.5 34.7h0.2v0.5h-0.2z"/>
						<path id="Rectangle_925" class="s0" d="m175.7 34.7h0.3v0.5h-0.3z"/>
						<path id="Rectangle_926" class="s0" d="m176 34.7h0.2v0.5h-0.2z"/>
						<path id="Rectangle_927" class="s0" d="m176.2 34.7h0.3v0.5h-0.3z"/>
						<path id="Rectangle_928" class="s0" d="m176.5 34.7h0.2v0.5h-0.2z"/>
						<path id="Rectangle_929" class="s0" d="m176.7 34.7h0.3v0.5h-0.3z"/>
						<path id="Rectangle_930" class="s0" d="m177 34.7h0.3v0.5h-0.3z"/>
						<path id="Rectangle_931" class="s0" d="m177.3 34.7h0.2v0.5h-0.2z"/>
						<path id="Rectangle_932" class="s0" d="m177.5 34.7h0.3v0.5h-0.3z"/>
						<path id="Rectangle_933" class="s0" d="m177.8 34.7h0.2v0.5h-0.2z"/>
						<path id="Rectangle_934" class="s0" d="m178 34.7h0.3v0.5h-0.3z"/>
						<path id="Rectangle_935" class="s0" d="m178.3 34.7h0.3v0.5h-0.3z"/>
						<path id="Rectangle_936" class="s0" d="m178.6 34.7h0.2v0.5h-0.2z"/>
						<path id="Rectangle_937" class="s0" d="m178.8 34.7h0.3v0.5h-0.3z"/>
						<path id="Rectangle_938" class="s0" d="m179.1 34.7h0.2v0.5h-0.2z"/>
						<path id="Rectangle_939" class="s0" d="m179.3 34.7h0.3v0.5h-0.3z"/>
						<path id="Rectangle_940" class="s0" d="m179.6 34.7h0.3v0.5h-0.3z"/>
						<path id="Rectangle_941" class="s0" d="m179.9 34.7h0.2v0.5h-0.2z"/>
						<path id="Rectangle_942" class="s0" d="m180.1 34.7h0.3v0.5h-0.3z"/>
						<path id="Rectangle_943" class="s0" d="m180.4 34.7h0.2v0.5h-0.2z"/>
						<path id="Rectangle_944" class="s0" d="m180.6 34.7h0.3v0.5h-0.3z"/>
						<path id="Rectangle_945" class="s0" d="m180.9 34.7h0.2v0.5h-0.2z"/>
						<path id="Rectangle_946" class="s0" d="m181.1 34.7h0.3v0.5h-0.3z"/>
						<path id="Rectangle_947" class="s0" d="m181.4 34.7h0.3v0.5h-0.3z"/>
						<path id="Rectangle_948" class="s0" d="m181.7 34.7h0.2v0.5h-0.2z"/>
						<path id="Rectangle_949" class="s0" d="m181.9 34.7h0.3v0.5h-0.3z"/>
						<path id="Rectangle_950" class="s0" d="m182.2 34.7h0.2v0.5h-0.2z"/>
						<path id="Rectangle_951" class="s0" d="m182.4 34.7h0.3v0.5h-0.3z"/>
						<path id="Rectangle_952" class="s0" d="m182.7 34.7h0.3v0.5h-0.3z"/>
						<path id="Rectangle_953" class="s0" d="m183 34.7h0.2v0.5h-0.2z"/>
						<path id="Rectangle_954" class="s0" d="m183.2 34.7h0.3v0.5h-0.3z"/>
						<path id="Rectangle_955" class="s0" d="m183.5 34.7h0.2v0.5h-0.2z"/>
						<path id="Rectangle_956" class="s0" d="m183.7 34.7h0.3v0.5h-0.3z"/>
						<path id="Rectangle_957" class="s0" d="m184 34.7h0.3v0.5h-0.3z"/>
						<path id="Rectangle_958" class="s0" d="m184.3 34.7h0.2v0.5h-0.2z"/>
						<path id="Rectangle_959" class="s0" d="m184.5 34.7h0.3v0.5h-0.3z"/>
						<path id="Rectangle_960" class="s0" d="m184.8 34.7h0.2v0.5h-0.2z"/>
						<path id="Rectangle_961" class="s0" d="m185 34.7h0.3v0.5h-0.3z"/>
						<path id="Rectangle_962" class="s0" d="m185.3 34.7h0.3v0.5h-0.3z"/>
						<path id="Rectangle_963" class="s0" d="m185.6 34.7h0.2v0.5h-0.2z"/>
						<path id="Rectangle_964" class="s0" d="m185.8 34.7h0.3v0.5h-0.3z"/>
						<path id="Rectangle_965" class="s0" d="m186.1 34.7h0.2v0.5h-0.2z"/>
						<path id="Rectangle_966" class="s0" d="m186.3 34.7h0.3v0.5h-0.3z"/>
						<path id="Rectangle_967" class="s0" d="m186.6 34.7h0.2v0.5h-0.2z"/>
						<path id="Rectangle_968" class="s0" d="m186.8 34.7h0.3v0.5h-0.3z"/>
						<path id="Rectangle_969" class="s0" d="m187.1 34.7h0.3v0.5h-0.3z"/>
						<path id="Rectangle_970" class="s0" d="m187.4 34.7h0.2v0.5h-0.2z"/>
						<path id="Rectangle_971" class="s0" d="m187.6 34.7h0.3v0.5h-0.3z"/>
						<path id="Rectangle_972" class="s0" d="m187.9 34.7h0.2v0.5h-0.2z"/>
						<path id="Rectangle_973" class="s0" d="m188.1 34.7h0.3v0.5h-0.3z"/>
						<path id="Rectangle_974" class="s0" d="m188.4 34.7h0.3v0.5h-0.3z"/>
						<path id="Rectangle_975" class="s0" d="m188.7 34.7h0.2v0.5h-0.2z"/>
						<path id="Rectangle_976" class="s0" d="m188.9 34.7h0.3v0.5h-0.3z"/>
						<path id="Rectangle_977" class="s0" d="m189.2 34.7h0.2v0.5h-0.2z"/>
						<path id="Rectangle_978" class="s0" d="m189.4 34.7h0.3v0.5h-0.3z"/>
						<path id="Rectangle_979" class="s0" d="m189.7 34.7h0.3v0.5h-0.3z"/>
						<path id="Rectangle_980" class="s0" d="m190 34.7h0.2v0.5h-0.2z"/>
						<path id="Rectangle_981" class="s0" d="m190.2 34.7h0.3v0.5h-0.3z"/>
						<path id="Rectangle_982" class="s0" d="m190.5 34.7h0.2v0.5h-0.2z"/>
						<path id="Rectangle_983" class="s0" d="m190.7 34.7h0.3v0.5h-0.3z"/>
						<path id="Rectangle_984" class="s0" d="m191 34.7h0.2v0.5h-0.2z"/>
						<path id="Rectangle_985" class="s0" d="m191.2 34.7h0.3v0.5h-0.3z"/>
						<path id="Rectangle_986" class="s0" d="m191.5 34.7h0.3v0.5h-0.3z"/>
						<path id="Rectangle_987" class="s0" d="m191.8 34.7h0.2v0.5h-0.2z"/>
						<path id="Rectangle_988" class="s0" d="m192 34.7h0.3v0.5h-0.3z"/>
						<path id="Rectangle_989" class="s0" d="m192.3 34.7h0.2v0.5h-0.2z"/>
						<path id="Rectangle_990" class="s0" d="m192.5 34.7h0.3v0.5h-0.3z"/>
						<path id="Rectangle_991" class="s0" d="m192.8 34.7h0.3v0.5h-0.3z"/>
						<path id="Rectangle_992" class="s0" d="m193.1 34.7h0.2v0.5h-0.2z"/>
						<path id="Rectangle_993" class="s0" d="m193.3 34.7h0.3v0.5h-0.3z"/>
						<path id="Rectangle_994" class="s0" d="m193.6 34.7h0.2v0.5h-0.2z"/>
						<path id="Rectangle_995" class="s0" d="m193.8 34.7h0.3v0.5h-0.3z"/>
						<path id="Rectangle_996" class="s0" d="m194.1 34.7h0.3v0.5h-0.3z"/>
						<path id="Rectangle_997" class="s0" d="m194.4 34.7h0.2v0.5h-0.2z"/>
						<path id="Rectangle_998" class="s0" d="m194.6 34.7h0.3v0.5h-0.3z"/>
						<path id="Rectangle_999" class="s0" d="m194.9 34.7h0.2v0.5h-0.2z"/>
						<path id="Rectangle_1000" class="s0" d="m195.1 34.7h0.3v0.5h-0.3z"/>
						<path id="Rectangle_1001" class="s0" d="m195.4 34.7h0.3v0.5h-0.3z"/>
						<path id="Rectangle_1002" class="s0" d="m195.7 34.7h0.2v0.5h-0.2z"/>
						<path id="Rectangle_1003" class="s0" d="m195.9 34.7h0.3v0.5h-0.3z"/>
						<path id="Rectangle_1004" class="s0" d="m196.2 34.7h0.2v0.5h-0.2z"/>
						<path id="Rectangle_1005" class="s0" d="m196.4 34.7h0.3v0.5h-0.3z"/>
						<path id="Rectangle_1006" class="s0" d="m196.7 34.7h0.2v0.5h-0.2z"/>
						<path id="Rectangle_1007" class="s0" d="m196.9 34.7h0.3v0.5h-0.3z"/>
						<path id="Rectangle_1008" class="s0" d="m197.2 34.7h0.3v0.5h-0.3z"/>
						<path id="Rectangle_1009" class="s0" d="m197.5 34.7h0.2v0.5h-0.2z"/>
						<path id="Rectangle_1010" class="s0" d="m197.7 34.7h0.3v0.5h-0.3z"/>
						<path id="Rectangle_1011" class="s0" d="m198 34.7h0.2v0.5h-0.2z"/>
						<path id="Rectangle_1012" class="s0" d="m198.2 34.7h0.3v0.5h-0.3z"/>
						<path id="Rectangle_1013" class="s0" d="m198.5 34.7h0.3v0.5h-0.3z"/>
						<path id="Rectangle_1014" class="s0" d="m198.8 34.7h0.2v0.5h-0.2z"/>
						<path id="Rectangle_1015" class="s0" d="m199 34.7h0.3v0.5h-0.3z"/>
						<path id="Rectangle_1016" class="s0" d="m199.3 34.7h0.2v0.5h-0.2z"/>
						<path id="Rectangle_1017" class="s0" d="m199.5 34.7h0.3v0.5h-0.3z"/>
						<path id="Rectangle_1018" class="s0" d="m199.8 34.7h0.3v0.5h-0.3z"/>
						<path id="Rectangle_1019" class="s0" d="m200.1 34.7h0.2v0.5h-0.2z"/>
						<path id="Rectangle_1020" class="s0" d="m200.3 34.7h0.3v0.5h-0.3z"/>
						<path id="Rectangle_1021" class="s0" d="m200.6 34.7h0.2v0.5h-0.2z"/>
						<path id="Rectangle_1022" class="s0" d="m200.8 34.7h0.3v0.5h-0.3z"/>
						<path id="Rectangle_1023" class="s0" d="m201.1 34.7h0.2v0.5h-0.2z"/>
						<path id="Path_40" class="s0" d=""/>
					</g>
				</g>
			</g>
		</g>
	</g>
</svg>