<svg version="1.2" xmlns="http://www.w3.org/2000/svg" viewBox="0 0 211 60" width="211" height="60">
	<title>Group 12995-svg</title>
	<style>
		.s0 { fill: #00468a } 
		.s1 { fill: #242424 } 
		.s2 { fill: #0086c6 } 
		.s3 { fill: #ffffff } 
	</style>
	<g id="Group_12995">
		<g id="Group_12991">
			<path id="Path_8470" class="s0" d="m97.6 24.7h-4.3l-11.4-11.5-7.1 5.1v6.4h-3.2v-22.3h3.2v12.4l17.5-12.4h4.7l-12.7 9.1z"/>
			<path id="Path_8471" class="s0" d="m125.4 24.7h-3.1v-6.4h-17.8v-3.2h17.8v-9.5h-11.5q-0.5 0-1 0-0.5 0.1-1 0.2-0.5 0.2-1 0.4-0.5 0.2-1 0.4-0.4 0.3-0.8 0.6-0.4 0.3-0.8 0.7-0.3 0.4-0.7 0.8-0.3 0.4-0.5 0.8-0.3 0.5-0.5 1-0.2 0.4-0.3 1-0.2 0.5-0.2 1-0.1 0.5-0.1 1v11.2h-3.2v-11.2q0-0.5 0.1-1.1 0-0.5 0.1-1.1 0.1-0.5 0.3-1 0.2-0.6 0.4-1.1 0.2-0.5 0.4-1 0.3-0.4 0.6-0.9 0.3-0.4 0.6-0.8 0.4-0.5 0.8-0.9 0.7-0.7 1.6-1.3 1-0.7 2-1.1 1-0.4 2.1-0.6 1-0.2 2.1-0.2h14.7z"/>
			<path id="Path_8472" class="s0" d="m152.1 24.7h-21.3v-22.3h3.2v19.1h18.1z"/>
			<path id="Path_8473" class="s0" d="m180.8 24.7h-4.3l-6.6-6.4h-9.8v-3.1h12.8q0.3 0 0.6-0.1 0.3 0 0.6-0.1 0.3-0.1 0.6-0.2 0.3-0.1 0.6-0.3 0.3-0.2 0.5-0.3 0.3-0.2 0.5-0.5 0.2-0.2 0.4-0.4 0.2-0.3 0.3-0.5 0.3-0.6 0.5-1.2 0.2-0.6 0.2-1.3 0-0.6-0.2-1.2-0.2-0.6-0.5-1.2-0.1-0.2-0.3-0.5-0.2-0.2-0.4-0.4-0.2-0.3-0.5-0.4-0.2-0.2-0.5-0.4-0.3-0.2-0.6-0.3-0.3-0.1-0.6-0.2-0.3-0.1-0.6-0.1-0.3 0-0.6 0h-14.6v19.1h-3.2v-22.3h17.8q0.5 0 1 0 0.6 0.1 1.1 0.2 0.5 0.2 1 0.4 0.4 0.2 0.9 0.4 0.4 0.3 0.9 0.6 0.4 0.3 0.7 0.7 0.4 0.4 0.7 0.8 0.3 0.4 0.6 0.8 0.5 0.9 0.7 1.9 0.3 0.9 0.3 1.9 0.1 1.1-0.2 2-0.2 1-0.6 1.9-0.2 0.4-0.5 0.8-0.3 0.4-0.6 0.7-0.3 0.4-0.6 0.7-0.3 0.3-0.7 0.6-0.4 0.3-0.8 0.5-0.4 0.2-0.8 0.4-0.5 0.2-0.9 0.3-0.5 0.1-0.9 0.2z"/>
			<path id="Path_8474" class="s0" d="m210.3 24.7h-3.2v-6.4h-17.8v-3.2h17.8v-9.5h-11.4q-0.6 0-1.1 0-0.5 0.1-1 0.2-0.5 0.2-1 0.4-0.5 0.2-0.9 0.4-0.5 0.3-0.9 0.6-0.4 0.3-0.8 0.7-0.3 0.4-0.6 0.8-0.4 0.4-0.6 0.8-0.3 0.5-0.5 1-0.2 0.4-0.3 1-0.2 0.5-0.2 1-0.1 0.5-0.1 1v11.2h-3.2v-11.2q0-0.5 0.1-1.1 0-0.5 0.1-1.1 0.2-0.5 0.3-1 0.2-0.6 0.4-1.1 0.2-0.5 0.5-1 0.2-0.4 0.5-0.9 0.3-0.4 0.7-0.8 0.3-0.5 0.7-0.9 0.8-0.7 1.7-1.3 0.9-0.7 1.9-1.1 1-0.4 2.1-0.6 1.1-0.2 2.2-0.2h14.6z"/>
		</g>
		<g id="Group_12992">
			<path id="Path_8475" class="s1" d="m84.2 33.4q0 0.2 0 0.5-0.1 0.3-0.1 0.5 0 0.3-0.1 0.6-0.1 0.2-0.2 0.5-0.1 0.2-0.2 0.4-0.1 0.3-0.2 0.5-0.1 0.2-0.3 0.4-0.1 0.2-0.3 0.4-0.1 0.2-0.3 0.3-0.2 0.2-0.4 0.3-0.2 0.2-0.4 0.3-0.2 0.1-0.4 0.2-0.3 0.1-0.5 0.2-0.3 0.1-0.5 0.2-0.3 0-0.5 0-0.3 0.1-0.6 0.1h-5.4v-1.6h5.4q0.3 0 0.5 0 0.3 0 0.5-0.1 0.2-0.1 0.5-0.2 0.2-0.1 0.4-0.2 0.2-0.1 0.3-0.3 0.2-0.1 0.4-0.3 0.1-0.2 0.2-0.4 0.1-0.2 0.2-0.4 0.1-0.2 0.2-0.5 0.1-0.2 0.2-0.4 0-0.3 0-0.5 0.1-0.3 0.1-0.5 0-0.3-0.1-0.5 0-0.3 0-0.5-0.1-0.3-0.2-0.5-0.1-0.2-0.2-0.5 0-0.2-0.2-0.4-0.1-0.2-0.2-0.3-0.2-0.2-0.4-0.4-0.1-0.1-0.3-0.2-0.2-0.2-0.4-0.3-0.3-0.1-0.5-0.1-0.2-0.1-0.5-0.1-0.2-0.1-0.5-0.1h-6.1v9.2h-1.6v-10.7h7.7q0.3 0 0.6 0 0.2 0.1 0.5 0.1 0.2 0.1 0.5 0.1 0.2 0.1 0.5 0.2 0.2 0.1 0.4 0.2 0.2 0.2 0.4 0.3 0.2 0.2 0.4 0.3 0.2 0.2 0.3 0.4 0.2 0.2 0.3 0.4 0.2 0.2 0.3 0.4 0.1 0.2 0.2 0.4 0.1 0.3 0.2 0.5 0.1 0.3 0.2 0.5 0.1 0.3 0.1 0.5 0 0.3 0.1 0.6 0 0.2 0 0.5z"/>
			<path id="Path_8476" fill-rule="evenodd" class="s1" d="m97.2 38.8h-11.1v-10.8h11.1v1.5h-9.5v7.7h9.5zm-1.3-4.6h-7.5v-1.5h7.5z"/>
			<path id="Path_8477" class="s1" d="m100.7 38.8h-1.5v-10.8h0.7q0.3 0 0.6 0 0.3 0.1 0.6 0.1 0.4 0.1 0.7 0.2 0.3 0 0.5 0.1 0.4 0.2 0.7 0.3 0.4 0.1 0.7 0.3 0.3 0.1 0.6 0.3 0.4 0.2 0.7 0.4 0.3 0.2 0.6 0.4 0.4 0.2 0.7 0.4 0.3 0.3 0.6 0.5 0.3 0.3 0.6 0.5 0.3 0.3 0.5 0.6 0.3 0.3 0.6 0.6 0.2 0.3 0.4 0.6 0.3 0.3 0.5 0.6v-5.9h1.5v10.8h-1.5q0-0.4 0-0.7-0.1-0.4-0.2-0.7 0-0.4-0.1-0.7-0.1-0.3-0.3-0.7-0.1-0.3-0.3-0.6-0.2-0.3-0.4-0.6-0.2-0.3-0.4-0.6-0.2-0.3-0.4-0.5-0.2-0.3-0.5-0.6-0.2-0.2-0.5-0.5-0.3-0.2-0.6-0.5-0.2-0.2-0.5-0.4-0.3-0.2-0.6-0.4-0.3-0.2-0.6-0.4-0.3-0.1-0.6-0.3-0.3-0.1-0.6-0.3-0.2-0.1-0.5-0.2-0.3-0.1-0.6-0.2-0.3-0.1-0.5-0.2-0.3 0-0.6-0.1z"/>
			<path id="Path_8478" class="s1" d="m119.4 38.8h-1.5v-9.2h-5.4v-1.6h12.4v1.6h-5.5z"/>
			<path id="Path_8479" class="s1" d="m137.9 38.8h-1.6v-3.1h-8.5v-1.6h8.5v-4.6h-5.5q-0.2 0-0.5 0.1-0.2 0-0.5 0.1-0.2 0-0.4 0.1-0.3 0.1-0.5 0.3-0.2 0.1-0.4 0.2-0.2 0.2-0.4 0.4-0.1 0.1-0.3 0.3-0.1 0.2-0.3 0.5-0.1 0.2-0.2 0.4-0.1 0.2-0.2 0.5 0 0.2-0.1 0.5 0 0.2 0 0.5v5.4h-1.5v-5.4q0-0.3 0-0.5 0-0.3 0.1-0.6 0-0.2 0.1-0.5 0.1-0.2 0.2-0.5 0.1-0.2 0.2-0.5 0.1-0.2 0.3-0.4 0.1-0.2 0.3-0.4 0.2-0.2 0.4-0.4 0.1-0.2 0.3-0.4 0.2-0.1 0.4-0.3 0.3-0.1 0.5-0.2 0.2-0.2 0.5-0.3 0.2-0.1 0.5-0.2 0.2 0 0.5-0.1 0.2 0 0.5-0.1 0.3 0 0.5 0h7.1z"/>
			<path id="Path_8480" class="s1" d="m150.7 38.8h-10.2v-10.8h1.5v9.2h8.7z"/>
			<path id="Path_8481" class="s1" d="m168.7 38.8h-6.9q-0.3 0-0.5-0.1-0.3 0-0.6 0-0.2-0.1-0.5-0.2-0.2-0.1-0.4-0.2-0.3-0.1-0.5-0.2-0.2-0.1-0.4-0.3-0.2-0.1-0.4-0.3-0.1-0.1-0.3-0.3-0.2-0.2-0.3-0.4-0.2-0.2-0.3-0.4-0.1-0.2-0.2-0.5-0.1-0.2-0.2-0.4-0.2-0.5-0.3-1.1-0.1-0.5-0.1-1 0-0.5 0.1-1.1 0.1-0.5 0.3-1 0.1-0.2 0.2-0.5 0.1-0.2 0.2-0.4 0.1-0.2 0.3-0.4 0.1-0.2 0.3-0.4 0.2-0.2 0.3-0.4 0.2-0.1 0.4-0.3 0.2-0.1 0.4-0.2 0.2-0.2 0.5-0.3 0.2-0.1 0.4-0.2 0.3 0 0.5-0.1 0.3 0 0.6-0.1 0.2 0 0.5 0h6.9v1.5h-6.9q-0.3 0-0.5 0.1-0.2 0-0.5 0.1-0.2 0-0.4 0.1-0.2 0.1-0.4 0.3-0.2 0.1-0.4 0.2-0.2 0.2-0.3 0.4-0.2 0.2-0.3 0.3-0.1 0.2-0.2 0.4-0.1 0.3-0.2 0.5-0.1 0.2-0.1 0.5-0.1 0.2-0.1 0.5 0 0.2 0 0.5 0 0.2 0 0.5 0 0.2 0.1 0.5 0 0.2 0.1 0.4 0.1 0.3 0.2 0.5 0.1 0.2 0.2 0.4 0.1 0.2 0.3 0.4 0.1 0.2 0.3 0.3 0.2 0.2 0.4 0.3 0.2 0.1 0.4 0.2 0.2 0.1 0.4 0.2 0.3 0.1 0.5 0.1 0.2 0 0.5 0h6.9z"/>
			<path id="Path_8482" class="s1" d="m182.8 38.8h-1.6v-3.1h-8.6v-1.6h8.6v-4.6h-5.5q-0.2 0-0.5 0.1-0.2 0-0.5 0.1-0.2 0-0.5 0.1-0.2 0.1-0.4 0.3-0.2 0.1-0.4 0.2-0.2 0.2-0.4 0.4-0.2 0.1-0.3 0.3-0.2 0.2-0.3 0.5-0.1 0.2-0.2 0.4-0.1 0.2-0.2 0.5 0 0.2-0.1 0.5 0 0.2 0 0.5v5.4h-1.5v-5.4q0-0.3 0-0.5 0-0.3 0.1-0.6 0-0.2 0.1-0.5 0.1-0.2 0.2-0.5 0.1-0.2 0.2-0.5 0.1-0.2 0.3-0.4 0.1-0.2 0.3-0.4 0.1-0.2 0.3-0.4 0.4-0.4 0.8-0.7 0.5-0.3 1-0.5 0.4-0.2 1-0.3 0.5-0.1 1-0.1h7.1z"/>
			<path id="Path_8483" class="s1" d="m197.7 38.8h-2l-3.3-3.1h-4.7v-1.5h6.2q0.1 0 0.3-0.1 0.1 0 0.3 0 0.1-0.1 0.3-0.1 0.1-0.1 0.3-0.1 0.1-0.1 0.2-0.2 0.1-0.1 0.2-0.2 0.1-0.1 0.2-0.2 0.1-0.2 0.2-0.3 0.2-0.4 0.3-0.8 0-0.5-0.1-0.9-0.1-0.5-0.4-0.9-0.2-0.3-0.6-0.5-0.2-0.1-0.3-0.2-0.2 0-0.3-0.1-0.2 0-0.3 0-0.2-0.1-0.3-0.1h-7v9.2h-1.6v-10.7h8.6q0.2 0 0.5 0 0.2 0.1 0.5 0.1 0.2 0.1 0.5 0.2 0.2 0.1 0.4 0.2 0.2 0.1 0.4 0.3 0.2 0.2 0.4 0.3 0.2 0.2 0.3 0.4 0.2 0.2 0.3 0.4 0.3 0.4 0.4 0.9 0.1 0.5 0.1 1 0 0.4-0.1 0.9-0.1 0.5-0.3 0.9-0.2 0.4-0.5 0.8-0.3 0.3-0.7 0.6-0.3 0.2-0.7 0.4-0.5 0.2-0.9 0.2z"/>
			<path id="Path_8484" fill-rule="evenodd" class="s1" d="m210.8 38.8h-11.1v-10.8h11.1v1.5h-9.6v7.7h9.6zm-1.3-4.6h-7.5v-1.5h7.5z"/>
		</g>
		<path id="Rectangle_1352" class="s2" d="m71.2 41.5h139.5v0.4h-139.5z"/>
		<path id="Path_1" class="s0" d="m19.3 55.5c-1-0.9-2.1-1.8-3-2.9q-1.4-1.5-2.6-3-1.2-1.6-2.3-3.3-1.1-1.7-2-3.4-1-1.8-1.8-3.6-1.3-2.6-2.4-5.3-1.1-2.7-2-5.4-0.9-2.8-1.6-5.6-0.7-2.8-1.2-5.7-0.2-1-0.3-2.1-0.1-1-0.1-2.1 0-1 0-2.1 0.1-1 0.2-2.1c0.6-4.5 3.2-6.9 8.1-7.8 3.1-0.6 6 0.3 8.9 0.9 2.9 0.6 5.8 1.2 8.7 1.5q0.9 0.2 1.8 0.2 0.9 0 1.8-0.1 0.9-0.1 1.8-0.3 0.9-0.2 1.8-0.5 1.4-0.6 2.9-1 1.5-0.5 3-0.8 1.5-0.4 3-0.6 1.6-0.2 3.1-0.4 0.6 0 1.2 0 0.7 0 1.3 0 0.6 0.1 1.2 0.1 0.6 0.1 1.2 0.2 1.5 0.2 2.8 0.9 1.2 0.7 2.2 1.8 1 1.1 1.5 2.5 0.6 1.3 0.6 2.8 0.2 2.1 0.1 4.2 0 2-0.2 4.1-0.2 2.1-0.6 4.1-0.3 2.1-0.9 4.1-0.6 2.9-1.5 5.7-0.9 2.8-2.1 5.6-1.2 2.7-2.6 5.3-1.5 2.6-3.2 5.1-0.6 0.9-1.4 1.9-0.7 0.9-1.5 1.7-0.8 0.9-1.7 1.7-0.9 0.7-1.8 1.5-0.1 0-0.2 0.1-0.1 0.1-0.2 0.2-0.1 0-0.3 0.1-0.1 0-0.2 0.1 1-1.3 1.9-2.7 0.9-1.3 1.8-2.7 0.8-1.4 1.6-2.9 0.7-1.4 1.4-2.9 1.1-2.4 2.1-4.8 0.9-2.5 1.7-5 0.8-2.5 1.5-5 0.6-2.5 1-5.1 0.4-1.6 0.5-3.3 0.2-1.6 0.2-3.3-0.1-1.7-0.2-3.3-0.2-1.6-0.5-3.3-0.1-0.3-0.2-0.5c-1.3-4.3-4.1-5.7-8.2-4.2-2.9 1.1-5.7 2.3-8.5 3.3q-0.7 0.2-1.3 0.4-0.7 0.2-1.4 0.4-0.6 0.2-1.3 0.3-0.7 0.1-1.4 0.2-0.4 0.1-0.9 0-0.5 0-0.9 0-0.5-0.1-0.9-0.2-0.5-0.1-0.9-0.3c-4-1.5-8-3.1-12.3-3.3q-0.3 0-0.7 0-0.3-0.1-0.7 0-0.4 0-0.7 0-0.4 0-0.7 0.1-1.2 0.1-2.2 0.6-1.1 0.5-1.9 1.3-0.8 0.8-1.4 1.8-0.5 1-0.7 2.2c-0.7 3.4-0.2 6.8 0.5 10.2 1.8 7.9 5 15.3 8.5 22.5 1.8 3.6 3.7 7 5.6 10.5q0.1 0.3 0.3 0.6z"/>
		<path id="Path_17" class="s2" d="m19.7 44.2c-2.6-4.5-5.4-8.9-6.9-13.9-0.8-2.6-1.5-5.3-2.1-8q-0.1-1-0.1-2-0.1-1 0-2 0-1 0.2-2 0.2-1 0.4-1.9 0.1-0.6 0.4-1 0.3-0.5 0.7-0.8 0.5-0.2 1-0.3 0.5-0.1 1 0.1 0.4 0 0.7 0.1 0.4 0.1 0.8 0.2 0.3 0.2 0.6 0.3 0.4 0.1 0.7 0.3c1.4 0.6 2.6 1.4 3.9 2.1 2.7 1.6 5.4 3.2 7.9 4.7q-0.4 0.1-0.8 0-0.4 0-0.7-0.1-0.4 0-0.8-0.2-0.4-0.1-0.7-0.3-4.7-2.6-9.5-5.2-0.1-0.1-0.2-0.1-0.1-0.1-0.2-0.1-0.1-0.1-0.2-0.1-0.1-0.1-0.3-0.1-0.4-0.2-0.9-0.2-0.5 0-0.9 0.2-0.4 0.3-0.6 0.7-0.3 0.4-0.3 0.9-0.2 1.5-0.3 3 0 1.5 0.1 3 0.1 1.5 0.4 3 0.2 1.5 0.7 3 0.5 2 1.1 4 0.7 2.1 1.4 4 0.7 2 1.5 4 0.8 1.9 1.7 3.9 0.1 0.4 0.3 0.8z"/>
		<path id="Path_25" class="s2" d="m26.4 45.5q3.8-0.5 7.6-0.9 0.1 0 0.2 0 0.1 0 0.3-0.1 0.1 0 0.2 0 0.1 0 0.2-0.1c2.5-0.5 3-1.4 2.4-3.9h-14.2l-0.1-0.1 4.8-0.5c2.4-0.3 4.7-0.4 7-0.9 3.1-0.6 3.6-1.5 3.2-4.6q0-0.3-0.1-0.7 0.5 0.3 0.9 0.7 0.5 0.4 0.8 0.9 0.3 0.5 0.4 1 0.2 0.6 0.2 1.2c0 1.4-0.5 2.1-2.4 2.9q0.1 0.2 0.2 0.3 0.1 0.2 0.2 0.4 0.2 0.1 0.3 0.3 0.1 0.1 0.2 0.3c1.1 2.1 0.1 3.8-2.3 3.9-2.8 0-5.6 0-8.4 0q-0.8 0-1.6 0z"/>
		<path id="Path_58" class="s2" d="m24.3 59.9l5.2-0.7q0.5 0 1-0.1c1.8-0.4 2-0.7 1.9-2.5q0-0.3 0-0.6 0.4 0.2 0.6 0.5 0.3 0.3 0.4 0.7 0.2 0.4 0.2 0.7 0.1 0.4 0 0.8c-0.3 1.1-1.2 1.2-2.1 1.3q-3.4 0-6.8 0-0.1 0-0.1 0-0.1 0-0.1 0-0.1 0-0.1 0-0.1 0-0.1 0z"/>
		<path id="Path_59" class="s2" d="m34.3 46.3q0.2 0.2 0.3 0.5 0.1 0.2 0.3 0.5 0.1 0.3 0.2 0.6 0.1 0.2 0.2 0.5c0.2 1-0.6 1.9-1.8 1.9q-3.7 0.1-7.4-0.1l5.1-0.6q0.2 0 0.3 0c2.3-0.3 2.7-0.8 2.5-3.2z"/>
		<path id="Path_60" class="s2" d="m34 51.2q0.3 0.2 0.6 0.5 0.3 0.2 0.4 0.6 0.2 0.4 0.3 0.8 0 0.3-0.1 0.7c-0.2 0.9-0.9 1.3-2.2 1.3q-3.5 0-7.2 0 2.3-0.3 4.6-0.6 0.3 0 0.6-0.1 0.3 0 0.5 0 0.3-0.1 0.6-0.2 0.3 0 0.5-0.1c1.4-0.3 1.6-0.8 1.5-2.2q-0.1-0.4-0.1-0.7z"/>
		<g id="Group_12993">
			<path id="Path_8485" fill-rule="evenodd" class="s2" d="m74.1 49.9q-0.1 0-0.2 0-0.2 0-0.3 0-0.1 0-0.2-0.1-0.2 0-0.3-0.1-0.1 0-0.2 0-0.1-0.1-0.2-0.2-0.1 0-0.2-0.1-0.1-0.1-0.2-0.2-0.1 0-0.1-0.1-0.1-0.1-0.2-0.2-0.1-0.1-0.1-0.2-0.1-0.1-0.1-0.2-0.1-0.2-0.2-0.5 0-0.2 0-0.5 0-0.2 0-0.5 0.1-0.2 0.2-0.4 0-0.1 0.1-0.2 0-0.1 0.1-0.2 0.1-0.1 0.2-0.2 0-0.1 0.1-0.2 0.1-0.1 0.2-0.1 0.1-0.1 0.2-0.2 0.1 0 0.2-0.1 0.1 0 0.2-0.1 0.3-0.1 0.5-0.1 0.3-0.1 0.5-0.1 0.3 0 0.5 0.1 0.3 0 0.5 0.1 0.1 0.1 0.2 0.1 0.1 0.1 0.2 0.1 0.1 0.1 0.2 0.2 0.1 0 0.2 0.1 0.1 0.1 0.2 0.2 0 0.1 0.1 0.2 0.1 0.1 0.1 0.2 0.1 0.1 0.1 0.2 0.1 0.2 0.2 0.4 0 0.3 0 0.5 0 0.3 0 0.5-0.1 0.3-0.2 0.5 0 0.1-0.1 0.2 0 0.1-0.1 0.2-0.1 0.1-0.1 0.2-0.1 0.1-0.2 0.2-0.1 0-0.2 0.1-0.1 0.1-0.2 0.1-0.1 0.1-0.2 0.2-0.1 0-0.2 0.1-0.1 0-0.2 0-0.2 0.1-0.3 0.1-0.1 0-0.2 0-0.2 0-0.3 0zm0-0.7q0.1 0 0.2 0 0.1 0 0.1-0.1 0.1 0 0.2 0 0.1 0 0.2-0.1 0 0 0.1 0 0.1-0.1 0.1-0.1 0.1 0 0.2-0.1 0 0 0.1-0.1 0-0.1 0.1-0.1 0-0.1 0.1-0.1 0-0.1 0.1-0.2 0 0 0-0.1 0.1-0.2 0.1-0.3 0-0.2 0-0.4 0-0.1 0-0.3 0-0.2-0.1-0.3 0-0.1 0-0.2-0.1 0-0.1-0.1-0.1-0.1-0.1-0.1-0.1-0.1-0.1-0.1-0.1-0.1-0.1-0.2-0.1 0-0.2 0 0-0.1-0.1-0.1-0.1-0.1-0.1-0.1-0.1 0-0.2 0-0.1-0.1-0.2-0.1 0 0-0.1 0-0.1 0-0.2 0-0.1 0-0.2 0 0 0-0.1 0-0.1 0-0.2 0.1-0.1 0-0.1 0-0.1 0-0.2 0.1 0 0-0.1 0.1-0.1 0-0.1 0-0.1 0.1-0.2 0.2 0 0-0.1 0.1 0 0-0.1 0.1 0 0.1 0 0.1-0.1 0.1-0.1 0.2-0.1 0.1-0.1 0.3 0 0.2 0 0.3 0 0.2 0 0.4 0 0.1 0.1 0.3 0 0.1 0.1 0.1 0 0.1 0 0.2 0.1 0 0.1 0.1 0.1 0 0.1 0.1 0.1 0.1 0.2 0.1 0 0.1 0.1 0.1 0 0 0.1 0.1 0.1 0 0.2 0 0 0.1 0.1 0.1 0.1 0 0.2 0 0.1 0.1 0.1 0.1 0.1 0 0.2 0z"/>
			<path id="Path_8486" class="s2" d="m77.9 49.9v-4.7h0.7l2.9 3.6h-0.3v-3.6h0.8v4.7h-0.7l-2.9-3.6h0.3v3.6z"/>
			<path id="Path_8487" fill-rule="evenodd" class="s2" d="m84.5 49.1h2.6v0.8h-3.5v-4.7h3.4v0.7h-2.5v1.2h-0.1v0.7h0.1zm2.2-1.2v-0.8h-2.2v0.8z"/>
			<path id="Path_8488" class="s2" d="m91.9 49.9l-2-4.7h0.9l1.9 4.2h-0.6l1.9-4.2h0.8l-2 4.7z"/>
			<path id="Path_8489" class="s2" d="m95.7 49.9v-4.7h0.8v4.7z"/>
			<path id="Path_8490" class="s2" d="m99.6 49.9q-0.2 0-0.3 0-0.1 0-0.3 0-0.1 0-0.2-0.1-0.2 0-0.3 0-0.1-0.1-0.2-0.1-0.1 0-0.2-0.1-0.1 0-0.2-0.1-0.1-0.1-0.2-0.1l0.3-0.7q0.1 0.1 0.2 0.1 0.1 0.1 0.1 0.1 0.1 0.1 0.2 0.1 0.1 0 0.2 0.1 0.1 0 0.2 0 0.1 0.1 0.2 0.1 0.1 0 0.2 0 0.1 0 0.3 0 0 0 0.1 0 0.1 0 0.2 0 0 0 0.1 0 0.1 0 0.1-0.1 0.1 0 0.1 0 0.1 0 0.1-0.1 0.1 0 0.1 0 0 0 0.1-0.1 0 0 0-0.1 0 0 0.1 0 0-0.1 0-0.1 0-0.1 0-0.1 0 0 0-0.1 0 0 0-0.1-0.1 0-0.1-0.1 0 0-0.1 0 0-0.1-0.1-0.1 0 0-0.1-0.1 0 0-0.1 0 0 0-0.1 0-0.2-0.1-0.5-0.2-0.3-0.1-0.6-0.1-0.1-0.1-0.1-0.1-0.1 0-0.2 0 0-0.1-0.1-0.1-0.1 0-0.1-0.1-0.1 0-0.2-0.1 0 0-0.1 0 0-0.1-0.1-0.1 0-0.1 0-0.2-0.1 0-0.1-0.1 0-0.1-0.1-0.2 0 0 0-0.1 0-0.1 0-0.2 0-0.1 0-0.2 0-0.1 0.1-0.1 0-0.1 0-0.2 0.1-0.1 0.1-0.2 0.1-0.1 0.1-0.1 0.1-0.1 0.2-0.2 0.1 0 0.1-0.1 0.1 0 0.2-0.1 0.2 0 0.3-0.1 0.1 0 0.2 0 0.2-0.1 0.3-0.1 0.1 0 0.3 0 0.1 0 0.2 0 0.1 0 0.2 0.1 0.1 0 0.2 0 0.1 0 0.2 0 0.1 0.1 0.2 0.1 0.1 0 0.2 0.1 0.1 0 0.2 0 0.1 0.1 0.1 0.1l-0.2 0.7q-0.1 0-0.2-0.1-0.1 0-0.2 0 0-0.1-0.1-0.1-0.1 0-0.2-0.1-0.1 0-0.1 0-0.1 0-0.2 0-0.1 0-0.2 0 0-0.1-0.1-0.1-0.1 0-0.2 0 0 0.1-0.1 0.1-0.1 0-0.2 0 0 0-0.1 0-0.1 0.1-0.1 0.1 0 0-0.1 0 0 0.1-0.1 0.1 0 0 0 0.1-0.1 0-0.1 0 0 0.1 0 0.1 0 0.1 0 0.1 0 0 0 0.1 0 0 0 0.1 0 0 0 0.1 0 0 0.1 0.1 0 0 0 0 0.1 0.1 0.1 0.1 0.1 0 0.1 0 0.1 0.1 0.1 0.1 0.1 0 0.1 0 0.3 0.1 0.6 0.2 0.3 0 0.6 0.1 0 0 0.1 0.1 0.1 0 0.1 0 0.1 0 0.2 0.1 0 0 0.1 0 0.1 0.1 0.1 0.1 0.1 0.1 0.1 0.1 0.1 0.1 0.1 0.1 0 0.1 0.1 0.1 0 0.1 0.1 0.2 0 0 0 0.1 0 0.1 0 0.2 0 0.1 0 0.1 0 0.1 0 0.2 0 0.1 0 0.2 0 0.1-0.1 0.2 0 0-0.1 0.1 0 0.1-0.1 0.2-0.1 0.1-0.1 0.1-0.1 0.1-0.2 0.1-0.1 0.1-0.2 0.1-0.1 0.1-0.2 0.1-0.2 0.1-0.3 0.1-0.1 0-0.3 0-0.1 0-0.2 0z"/>
			<path id="Path_8491" class="s2" d="m102.6 49.9v-4.7h0.9v4.7z"/>
			<path id="Path_8492" class="s2" d="m106 49.9v-4h-1.5v-0.7h3.9v0.7h-1.5v4z"/>
			<path id="Path_8493" class="s2" d="m108.9 50.9l0.4-1.5 0.1 0.5q0 0-0.1 0 0 0-0.1 0 0-0.1-0.1-0.1 0 0-0.1-0.1 0 0 0 0-0.1-0.1-0.1-0.1 0-0.1 0-0.1 0-0.1 0-0.1 0-0.2 0-0.3 0-0.1 0.1-0.1 0.1-0.1 0.2-0.2 0.1 0 0.2 0 0.1 0 0.1 0 0.1 0 0.1 0 0.1 0.1 0.1 0.1 0.1 0 0.1 0.1 0 0 0.1 0 0 0.1 0 0.1 0 0.1 0 0.1 0.1 0.1 0.1 0.2 0 0-0.1 0 0 0 0 0 0 0 0 0.1 0 0 0 0 0 0 0 0 0 0.1 0 0.1 0 0 0 0 0 0.1 0 0.1 0 0 0 0 0 0.1-0.1 0.1 0 0 0 0.1 0 0 0 0l-0.3 1z"/>
			<path id="Path_8494" fill-rule="evenodd" class="s2" d="m115.5 49.9q-0.1 0-0.2 0-0.2 0-0.3 0-0.1 0-0.2-0.1-0.2 0-0.3-0.1-0.1 0-0.2 0-0.1-0.1-0.2-0.2-0.1 0-0.2-0.1-0.1-0.1-0.2-0.2-0.1 0-0.1-0.1-0.1-0.1-0.2-0.2 0-0.1-0.1-0.2-0.1-0.1-0.1-0.2-0.1-0.2-0.1-0.5-0.1-0.2-0.1-0.5 0-0.2 0.1-0.5 0-0.2 0.1-0.4 0-0.1 0.1-0.2 0.1-0.1 0.1-0.2 0.1-0.1 0.2-0.2 0-0.1 0.1-0.2 0.1-0.1 0.2-0.1 0.1-0.1 0.2-0.2 0.1 0 0.2-0.1 0.1 0 0.2-0.1 0.3-0.1 0.5-0.1 0.3-0.1 0.5-0.1 0.3 0 0.5 0.1 0.3 0 0.5 0.1 0.1 0.1 0.2 0.1 0.2 0.1 0.3 0.1 0.1 0.1 0.1 0.2 0.1 0 0.2 0.1 0.1 0.1 0.2 0.2 0.1 0.1 0.1 0.2 0.1 0.1 0.2 0.2 0 0.1 0.1 0.2 0 0.2 0.1 0.4 0 0.3 0 0.5 0 0.3 0 0.5-0.1 0.3-0.1 0.5-0.1 0.1-0.1 0.2-0.1 0.1-0.2 0.2 0 0.1-0.1 0.2-0.1 0.1-0.2 0.2-0.1 0-0.2 0.1 0 0.1-0.1 0.1-0.1 0.1-0.3 0.2-0.1 0-0.2 0.1-0.1 0-0.2 0-0.1 0.1-0.3 0.1-0.1 0-0.2 0-0.1 0-0.3 0zm0-0.7q0.1 0 0.2 0 0.1 0 0.2-0.1 0 0 0.1 0 0.1 0 0.2-0.1 0.1 0 0.1 0 0.1-0.1 0.2-0.1 0 0 0.1-0.1 0 0 0.1-0.1 0.1-0.1 0.1-0.1 0.1-0.1 0.1-0.1 0-0.1 0.1-0.2 0 0 0-0.1 0.1-0.2 0.1-0.3 0.1-0.2 0.1-0.4 0-0.1-0.1-0.3 0-0.2-0.1-0.3 0-0.1 0-0.2-0.1 0-0.1-0.1 0-0.1-0.1-0.1 0-0.1-0.1-0.1-0.1-0.1-0.1-0.2-0.1 0-0.1 0-0.1-0.1-0.2-0.1 0-0.1-0.1-0.1-0.1 0-0.2 0-0.1-0.1-0.1-0.1-0.1 0-0.2 0-0.1 0-0.2 0-0.1 0-0.1 0-0.1 0-0.2 0-0.1 0-0.2 0.1 0 0-0.1 0-0.1 0-0.2 0.1 0 0-0.1 0.1-0.1 0-0.1 0-0.1 0.1-0.1 0.2-0.1 0-0.1 0.1-0.1 0-0.1 0.1-0.1 0.1-0.1 0.1-0.1 0.1-0.1 0.2 0 0.1-0.1 0.3 0 0.2 0 0.3 0 0.2 0 0.4 0.1 0.1 0.1 0.3 0 0.1 0.1 0.1 0 0.1 0.1 0.2 0 0 0.1 0.1 0 0 0.1 0.1 0 0.1 0.1 0.1 0 0.1 0.1 0.1 0.1 0 0.1 0.1 0.1 0 0.2 0 0.1 0.1 0.1 0.1 0.1 0 0.2 0 0.1 0.1 0.2 0.1 0 0 0.1 0z"/>
			<path id="Path_8495" class="s2" d="m119.3 49.9v-4.7h0.7l2.9 3.6h-0.3v-3.6h0.8v4.7h-0.7l-2.9-3.6h0.3v3.6z"/>
			<path id="Path_8496" fill-rule="evenodd" class="s2" d="m125.9 49.1h2.6v0.8h-3.5v-4.7h3.4v0.7h-2.5v1.2h-0.1v0.7h0.1zm2.2-1.2v-0.8h-2.2v0.8z"/>
			<path id="Path_8497" class="s2" d="m133.4 49.9q-0.1 0-0.2 0-0.2 0-0.3 0-0.1 0-0.3-0.1-0.1 0-0.2 0-0.1-0.1-0.2-0.1-0.1 0-0.2-0.1-0.1 0-0.2-0.1-0.1-0.1-0.2-0.1l0.3-0.7q0.1 0.1 0.1 0.1 0.1 0.1 0.2 0.1 0.1 0.1 0.2 0.1 0.1 0 0.2 0.1 0.1 0 0.2 0 0.1 0.1 0.2 0.1 0.1 0 0.2 0 0.1 0 0.2 0 0.1 0 0.2 0 0.1 0 0.1 0 0.1 0 0.2 0 0 0 0.1-0.1 0.1 0 0.1 0 0.1 0 0.1-0.1 0 0 0.1 0 0 0 0.1-0.1 0 0 0-0.1 0 0 0 0 0-0.1 0.1-0.1 0-0.1 0-0.1 0 0-0.1-0.1 0 0 0-0.1 0 0 0-0.1-0.1 0-0.1 0 0-0.1-0.1-0.1 0 0-0.1-0.1 0 0-0.1 0 0 0-0.1 0-0.2-0.1-0.5-0.2-0.3-0.1-0.6-0.1-0.1-0.1-0.2-0.1 0 0-0.1 0-0.1-0.1-0.1-0.1-0.1 0-0.2-0.1 0 0-0.1-0.1 0 0-0.1 0 0-0.1-0.1-0.1 0-0.1-0.1-0.2 0 0 0-0.1-0.1-0.1-0.1-0.2 0 0 0-0.1 0-0.1 0-0.2 0-0.1 0-0.2 0-0.1 0-0.1 0.1-0.1 0.1-0.2 0-0.1 0.1-0.2 0-0.1 0.1-0.1 0.1-0.1 0.2-0.2 0 0 0.1-0.1 0.1 0 0.2-0.1 0.1 0 0.3-0.1 0.1 0 0.2 0 0.2-0.1 0.3-0.1 0.1 0 0.3 0 0.1 0 0.2 0 0.1 0 0.2 0.1 0.1 0 0.2 0 0.1 0 0.2 0 0.1 0.1 0.2 0.1 0.1 0 0.2 0.1 0.1 0 0.1 0 0.1 0.1 0.2 0.1l-0.3 0.7q0 0-0.1-0.1-0.1 0-0.2 0-0.1-0.1-0.1-0.1-0.1 0-0.2-0.1-0.1 0-0.2 0 0 0-0.1 0-0.1 0-0.2 0-0.1-0.1-0.2-0.1 0 0-0.1 0-0.1 0.1-0.1 0.1-0.1 0-0.2 0-0.1 0-0.1 0-0.1 0.1-0.1 0.1-0.1 0-0.1 0-0.1 0.1-0.1 0.1 0 0-0.1 0.1 0 0 0 0 0 0.1 0 0.1 0 0.1-0.1 0.1 0 0 0 0.1 0 0 0 0.1 0.1 0 0.1 0.1 0 0 0 0.1 0.1 0 0.1 0 0 0.1 0.1 0.1 0 0 0.1 0 0 0.1 0.1 0.1 0 0 0.1 0 0.2 0.1 0.5 0.2 0.3 0 0.6 0.1 0.1 0 0.2 0.1 0 0 0.1 0 0.1 0 0.1 0.1 0.1 0 0.2 0 0 0.1 0.1 0.1 0 0.1 0.1 0.1 0 0.1 0.1 0.1 0 0.1 0.1 0.1 0 0.1 0 0.2 0.1 0 0.1 0.1 0 0.1 0 0.2 0 0.1 0 0.1 0 0.1 0 0.2 0 0.1 0 0.2-0.1 0.1-0.1 0.2 0 0-0.1 0.1 0 0.1-0.1 0.2-0.1 0.1-0.2 0.1 0 0.1-0.1 0.1-0.1 0.1-0.2 0.1-0.1 0.1-0.3 0.1-0.1 0.1-0.2 0.1-0.2 0-0.3 0-0.1 0-0.3 0z"/>
			<path id="Path_8498" class="s2" d="m136.5 49.9v-4.7h0.7l2.1 3.4h-0.4l2-3.4h0.7v4.7h-0.8v-3.4h0.1l-1.7 2.8h-0.3l-1.8-2.8h0.2v3.4z"/>
			<path id="Path_8499" class="s2" d="m143.2 49.9v-4.7h0.9v4.7z"/>
			<path id="Path_8500" class="s2" d="m145.7 49.9v-4.7h0.8v3.9h2.5v0.8z"/>
			<path id="Path_8501" fill-rule="evenodd" class="s2" d="m150.8 49.1h2.7v0.8h-3.5v-4.7h3.4v0.7h-2.6v1.2 0.7zm2.3-1.2v-0.8h-2.3v0.8z"/>
			<path id="Path_8502" class="s2" d="m154.5 50.9l0.4-1.5 0.1 0.5q0 0-0.1 0 0 0-0.1 0 0-0.1-0.1-0.1 0 0-0.1-0.1 0 0 0 0-0.1-0.1-0.1-0.1 0-0.1 0-0.1 0-0.1 0-0.1 0-0.2 0-0.3 0.1-0.1 0.1-0.1 0.1-0.1 0.2-0.2 0.1 0 0.2 0 0.1 0 0.1 0 0.1 0 0.1 0 0.1 0.1 0.1 0.1 0.1 0 0.1 0.1 0.1 0 0.1 0 0 0.1 0 0.1 0 0.1 0.1 0.1 0 0.1 0 0.2 0 0 0 0 0 0 0 0 0 0 0 0.1 0 0 0 0-0.1 0-0.1 0 0 0.1 0 0.1 0 0 0 0 0 0.1 0 0.1 0 0 0 0 0 0.1 0 0.1-0.1 0-0.1 0.1 0 0 0 0l-0.3 1z"/>
			<path id="Path_8503" fill-rule="evenodd" class="s2" d="m161.1 49.9q-0.1 0-0.2 0-0.1 0-0.3 0-0.1 0-0.2-0.1-0.1 0-0.3-0.1-0.1 0-0.2 0-0.1-0.1-0.2-0.2-0.1 0-0.2-0.1-0.1-0.1-0.2-0.2 0 0-0.1-0.1-0.1-0.1-0.2-0.2 0-0.1-0.1-0.2 0-0.1-0.1-0.2-0.1-0.2-0.1-0.5-0.1-0.2-0.1-0.5 0-0.2 0.1-0.5 0-0.2 0.1-0.4 0.1-0.1 0.1-0.2 0.1-0.1 0.1-0.2 0.1-0.1 0.2-0.2 0.1-0.1 0.1-0.2 0.1-0.1 0.2-0.1 0.1-0.1 0.2-0.2 0.1 0 0.2-0.1 0.1 0 0.2-0.1 0.3-0.1 0.5-0.1 0.3-0.1 0.5-0.1 0.3 0 0.5 0.1 0.3 0 0.5 0.1 0.2 0.1 0.3 0.1 0.1 0.1 0.2 0.1 0.1 0.1 0.2 0.2 0.1 0 0.1 0.1 0.1 0.1 0.2 0.2 0.1 0.1 0.1 0.2 0.1 0.1 0.2 0.2 0 0.1 0.1 0.2 0.1 0.2 0.1 0.4 0.1 0.3 0.1 0.5 0 0.3-0.1 0.5 0 0.3-0.1 0.5-0.1 0.1-0.1 0.2-0.1 0.1-0.2 0.2 0 0.1-0.1 0.2-0.1 0.1-0.2 0.2 0 0-0.1 0.1-0.1 0.1-0.2 0.1-0.1 0.1-0.2 0.2-0.1 0-0.3 0.1-0.1 0-0.2 0-0.1 0.1-0.2 0.1-0.2 0-0.3 0-0.1 0-0.3 0zm0-0.7q0.1 0 0.2 0 0.1 0 0.2-0.1 0.1 0 0.1 0 0.1 0 0.2-0.1 0.1 0 0.1 0 0.1-0.1 0.2-0.1 0 0 0.1-0.1 0.1 0 0.1-0.1 0.1-0.1 0.1-0.1 0.1-0.1 0.1-0.1 0.1-0.1 0.1-0.2 0 0 0.1-0.1 0-0.2 0-0.3 0.1-0.2 0.1-0.4 0-0.1-0.1-0.3 0-0.2 0-0.3-0.1-0.1-0.1-0.2 0 0-0.1-0.1 0-0.1-0.1-0.1 0-0.1-0.1-0.1 0-0.1-0.1-0.2-0.1 0-0.1 0-0.1-0.1-0.2-0.1 0-0.1-0.1-0.1-0.1 0-0.2 0 0-0.1-0.1-0.1-0.1 0-0.2 0-0.1 0-0.2 0 0 0-0.1 0-0.1 0-0.2 0-0.1 0-0.2 0.1 0 0-0.1 0-0.1 0-0.2 0.1 0 0-0.1 0.1-0.1 0-0.1 0-0.1 0.1-0.1 0.2-0.1 0-0.1 0.1-0.1 0-0.1 0.1-0.1 0.1-0.1 0.1 0 0.1-0.1 0.2 0 0.1-0.1 0.3 0 0.2 0 0.3 0 0.2 0 0.4 0.1 0.1 0.1 0.3 0.1 0.1 0.1 0.1 0 0.1 0.1 0.2 0 0 0.1 0.1 0 0 0.1 0.1 0 0.1 0.1 0.1 0 0.1 0.1 0.1 0.1 0 0.1 0.1 0.1 0 0.2 0 0.1 0.1 0.1 0.1 0.1 0 0.2 0 0.1 0.1 0.2 0.1 0.1 0 0.1 0z"/>
			<path id="Path_8504" class="s2" d="m164.9 49.9v-4.7h0.7l2.9 3.6h-0.3v-3.6h0.8v4.7h-0.7l-2.9-3.6h0.4v3.6z"/>
			<path id="Path_8505" fill-rule="evenodd" class="s2" d="m171.5 49.1h2.6v0.8h-3.5v-4.7h3.4v0.7h-2.5v1.2h-0.1v0.7h0.1zm2.2-1.2v-0.8h-2.2v0.8z"/>
			<path id="Path_8506" class="s2" d="m177.6 49.9v-4.7h0.9v3.9h2.4v0.8z"/>
			<path id="Path_8507" class="s2" d="m181.9 49.9v-4.7h0.9v4.7z"/>
			<path id="Path_8508" fill-rule="evenodd" class="s2" d="m185.2 49.9h-0.8v-4.7h3.4v0.7h-2.6v1.4 0.8zm2.3-1.8v-0.7h-2.3v0.7z"/>
			<path id="Path_8509" fill-rule="evenodd" class="s2" d="m189.8 49.1h2.6v0.8h-3.5v-4.7h3.4v0.7h-2.5v1.2h-0.1v0.7h0.1zm2.3-1.2v-0.8h-2.3v0.8z"/>
			<path id="Path_8510" class="s2" d="m194.7 49.9v-4h-1.6v-0.7h4v0.7h-1.5v4z"/>
			<path id="Path_8511" class="s2" d="m198.1 49.9v-4.7h0.8v4.7z"/>
			<path id="Path_8512" class="s2" d="m200.5 49.9v-4.7h0.8l2 3.4h-0.4l2-3.4h0.7v4.7h-0.8v-3.4h0.2l-1.7 2.8h-0.4l-1.7-2.8h0.2v3.4z"/>
			<path id="Path_8513" fill-rule="evenodd" class="s2" d="m208.1 49.1h2.6v0.8h-3.5v-4.7h3.4v0.7h-2.5v1.2h-0.1v0.7h0.1zm2.2-1.2v-0.8h-2.2v0.8z"/>
		</g>
		<path id="Rectangle_1353" class="s2" d="m71.6 51.8h139.1v8.2h-139.1z"/>
		<g id="Group_12994">
			<path id="Path_8514" fill-rule="evenodd" class="s3" d="m74.9 57.3h2.4v0.7h-3.2v-4.2h3.1v0.6h-2.3v1.1h-0.1v0.7h0.1zm2-1.2v-0.6h-2v0.6z"/>
			<path id="Path_8515" class="s3" d="m78 58l1.8-2.4v0.5l-1.7-2.3h0.9l1.2 1.7h-0.3l1.2-1.7h0.9l-1.7 2.3v-0.6l1.8 2.5h-0.9l-1.4-1.9h0.4l-1.3 1.9z"/>
			<path id="Path_8516" fill-rule="evenodd" class="s3" d="m83 58v-4.2h1.7q0.1 0 0.2 0 0.2 0 0.3 0 0.1 0 0.2 0.1 0.1 0 0.3 0.1 0 0 0.1 0.1 0.1 0 0.2 0.1 0.1 0 0.1 0.1 0.1 0.1 0.2 0.2 0.1 0.2 0.1 0.4 0.1 0.2 0.1 0.4 0 0.2-0.1 0.4 0 0.2-0.1 0.4-0.1 0.1-0.2 0.1 0 0.1-0.1 0.2-0.1 0.1-0.2 0.1-0.1 0.1-0.1 0.1-0.2 0.1-0.3 0.1-0.1 0-0.2 0-0.1 0.1-0.3 0.1-0.1 0-0.2 0h-1v1.2zm0.8-1.2v-0.4-0.3h-0.3l0.3 0.4-0.3 0.3zm0-0.3v-0.1l-0.1 0.1zm0.9-0.4q0.2 0 0.3 0 0.1 0 0.2-0.1 0.1 0 0.2 0 0-0.1 0.1-0.1 0.2-0.2 0.2-0.3 0.1-0.2 0.1-0.4 0-0.1-0.1-0.3 0-0.2-0.2-0.3-0.1 0-0.1-0.1-0.1 0-0.2-0.1-0.1 0-0.2 0-0.1 0-0.3 0h-0.9v1.7zm-0.9-1.7v-0.4l-0.3 0.4z"/>
			<path id="Path_8517" fill-rule="evenodd" class="s3" d="m88.5 57.3h2.3v0.7h-3.1v-4.2h3.1v0.6h-2.3v1.1h-0.1v0.7h0.1zm2-1.2v-0.6h-2v0.6z"/>
			<path id="Path_8518" fill-rule="evenodd" class="s3" d="m92.1 58v-4.2h1.8q0.1 0 0.2 0 0.1 0 0.3 0 0.1 0 0.2 0.1 0.1 0 0.2 0.1 0.1 0 0.2 0.1 0.1 0 0.2 0.1 0.1 0 0.1 0.1 0.1 0.1 0.2 0.2 0 0.1 0.1 0.2 0 0.1 0 0.2 0.1 0.1 0.1 0.2 0 0.1 0 0.2 0 0.1 0 0.2 0 0.1-0.1 0.2 0 0.1 0 0.2-0.1 0.1-0.1 0.2-0.1 0.1-0.2 0.1 0 0.1-0.1 0.2-0.1 0.1-0.2 0.1-0.1 0.1-0.2 0.1 0 0 0 0l0.9 1.4h-0.8l-0.9-1.2q0 0-0.1 0h-1v1.2zm0.8-1.2v-0.4-0.3h-0.3l0.3 0.4-0.3 0.3zm-0.1-0.3l0.1-0.1v0.1zm0.9-0.3q0.1 0 0.2 0 0.1 0 0.2-0.1 0.1 0 0.2 0 0.1-0.1 0.2-0.1 0.1-0.1 0.1-0.2 0.1 0 0.1-0.1 0-0.1 0-0.2 0.1-0.1 0.1-0.2 0-0.1 0-0.1-0.1-0.1-0.1-0.2 0-0.1-0.1-0.2 0 0-0.1-0.1-0.1-0.1-0.2-0.1-0.1 0-0.2-0.1-0.1 0-0.2 0-0.1 0-0.2 0h-0.9v1.7zm-0.9-1.7v-0.4l-0.4 0.4z"/>
			<path id="Path_8519" class="s3" d="m97 58v-4.2h0.7v4.2z"/>
			<path id="Path_8520" fill-rule="evenodd" class="s3" d="m100.1 57.3h2.4v0.7h-3.2v-4.2h3.1v0.6h-2.3v1.1h-0.1v0.7h0.1zm2-1.2v-0.6h-2v0.6z"/>
			<path id="Path_8521" class="s3" d="m103.8 58v-4.2h0.6l2.7 3.2h-0.4v-3.2h0.8v4.2h-0.6l-2.7-3.2h0.3v3.2z"/>
			<path id="Path_8522" class="s3" d="m111 58.1q-0.1 0-0.2 0-0.1-0.1-0.2-0.1-0.2 0-0.3 0-0.1-0.1-0.2-0.1-0.1 0-0.2-0.1-0.1 0-0.2-0.1-0.1 0-0.1-0.1-0.1-0.1-0.2-0.1-0.1-0.1-0.1-0.2-0.1-0.1-0.2-0.2 0-0.1-0.1-0.1 0-0.1-0.1-0.2-0.1-0.2-0.1-0.5 0-0.2 0-0.4 0-0.2 0-0.4 0-0.3 0.1-0.5 0.1-0.1 0.1-0.2 0.1-0.1 0.1-0.1 0.1-0.1 0.2-0.2 0-0.1 0.1-0.2 0.1 0 0.2-0.1 0-0.1 0.1-0.1 0.1-0.1 0.2-0.1 0.1-0.1 0.2-0.1 0.2-0.1 0.5-0.1 0.2-0.1 0.4-0.1 0.3 0 0.5 0.1 0.2 0 0.5 0.1 0.1 0 0.2 0.1 0.1 0.1 0.2 0.1 0 0.1 0.1 0.2 0.1 0 0.2 0.1l-0.5 0.5q-0.1-0.1-0.1-0.1-0.1-0.1-0.2-0.1 0-0.1-0.1-0.1-0.1 0-0.1-0.1-0.1 0-0.2 0-0.1 0-0.1-0.1-0.1 0-0.2 0-0.1 0-0.1 0-0.1 0-0.2 0-0.1 0-0.2 0 0 0.1-0.1 0.1-0.1 0-0.2 0 0 0-0.1 0.1 0 0-0.1 0.1-0.1 0-0.1 0-0.1 0.1-0.1 0.1-0.1 0.1-0.1 0.1-0.1 0.1-0.1 0.1-0.1 0.1-0.1 0.2 0 0 0 0.1-0.1 0.1-0.1 0.3-0.1 0.1-0.1 0.3 0 0.1 0.1 0.3 0 0.2 0.1 0.3 0 0.1 0 0.1 0 0.1 0.1 0.1 0 0.1 0.1 0.2 0 0 0.1 0.1 0 0 0.1 0.1 0 0 0.1 0 0.1 0.1 0.1 0.1 0.1 0 0.1 0.1 0.1 0 0.2 0 0.1 0 0.1 0.1 0.1 0 0.2 0 0.1 0 0.2 0 0.1 0 0.3 0 0.1-0.1 0.3-0.1 0.1-0.1 0.2-0.2 0.2-0.1 0.3-0.2l0.5 0.5q-0.1 0-0.2 0.1-0.1 0.1-0.1 0.2-0.1 0-0.2 0.1-0.1 0-0.2 0.1-0.2 0-0.3 0.1-0.1 0-0.2 0-0.1 0-0.2 0.1-0.2 0-0.3 0z"/>
			<path id="Path_8523" fill-rule="evenodd" class="s3" d="m114.6 57.3h2.4v0.7h-3.1v-4.2h3v0.6h-2.3v1.1 0.7zm2.1-1.2v-0.6h-2.1v0.6z"/>
			<path id="Path_8524" class="s3" d="m121.3 58v-3.6h-1.4v-0.6h3.5v0.6h-1.4v3.6z"/>
			<path id="Path_8525" class="s3" d="m125.2 58h-0.8v-4.2h0.8zm2.3-1.8h-2.3v-0.7h2.3zm-0.1-2.4h0.8v4.2h-0.8z"/>
			<path id="Path_8526" fill-rule="evenodd" class="s3" d="m130.5 57.3h2.4v0.7h-3.2v-4.2h3.1v0.6h-2.3v1.1 0.7zm2.1-1.2v-0.6h-2.1v0.6z"/>
			<path id="Path_8527" fill-rule="evenodd" class="s3" d="m138.2 58.1q-0.1 0-0.2 0-0.1-0.1-0.2-0.1-0.1 0-0.2 0-0.2-0.1-0.3-0.1-0.1 0-0.2-0.1-0.1 0-0.1-0.1-0.1 0-0.2-0.1-0.1-0.1-0.2-0.1-0.1-0.1-0.1-0.2-0.1-0.1-0.2-0.2 0-0.1-0.1-0.1 0-0.1-0.1-0.2 0-0.2-0.1-0.5 0-0.2 0-0.4 0-0.2 0-0.4 0.1-0.3 0.1-0.5 0.1-0.1 0.1-0.2 0.1-0.1 0.1-0.1 0.1-0.1 0.2-0.2 0-0.1 0.1-0.2 0.1 0 0.2-0.1 0.1-0.1 0.2-0.1 0.1-0.1 0.2-0.1 0-0.1 0.1-0.1 0.2-0.1 0.3-0.1 0.1 0 0.2 0 0.1-0.1 0.2-0.1 0.1 0 0.3 0 0.1 0 0.2 0 0.1 0 0.3 0.1 0.1 0 0.2 0 0.1 0.1 0.2 0.1 0.1 0 0.2 0.1 0.1 0 0.2 0.1 0.1 0.1 0.2 0.2 0.1 0 0.2 0.1l-0.5 0.5q-0.2-0.1-0.3-0.2-0.1-0.1-0.3-0.2-0.1 0-0.3-0.1-0.1 0-0.3 0-0.1 0-0.2 0 0 0-0.1 0-0.1 0.1-0.2 0.1 0 0-0.1 0-0.1 0-0.2 0.1 0 0-0.1 0.1 0 0-0.1 0-0.1 0.1-0.1 0.1-0.1 0.1-0.1 0.1-0.1 0.1-0.1 0.1 0 0.1-0.1 0.2 0 0 0 0.1-0.1 0.1-0.1 0.3 0 0.1 0 0.3 0 0.1 0 0.3 0 0.1 0.1 0.3 0 0.1 0.1 0.2 0.1 0.2 0.2 0.3 0.1 0.1 0.2 0.1 0.1 0.1 0.3 0.2 0 0 0.1 0 0.1 0 0.2 0.1 0.1 0 0.1 0 0.1 0 0.2 0 0.1 0 0.1 0 0.1 0 0.2 0 0.1-0.1 0.1-0.1 0.1 0 0.2 0 0.1 0 0.1-0.1 0.1 0 0.2 0v0.2l0.7 0.1q-0.1 0.1-0.2 0.2-0.1 0-0.2 0.1-0.1 0-0.2 0.1-0.1 0-0.2 0-0.1 0.1-0.2 0.1-0.1 0-0.2 0-0.1 0.1-0.2 0.1-0.1 0-0.3 0zm1-1q0.1 0 0.1 0 0.1-0.1 0.2-0.2l0.4 0.6v-1.7h-0.7v1.4q0 0 0-0.1z"/>
			<path id="Path_8528" fill-rule="evenodd" class="s3" d="m142.1 57.3h2.4v0.7h-3.2v-4.2h3.1v0.6h-2.3v1.1 0.7zm2.1-1.2v-0.6h-2.1v0.6z"/>
			<path id="Path_8529" class="s3" d="m145.8 58v-4.2h0.6l2.7 3.2h-0.3v-3.2h0.8v4.2h-0.7l-2.6-3.2h0.3v3.2z"/>
			<path id="Path_8530" class="s3" d="m152 58v-3.6h-1.4v-0.6h3.5v0.6h-1.4v3.6z"/>
			<path id="Path_8531" class="s3" d="m155.1 58v-4.2h0.8v3.5h2.2v0.7z"/>
			<path id="Path_8532" fill-rule="evenodd" class="s3" d="m160 57.3h2.3v0.7h-3.1v-4.2h3.1v0.6h-2.3v1.1h-0.1v0.7h0.1zm2-1.2v-0.6h-2v0.6z"/>
			<path id="Path_8533" fill-rule="evenodd" class="s3" d="m165.7 58v-4.2h1.9q0.1 0 0.3 0 0.1 0 0.3 0 0.1 0.1 0.3 0.1 0.1 0.1 0.3 0.1 0.1 0.1 0.2 0.2 0.1 0.1 0.2 0.2 0.1 0.1 0.2 0.2 0.1 0.1 0.2 0.2 0.1 0.2 0.2 0.5 0.1 0.3 0.1 0.6 0 0.3-0.1 0.6-0.1 0.2-0.2 0.5-0.1 0.1-0.2 0.2-0.1 0.1-0.2 0.2-0.1 0.1-0.2 0.2-0.1 0.1-0.2 0.1-0.2 0.1-0.3 0.2-0.2 0-0.3 0-0.2 0.1-0.3 0.1-0.2 0-0.3 0zm0.7-0.7h1.1q0.1 0 0.2 0 0.1 0 0.2 0 0.1 0 0.2-0.1 0.1 0 0.2 0 0.1-0.1 0.1-0.1 0.1-0.1 0.2-0.2 0.1 0 0.1-0.1 0.1-0.1 0.1-0.1 0.1-0.2 0.2-0.4 0-0.2 0-0.4 0-0.2 0-0.4-0.1-0.2-0.2-0.4 0 0-0.1-0.1 0-0.1-0.1-0.2-0.1 0-0.2-0.1 0 0-0.1-0.1-0.1 0-0.2 0-0.1-0.1-0.2-0.1-0.1 0-0.2 0-0.1-0.1-0.2 0h-1.1z"/>
			<path id="Path_8534" class="s3" d="m171.1 58v-4.2h0.8v4.2z"/>
			<path id="Path_8535" fill-rule="evenodd" class="s3" d="m174.2 58h-0.8v-4.2h3.1v0.6h-2.3v1.3 0.7zm2.1-1.6v-0.7h-2.1v0.7z"/>
			<path id="Path_8536" fill-rule="evenodd" class="s3" d="m178.5 58h-0.8v-4.2h3.1v0.6h-2.3v1.3h-0.1v0.7h0.1zm2-1.6v-0.7h-2v0.7z"/>
			<path id="Path_8537" fill-rule="evenodd" class="s3" d="m182.7 57.3h2.4v0.7h-3.1v-4.2h3v0.6h-2.3v1.1 0.7zm2.1-1.2v-0.6h-2.1v0.6z"/>
			<path id="Path_8538" fill-rule="evenodd" class="s3" d="m186.4 58v-4.2h1.8q0.1 0 0.2 0 0.1 0 0.2 0 0.2 0 0.3 0.1 0.1 0 0.2 0.1 0.1 0 0.2 0.1 0.1 0 0.2 0.1 0 0 0.1 0.1 0.1 0.1 0.1 0.2 0.1 0.1 0.1 0.2 0.1 0.1 0.1 0.2 0 0.1 0 0.2 0.1 0.1 0.1 0.2 0 0.1-0.1 0.2 0 0.1 0 0.2 0 0.1-0.1 0.2 0 0.1-0.1 0.2 0 0.1-0.1 0.1-0.1 0.1-0.1 0.2-0.1 0.1-0.2 0.1-0.1 0.1-0.2 0.1 0 0 0 0l0.9 1.4h-0.8l-0.9-1.2q-0.1 0-0.1 0h-1v1.2zm0.8-1.2v-0.4-0.3h-0.4l0.3 0.4-0.3 0.3zm0-0.3v-0.1 0.1zm1-0.3q0.1 0 0.2 0 0.1 0 0.2-0.1 0.1 0 0.2 0 0.1-0.1 0.2-0.1 0-0.1 0.1-0.2 0 0 0.1-0.1 0-0.1 0-0.2 0-0.1 0-0.2 0-0.1 0-0.1 0-0.1 0-0.2-0.1-0.1-0.1-0.2-0.1 0-0.1-0.1-0.1 0-0.2-0.1-0.1 0-0.2-0.1-0.1 0-0.2 0-0.1 0-0.2 0h-0.9v1.7zm-0.9-1.7v-0.4l-0.4 0.4z"/>
			<path id="Path_8539" fill-rule="evenodd" class="s3" d="m192 57.3h2.4v0.7h-3.2v-4.2h3.1v0.6h-2.3v1.1 0.7zm2.1-1.2v-0.6h-2.1v0.6z"/>
			<path id="Path_8540" class="s3" d="m195.7 58v-4.2h0.6l2.7 3.2h-0.3v-3.2h0.7v4.2h-0.6l-2.6-3.2h0.3v3.2z"/>
			<path id="Path_8541" class="s3" d="m202.9 58.1q-0.1 0-0.2 0-0.1-0.1-0.2-0.1-0.1 0-0.2 0-0.1-0.1-0.2-0.1-0.1 0-0.2-0.1-0.1 0-0.2-0.1-0.1 0-0.2-0.1-0.1-0.1-0.2-0.1 0-0.1-0.1-0.2-0.1-0.1-0.1-0.2-0.1-0.1-0.1-0.1-0.1-0.1-0.1-0.2-0.1-0.2-0.2-0.5 0-0.2 0-0.4 0-0.2 0-0.4 0.1-0.3 0.2-0.5 0-0.1 0.1-0.2 0-0.1 0.1-0.1 0-0.1 0.1-0.2 0.1-0.1 0.1-0.2 0.1 0 0.2-0.1 0.1-0.1 0.2-0.1 0.1-0.1 0.2-0.1 0.1-0.1 0.2-0.1 0.2-0.1 0.4-0.1 0.2-0.1 0.5-0.1 0.2 0 0.5 0.1 0.2 0 0.4 0.1 0.1 0 0.2 0.1 0.1 0.1 0.2 0.1 0.1 0.1 0.2 0.2 0.1 0 0.1 0.1l-0.5 0.5q0-0.1-0.1-0.1-0.1-0.1-0.1-0.1-0.1-0.1-0.2-0.1 0 0-0.1-0.1-0.1 0-0.1 0-0.1 0-0.2-0.1-0.1 0-0.2 0 0 0-0.1 0-0.1 0-0.2 0 0 0-0.1 0-0.1 0.1-0.2 0.1 0 0-0.1 0-0.1 0-0.1 0.1-0.1 0-0.2 0.1 0 0-0.1 0 0 0.1-0.1 0.1 0 0.1-0.1 0.1 0 0.1-0.1 0.1 0 0.1 0 0.2-0.1 0-0.1 0.1-0.1 0.1-0.1 0.3 0 0.1 0 0.3 0 0.1 0 0.3 0 0.2 0.1 0.3 0 0.1 0.1 0.1 0 0.1 0 0.1 0.1 0.1 0.1 0.2 0.1 0 0.1 0.1 0.1 0 0.1 0.1 0.1 0 0.1 0 0.1 0.1 0.2 0.1 0 0 0.1 0.1 0.1 0 0.1 0 0.1 0 0.2 0.1 0.1 0 0.1 0 0.1 0 0.2 0 0.2 0 0.3 0 0.2-0.1 0.3-0.1 0.2-0.1 0.3-0.2 0.1-0.1 0.2-0.2l0.5 0.5q0 0-0.1 0.1-0.1 0.1-0.2 0.2-0.1 0-0.2 0.1-0.1 0-0.2 0.1-0.1 0-0.2 0.1-0.1 0-0.3 0-0.1 0-0.2 0.1-0.1 0-0.3 0z"/>
			<path id="Path_8542" fill-rule="evenodd" class="s3" d="m206.6 57.3h2.4v0.7h-3.2v-4.2h3.1v0.6h-2.3v1.1h-0.1v0.7h0.1zm2-1.2v-0.6h-2v0.6z"/>
		</g>
	</g>
</svg>