<svg xmlns="http://www.w3.org/2000/svg" width="38.997" height="52.908" viewBox="0 0 38.997 52.908">
  <path id="Path_8567" data-name="Path 8567" d="M-1545.355-1154.8m0,0a12.073,12.073,0,0,1-1.721,4.882h-29.074a17.037,17.037,0,0,1-2.324-8.583c0-.394.015-.792.042-1.184a10.638,10.638,0,0,1,4.385-7.425c5.662-4.318,15.2,5.62,15.3,5.719a1.458,1.458,0,0,0,1.055.453,1.454,1.454,0,0,0,1.453-1.453,1.445,1.445,0,0,0-.4-1,32.419,32.419,0,0,0-2.578-2.382c2.325-1.066,7.431-2.833,10.327.552a13.422,13.422,0,0,1,3.6,9.141c0,.428-.021.855-.061,1.278m-1.323-12.311c-5.129-5.986-13.866-1.316-15.1-.609-3.981-2.719-9.544-5.114-14.024-1.7a13.452,13.452,0,0,0-5.512,9.4c-.038.51-.059,1.026-.059,1.54a19.85,19.85,0,0,0,3.2,10.805h.049c0,.723-.021,1.584-.021,1.584h14.038v3.5h-9.362c.221,1,.47,2.129.765,3.33h8.6v3.5h-7.669c.331,1.175.7,2.378,1.1,3.574h6.565v3.5h-5.276c.52,1.274,1.083,2.5,1.685,3.646h3.593v3.5h-2.805c1.624,2.036,3.479,3.336,5.575,3.336h.1c2.094,0,3.947-1.3,5.571-3.338h-2.806v-3.5h3.6a39.528,39.528,0,0,0,1.683-3.646h-5.279v-3.5h6.565c.4-1.2.771-2.4,1.1-3.572l-7.671,0v-3.5h8.6c.293-1.2.55-2.325.763-3.33h-9.36v-3.5h13.358s.023-.908.023-1.586h.044a15.094,15.094,0,0,0,2.589-6.778,16.554,16.554,0,0,0,.089-1.687,16.146,16.146,0,0,0-4.3-10.969" transform="translate(1581.372 1171.104)" fill="#fafafa" fill-rule="evenodd"/>
</svg>
