<svg xmlns="http://www.w3.org/2000/svg" width="52.665" height="28.797" viewBox="0 0 52.665 28.797">
  <g id="Group_13011" data-name="Group 13011" transform="translate(1582.631 1089.473)">
    <path id="Path_8568" data-name="Path 8568" d="M-1578.812-1077.548a6.83,6.83,0,0,1-.868-2.227h7.8c0-3.648.183-3.1,4.211-3.1.934,0,2.946-.2,3.594.12.946.467.738,1.619.738,2.976h14.358c0-1.242-.227-2.577.628-2.964a43.357,43.357,0,0,1,7.074-.034c1,.362.717,1.682.717,3h7.922a10.057,10.057,0,0,1-.868,2.227c.65,0,2.469.164,2.946-.149a1.2,1.2,0,0,0,.086-2.015c-.418-.3-1.269-.188-1.917-.188.027-1.215.564-3.042.054-5.005-.743-2.856-3.778-4.457-6.487-4.531a12.767,12.767,0,0,0-5.079.5c.135.509.794.695,1.577,1.394,1.061.951,1.269.721,1.269,1.826-.907.606-.985.418-1.683-.3l-.64-.6a9.318,9.318,0,0,0-1.587-1.135,9.825,9.825,0,0,0-10.541-.042c-.034.022-.337.24-.359.259-.327.293-.2.09-.291.452a15.883,15.883,0,0,0-1.936-1.406c-1.941-.99-3.5-.976-5.744-.951a26.265,26.265,0,0,0-2.841.5v.25a7.7,7.7,0,0,1,1.7,1.149c1.119.946,1.149,1.044,1.149,1.822-.408.271-.731.621-1.25.139a11.817,11.817,0,0,0-3.188-2.511,9.47,9.47,0,0,0-6.22-1.11c-2.025.421-3.954,1.137-4.856,2.7-1.5,2.592-.577,5.172-.577,6.6a5.624,5.624,0,0,0-2.093.134,1.2,1.2,0,0,0-.523,1.482c.433,1.044,2,.736,3.731.736" transform="translate(0 0)" fill="#fff" fill-rule="evenodd"/>
    <path id="Path_8569" data-name="Path 8569" d="M-1549.153-1084.6h-7.179c0,2.719.274,3.007-2.474,3.1a14.3,14.3,0,0,0-1.8-.086,23.708,23.708,0,0,1-3.279-.034c-1.171-.367-.86-1.594-.86-2.983h-7.057a7.935,7.935,0,0,0,.814,1.535,10.523,10.523,0,0,1,.658,1.7c1.066,3.335-.242,8.421,2.31,12.172,1.465,2.147,3.722,1.541,4.235-.33.365-1.32-.1-7.348,1.389-8.267a3.508,3.508,0,0,1,1.983-.5c1.91,0,2.32.745,2.7,2.137a15.4,15.4,0,0,1,.5,4.291c-.183,1.606-.176,2.912.932,3.685,1.046.728,2.372.332,3.25-.99,1.45-2.191,1.626-4.489,1.9-7.758.142-1.733-.264-1.949.428-4.4a11.637,11.637,0,0,1,1.558-3.269" transform="translate(15.645 7.048)" fill="#fff" fill-rule="evenodd"/>
    <path id="Path_8570" data-name="Path 8570" d="M-1558.542-1084.6h-7.179c0,1.958.464,3.279-2.474,3.1a7.006,7.006,0,0,0-1.741-.01,14.041,14.041,0,0,1-1.719-.113c-.646.022-.895.252-1.626.005-1.129-.379-.858-1.543-.858-2.981h-6.929c1.672,3.166,2,3.516,1.978,7.675a19.492,19.492,0,0,0,.988,6.191c1.748,4.4,4.538,3.184,5.007,1.286.076-.311.2-1.929.2-2.274a24.117,24.117,0,0,1,.4-4.428c.125-.753.23-1.264.851-1.624a3.525,3.525,0,0,1,3.722.078c1.12.887,1.45,4.868,1.3,5.934-.614,4.438,2.592,4.971,4.171,2.687,1.465-2.125,1.655-4.514,1.922-7.734.171-2.073-.318-3.318,1.117-6.186a12.939,12.939,0,0,0,.868-1.606" transform="translate(2.257 7.048)" fill="#fff" fill-rule="evenodd"/>
    <path id="Path_8571" data-name="Path 8571" d="M-1577.323-1085.484v3.467h3.836a10.352,10.352,0,0,1,.09-1.149l-.09-1.947c0-.907.99-.743-3.467-.743-.283,0-.369.085-.369.372" transform="translate(7.67 5.212)" fill="#fff" fill-rule="evenodd"/>
    <path id="Path_8572" data-name="Path 8572" d="M-1568.008-1085.49v3.1c0,.283.086.371.372.371h3.465v-3.839h-3.465c-.286,0-.372.086-.372.372" transform="translate(21.131 5.218)" fill="#fff" fill-rule="evenodd"/>
    <path id="Path_8573" data-name="Path 8573" d="M-1571.732-1084.6h0Z" transform="translate(15.571 7.048)" fill="#fff" fill-rule="evenodd"/>
  </g>
</svg>
