<svg xmlns="http://www.w3.org/2000/svg" width="39.504" height="52.737" viewBox="0 0 39.504 52.737">
  <g id="Group_13010" data-name="Group 13010" transform="translate(1581.842 1220.956)">
    <path id="Path_8565" data-name="Path 8565" d="M-1581.842-1211.133a24.325,24.325,0,0,0,1.95,9.806c.81,2.2,3.142,6.27,3.142,7.786,0,2.159-1.222,3.58-1.222,5.812,0,4.294.183,8.321,1.9,12.355,2.72,6.378,6.451-2.782,7.9-5.579.76-1.467,1.52-2.873,2.412-4.264.472-.736,2.6-3.456,3.667-3.456.754,0,1.7.957,2.1,1.367a14.735,14.735,0,0,1,1.57,1.93c3.1,4.585,8.007,20.155,11.252,7.114,2.469-9.925-.257-12.617-.257-14.965,0-3.347,5.09-8.307,5.09-17.908,0-1.789-.3-3.85-2.316-4.5-1.275-.408-6.131-.84-7.412.292-3.168,2.8,3.415,3.9,3.415,10.8,0,4.756-4.358,5.894-3.65,13.025.11,1.112.422,2.4.579,3.482.177,1.21.3,2.4.543,3.665l.167,6.62c-.069.647-.056.442-.285.7a5.94,5.94,0,0,0-.352-1.455c-1.176-4.785-1.717-13.475-3.832-17.307-.6-1.085-1.027-1.311-2.386-1.775a11.384,11.384,0,0,0-8.355-.089c-3.311,1.094-3.82,4.58-4.408,7.911-.4,2.238-.7,4.348-1.114,6.68-.209,1.176-.378,2.113-.613,3.3l-.931,3.052c0-6.2-.115-6.395.875-12.207.436-2.571,1.029-5.136-.032-7.764l-2.451-4.865c-2.828-6.785,3.854-10.252,3.564-12.339-.358-2.594-3.434-2.095-6.232-2.095-3.478,0-4.278,2.193-4.278,4.869" transform="translate(0 4.943)" fill="#fff" fill-rule="evenodd"/>
    <path id="Path_8566" data-name="Path 8566" d="M-1559.877-1219.856a5.86,5.86,0,0,0,1.22.473c-.074.694-2.487,3.572-3.053,4.4-.541-.221-.885-.408-1.425-.629a4.28,4.28,0,0,0-.814,1.256,16.523,16.523,0,0,0,2.036.786c-.472,1.361-14.329,18.609-14.458,19.791a6.2,6.2,0,0,0,1.425.47c3.311-4.825,8.819-11.812,12.635-16.957a16.666,16.666,0,0,0,1.823-2.521,9.946,9.946,0,0,1,2.239.943,6.846,6.846,0,0,0,.814-1.256c-.619-.253-.812-.2-1.222-.627a14.943,14.943,0,0,1,1.5-2.147c.545-.77,1.037-1.335,1.56-2.095a14.938,14.938,0,0,0,1.425.627,4.24,4.24,0,0,0,.814-1.257c-1.327-.237-4.613-2.273-5.9-2.356a3.663,3.663,0,0,1-.611,1.1" transform="translate(5.526 0)" fill="#fff" fill-rule="evenodd"/>
  </g>
</svg>
