<svg xmlns="http://www.w3.org/2000/svg" width="47.632" height="47.499" viewBox="0 0 47.632 47.499">
  <g id="Group_84" data-name="Group 84" transform="translate(3833.429 1383.85)">
    <path id="Path_8440" data-name="Path 8440" d="M-3500.456-1174.9a3.957,3.957,0,0,1-.655-.338q-1.187-.969-2.35-1.967a.772.772,0,0,1-.161-1.135.772.772,0,0,1,1.178-.07c.791.647,1.57,1.308,2.351,1.967a.711.711,0,0,1,.267.916A3.193,3.193,0,0,1-3500.456-1174.9Z" transform="translate(-286.06 -178.083)" fill="#00468a"/>
    <path id="Path_8441" data-name="Path 8441" d="M-3502.445-1310.218c-.191-.149-.519-.28-.6-.5a.965.965,0,0,1,.1-.845c.83-.772,1.707-1.5,2.6-2.2a.7.7,0,0,1,1.014.159.692.692,0,0,1-.039,1.024c-.835.743-1.7,1.451-2.567,2.162A2.128,2.128,0,0,1-3502.445-1310.218Z" transform="translate(-286.675 -60.69)" fill="#00468a"/>
    <g id="Group_83" data-name="Group 83" transform="translate(-3833.429 -1383.85)">
      <path id="Path_8442" data-name="Path 8442" d="M-3748.261-1320.984a12.187,12.187,0,0,1,2.917,3.636,1.2,1.2,0,0,1,.027.916.74.74,0,0,1-1.245.074,2.983,2.983,0,0,1-.258-.421,11.088,11.088,0,0,0-11.279-5.516,11,11,0,0,0-9.215,8.813,10.754,10.754,0,0,0,3.853,10.7,1.532,1.532,0,0,1,.667,1.429,10.283,10.283,0,0,0-.007,1.066h3.145c.007-.131.021-.258.021-.385,0-1.6,0-3.2.006-4.8a.634.634,0,0,0-.315-.6,6.083,6.083,0,0,1-2.721-6.478,6.049,6.049,0,0,1,4.839-4.976,5.592,5.592,0,0,1,3.4.215,1.3,1.3,0,0,1,.637.655c.142.331-.078.625-.375.831a1.5,1.5,0,0,0-.686,1.626,1.5,1.5,0,0,0,1.214,1.229,1.492,1.492,0,0,0,1.634-.664.824.824,0,0,1,.83-.417c.4.055.573.329.7.68a6.277,6.277,0,0,1-2.426,7.235.814.814,0,0,0-.408.8c.017,1.517.007,3.035.007,4.552v.5h3.167c0-.457.016-.912,0-1.365a1.1,1.1,0,0,1,.474-.97,10.856,10.856,0,0,0,4.266-9.137,14.185,14.185,0,0,0-.216-1.814c-.091-.594.131-1.01.623-1.095.458-.079.815.208.923.8a12.3,12.3,0,0,1-4.024,11.969c-.565.514-.419,1.025-.445,1.585a2.415,2.415,0,0,1,1.792,3.969c1.085,2.141.422,3.658-1.784,4.025a7.922,7.922,0,0,1-2.987,6.141,7.677,7.677,0,0,1-5.331,1.736,7.962,7.962,0,0,1-7.561-7.869c-.117-.048-.289-.063-.348-.153-.161-.245-.416-.549-.37-.777.052-.256.368-.488.616-.663.123-.087.352-.028.534-.028h15.04a2.638,2.638,0,0,0,.494-.014.747.747,0,0,0,.676-.786.748.748,0,0,0-.692-.771,2.968,2.968,0,0,0-.494-.011q-7.668,0-15.337,0a2.3,2.3,0,0,1-2.229-1.363,2.25,2.25,0,0,1,.3-2.506,2.459,2.459,0,0,1,1.838-.9,5.1,5.1,0,0,0-.012-.844,1.033,1.033,0,0,0-.273-.572,12.435,12.435,0,0,1-4.439-10.2,12.306,12.306,0,0,1,4.087-8.773l.321-.3-.053-.114c-.764.3-1.551.551-2.287.909-1.242.6-2.45,1.279-3.678,1.913-.213.11-.49.274-.676.216a1.191,1.191,0,0,1-.675-.543.7.7,0,0,1,.374-.917c1.121-.626,2.218-1.3,3.379-1.846a27.371,27.371,0,0,1,14.43-2.536,28.935,28.935,0,0,1,16.127,6.954,32.934,32.934,0,0,1,4.723,4.914c.435.553.434.8,0,1.356a32.039,32.039,0,0,1-11.746,9.394,3.081,3.081,0,0,1-.318.135.769.769,0,0,1-.992-.4.755.755,0,0,1,.34-1.013c.256-.147.532-.26.8-.391a30.5,30.5,0,0,0,10.154-8.049c.19-.23.275-.384.045-.665a29.78,29.78,0,0,0-13.058-9.277c-.107-.039-.219-.068-.33-.1C-3748.162-1321.022-3748.179-1321.01-3748.261-1320.984Zm-7.832,4.853a13.752,13.752,0,0,0-1.548.211,4.714,4.714,0,0,0-3.543,4.112,4.711,4.711,0,0,0,2.437,4.619,1.185,1.185,0,0,1,.705,1.221c-.035,1.054-.01,2.11-.01,3.166v2.522h3.125a.567.567,0,0,0,.036-.122c0-1.847.023-3.694,0-5.54a1.232,1.232,0,0,1,.726-1.258,4.6,4.6,0,0,0,2.407-4.468A3.259,3.259,0,0,1-3756.094-1316.131Zm5.966,23.827h-12.627a6.057,6.057,0,0,0,2.893,5.306,6.046,6.046,0,0,0,6.643.076A6.2,6.2,0,0,0-3750.127-1292.3Zm-6.343-6.361h-7.569a2.449,2.449,0,0,0-.444.012.746.746,0,0,0-.683.779.748.748,0,0,0,.684.78,2.42,2.42,0,0,0,.444.012h15.139a2.424,2.424,0,0,0,.444-.012.75.75,0,0,0,.684-.78.748.748,0,0,0-.684-.779,2.468,2.468,0,0,0-.444-.012Z" transform="translate(3780.236 1331.913)" fill="#00468a"/>
      <path id="Path_8443" data-name="Path 8443" d="M-3825.942-1276.89a5.268,5.268,0,0,1-.647.795,34.269,34.269,0,0,0-4.612,4.531c-.27.32-.3.515-.017.859a30.543,30.543,0,0,0,10.4,8.113c.163.078.33.151.485.243a.77.77,0,0,1,.354,1.049.751.751,0,0,1-1.046.355c-1.144-.581-2.3-1.145-3.4-1.81a31.427,31.427,0,0,1-8.578-7.661c-.475-.611-.474-.818.007-1.432a33.844,33.844,0,0,1,5.486-5.534c.287-.23.6-.412.942-.2A3.653,3.653,0,0,1-3825.942-1276.89Z" transform="translate(3833.367 1291.708)" fill="#00468a"/>
      <path id="Path_8444" data-name="Path 8444" d="M-3536.292-1346.11a5.337,5.337,0,0,1-.394.684c-.615.752-1.243,1.493-1.873,2.234a.83.83,0,0,1-1.209.221.824.824,0,0,1-.016-1.225q.981-1.177,1.973-2.343a.72.72,0,0,1,.93-.226A2.742,2.742,0,0,1-3536.292-1346.11Z" transform="translate(3578.822 1351.745)" fill="#00468a"/>
      <path id="Path_8445" data-name="Path 8445" d="M-3791.135-1343.429c-.156.184-.3.505-.525.576a.976.976,0,0,1-.842-.138c-.771-.829-1.495-1.7-2.2-2.594a.7.7,0,0,1,.138-1.017.7.7,0,0,1,1.026.018c.767.856,1.492,1.749,2.222,2.638A1.9,1.9,0,0,1-3791.135-1343.429Z" transform="translate(3799.958 1351.712)" fill="#00468a"/>
      <path id="Path_8446" data-name="Path 8446" d="M-3791-1148.142a4.266,4.266,0,0,1-.351.656q-.956,1.165-1.939,2.307a.788.788,0,0,1-1.168.191.8.8,0,0,1-.028-1.22q.977-1.18,1.976-2.34a.691.691,0,0,1,.92-.235A3.086,3.086,0,0,1-3791-1148.142Z" transform="translate(3799.868 1179.935)" fill="#00468a"/>
      <path id="Path_8447" data-name="Path 8447" d="M-3538.907-1149.592a3.621,3.621,0,0,1,.688.469c.673.766,1.328,1.55,1.974,2.339a.787.787,0,0,1-.056,1.18.769.769,0,0,1-1.133-.153c-.688-.8-1.383-1.591-2.018-2.43a1.072,1.072,0,0,1-.09-.859C-3539.473-1149.257-3539.159-1149.388-3538.907-1149.592Z" transform="translate(3578.427 1180.553)" fill="#00468a"/>
      <path id="Path_8448" data-name="Path 8448" d="M-3658.049-1381.476c0,.511.011,1.023,0,1.533a.789.789,0,0,1-.791.835.785.785,0,0,1-.784-.841q-.018-1.533,0-3.067a.781.781,0,0,1,.789-.834.787.787,0,0,1,.785.84C-3658.038-1382.5-3658.049-1381.988-3658.049-1381.476Z" transform="translate(3682.605 1383.85)" fill="#00468a"/>
      <path id="Path_8449" data-name="Path 8449" d="M-3578.847-1367.6c-.12.3-.17.474-.254.631-.458.856-.918,1.71-1.389,2.56a.805.805,0,0,1-1.143.432.8.8,0,0,1-.257-1.157c.479-.9.971-1.795,1.461-2.689a.7.7,0,0,1,.9-.4C-3579.25-1368.107-3579.056-1367.8-3578.847-1367.6Z" transform="translate(3615.255 1370.337)" fill="#00468a"/>
      <path id="Path_8450" data-name="Path 8450" d="M-3702.476-1380.1a.763.763,0,0,1,.721.571c.313,1.02.627,2.041.919,3.067a.775.775,0,0,1-.532.973.762.762,0,0,1-.954-.489c-.331-1.032-.646-2.07-.929-3.115A.777.777,0,0,1-3702.476-1380.1Z" transform="translate(3720.484 1380.598)" fill="#00468a"/>
      <path id="Path_8451" data-name="Path 8451" d="M-3620.139-1379.3a2.729,2.729,0,0,1-.057.309c-.283.944-.564,1.888-.857,2.828a.808.808,0,0,1-.994.644.807.807,0,0,1-.508-1.109c.285-.977.575-1.953.883-2.923a.766.766,0,0,1,.911-.565A.776.776,0,0,1-3620.139-1379.3Z" transform="translate(3650.472 1380.627)" fill="#00468a"/>
      <path id="Path_8452" data-name="Path 8452" d="M-3747.591-1368.187a1.784,1.784,0,0,1,.531.446c.526.893,1.011,1.81,1.494,2.727a.784.784,0,0,1-.272,1.116.792.792,0,0,1-1.121-.383c-.5-.891-.988-1.786-1.459-2.691C-3748.726-1367.563-3748.382-1368.177-3747.591-1368.187Z" transform="translate(3759.75 1370.257)" fill="#00468a"/>
      <path id="Path_8453" data-name="Path 8453" d="M-3829.356-1177.908a3.376,3.376,0,0,1-.483.676c-.74.6-1.5,1.181-2.263,1.752a.787.787,0,0,1-1.174-.118.788.788,0,0,1,.215-1.127c.748-.593,1.507-1.171,2.263-1.754a.715.715,0,0,1,.911-.093A3.473,3.473,0,0,1-3829.356-1177.908Z" transform="translate(3833.429 1205.813)" fill="#00468a"/>
      <path id="Path_8454" data-name="Path 8454" d="M-3830.164-1308.56a4.807,4.807,0,0,1-.665-.336c-.736-.553-1.464-1.118-2.188-1.686a.811.811,0,0,1-.243-1.162.789.789,0,0,1,1.177-.107q1.162.876,2.3,1.781a.677.677,0,0,1,.246.914A3.2,3.2,0,0,1-3830.164-1308.56Z" transform="translate(3833.415 1321.551)" fill="#00468a"/>
    </g>
  </g>
</svg>
