<svg xmlns="http://www.w3.org/2000/svg" width="43.011" height="43.101" viewBox="0 0 43.011 43.101">
  <g id="Group_12999" data-name="Group 12999" transform="translate(575.197 -981.773)">
    <path id="Path_8422" data-name="Path 8422" d="M-505.545,995.767c.041-.118.08-.236.123-.353a4.777,4.777,0,0,1,4.432-3.238,6.89,6.89,0,0,1,3.359.629,3.319,3.319,0,0,0,2.994,0,6.54,6.54,0,0,1,4.368-.464,4.545,4.545,0,0,1,3.351,2.931,2.231,2.231,0,0,0,.26.536c.048-.949.106-1.9.141-2.846q.19-5.182.368-10.364c0-.071,0-.142.006-.213.015-.338.149-.585.522-.6.321-.016.512.23.5.648-.066,2.119-.128,4.237-.21,6.355-.1,2.473-.185,4.947-.321,7.418a9.656,9.656,0,0,1-3.305,7.1,11.088,11.088,0,0,1-1.346.895c-.232.148-.6.23-.419.606s.491.148.744.048a8.212,8.212,0,0,0,3.085-2.429,11.39,11.39,0,0,0,2.784-6.823c.337-4.381.692-8.76,1.037-13.141.025-.321.1-.6.466-.669.346-.065.589.214.561.662-.094,1.49-.188,2.981-.3,4.47-.18,2.339-.355,4.68-.572,7.016a19.448,19.448,0,0,1-.9,5.279,12.457,12.457,0,0,1-4.869,6.143,1.183,1.183,0,0,0-.349.41,14.508,14.508,0,0,0-1.3,4.083c-.2.914-.421,1.827-.686,2.724a4.369,4.369,0,0,1-.559,1.093,1.572,1.572,0,0,1-2.837-.347,19.17,19.17,0,0,1-.6-2.824c-.228-1.4-.4-2.813-.6-4.218a1.691,1.691,0,0,0-.182-.565,2.083,2.083,0,0,0-.352-.38c-.108.122-.277.228-.314.368a17.759,17.759,0,0,0-.434,1.906c-.248,1.643-.45,3.294-.692,4.938a3.865,3.865,0,0,1-.3.886,1.556,1.556,0,0,1-2.683.369,4.6,4.6,0,0,1-.756-1.461c-.367-1.326-.6-2.689-.97-4.015a24.957,24.957,0,0,0-.962-2.587,1.072,1.072,0,0,0-.393-.421A11.791,11.791,0,0,1-509,996.9c-.442-3.539-.661-7.106-.965-10.661-.107-1.247-.18-2.5-.261-3.745-.03-.462.139-.706.464-.722s.524.227.556.669c.234,3.191.437,6.385.711,9.573a50.714,50.714,0,0,0,.692,5.709,10.77,10.77,0,0,0,4.277,6.428,9.131,9.131,0,0,0,1.459.779c.223.114.463.082.518-.169a.552.552,0,0,0-.236-.459c-3.312-1.786-4.666-4.728-4.84-8.313-.216-4.447-.355-8.9-.526-13.347,0-.114-.007-.228-.006-.341a.475.475,0,0,1,.452-.523c.323-.033.5.162.559.465a1.29,1.29,0,0,1,.014.213q.22,5.992.44,11.984c.016.439.048.878.073,1.318Zm9.931-1.537a1.158,1.158,0,0,0,.172.06c.349.069.553.275.465.63a.481.481,0,0,1-.7.348,7.933,7.933,0,0,1-1.2-.673c-.305-.2-.545-.509-.859-.69a5.474,5.474,0,0,0-3.457-.669,3.539,3.539,0,0,0-3.023,2,5.842,5.842,0,0,0,.737,6.19,7.251,7.251,0,0,0,2.322,2.042,1.326,1.326,0,0,1,.656,1.456,1.4,1.4,0,0,1-1.179,1.083c-.08.013-.162.021-.189.025.309,1.178.624,2.341.917,3.509.2.8.341,1.613.567,2.4a3.425,3.425,0,0,0,.555,1.134c.357.463.865.35,1.074-.189a2.413,2.413,0,0,0,.156-.53c.228-1.632.41-3.271.685-4.9a9.553,9.553,0,0,1,.7-2.481,1.181,1.181,0,0,1,2.176-.011,3.378,3.378,0,0,1,.428,1.1c.2,1.189.344,2.39.528,3.583.162,1.052.332,2.1.545,3.145.042.2.291.5.457.513a.959.959,0,0,0,.713-.336,3.082,3.082,0,0,0,.492-1.073c.311-1.239.56-2.494.87-3.733.18-.72.432-1.422.653-2.136-.963-.132-1.483-.678-1.431-1.5a1.463,1.463,0,0,1,.811-1.171,6.6,6.6,0,0,0,3.458-6.178,3.9,3.9,0,0,0-3.056-3.877,5.772,5.772,0,0,0-3.509.344C-494.582,993.871-495.093,994.039-495.614,994.23Z" transform="translate(-57.558)" fill="#00468a"/>
    <path id="Path_8423" data-name="Path 8423" d="M-553.706,1175.954q-8.684,0-17.367,0a3.924,3.924,0,0,1-3.994-3,4.721,4.721,0,0,1-.124-1.1q-.011-7.832,0-15.664a3.4,3.4,0,0,1,2.595-3.471,7.7,7.7,0,0,1,5.226.074,7.017,7.017,0,0,1,4.107,4.83c.448,1.523.726,3.1,1.129,4.635a16.146,16.146,0,0,0,1.8,4.54,7.451,7.451,0,0,0,1.273,1.528,2.289,2.289,0,0,0,3.59-.663,7.022,7.022,0,0,1,.616-1.021,1.387,1.387,0,0,1,2.344.009,7.5,7.5,0,0,1,.611,1.024,2.323,2.323,0,0,0,3.539.708,6.279,6.279,0,0,0,1.683-2.226,27.988,27.988,0,0,0,1.954-5.935,24.736,24.736,0,0,1,1.044-3.72,6.406,6.406,0,0,1,4.822-4.05,8.1,8.1,0,0,1,4.567.442,3.362,3.362,0,0,1,2.1,3.271q.005,6.637,0,13.274c0,.953.044,1.91-.023,2.859a3.9,3.9,0,0,1-3.987,3.658c-2.048.015-4.1,0-6.145,0Zm-.008-1.024h17.282a2.949,2.949,0,0,0,3.208-3.215q0-4.609,0-9.219c0-2.12,0-4.24,0-6.36a2.383,2.383,0,0,0-1.779-2.418,8.107,8.107,0,0,0-1.034-.252,5.8,5.8,0,0,0-5.183,1.276,6.952,6.952,0,0,0-2.061,3.611c-.273,1.132-.49,2.278-.776,3.407a19.954,19.954,0,0,1-2.224,5.738,5.688,5.688,0,0,1-1.8,1.907,3.273,3.273,0,0,1-4.607-1.063c-.166-.265-.313-.541-.472-.81-.4-.673-.672-.67-1.078.012-.123.208-.246.416-.359.629a3.292,3.292,0,0,1-5.226.83,10.106,10.106,0,0,1-1.667-2.188,20.727,20.727,0,0,1-1.936-5.4c-.325-1.308-.53-2.657-.969-3.925a5.71,5.71,0,0,0-4.22-4.015,7.09,7.09,0,0,0-3.54.176,2.427,2.427,0,0,0-2.016,2.662q0,7.683,0,15.365a2.957,2.957,0,0,0,3.261,3.246Z" transform="translate(0 -151.085)" fill="#00468a"/>
  </g>
</svg>
