<svg id="Location" xmlns="http://www.w3.org/2000/svg" width="29.834" height="34.804" viewBox="0 0 29.834 34.804">
  <path id="Path_20" data-name="Path 20" d="M18.215,16.812a1.243,1.243,0,0,0-1.243-1.243,2.486,2.486,0,1,1,2.486-2.486,1.243,1.243,0,1,0,2.486,0,4.972,4.972,0,1,0-4.972,4.972A1.243,1.243,0,0,0,18.215,16.812Z" transform="translate(-2.055 -0.518)" fill="#0086c6"/>
  <path id="Path_21" data-name="Path 21" d="M26.152,25.109l1.653-1.653a12.568,12.568,0,1,0-17.776,0l1.653,1.653C6.884,26.14,4,28.1,4,30.591c0,4.077,7.459,6.215,14.917,6.215s14.917-2.138,14.917-6.215C33.834,28.1,30.95,26.14,26.152,25.109ZM18.917,34.32c-7.459,0-12.431-2.25-12.431-3.729,0-.932,2.362-2.586,7.347-3.332l1.057,1.057a1.243,1.243,0,0,0,1.753-1.753L11.782,21.7a10.082,10.082,0,1,1,14.258,0l-8.006,8.006a1.243,1.243,0,1,0,1.753,1.753L24,27.247c4.972.746,7.347,2.4,7.347,3.332C31.348,32.07,26.376,34.32,18.917,34.32Z" transform="translate(-4 -2.002)" fill="#0086c6"/>
</svg>
