<svg xmlns="http://www.w3.org/2000/svg" width="31.344" height="31.25" viewBox="0 0 31.344 31.25">
  <path id="Path_8543" data-name="Path 8543" d="M29.3,19.25a4.935,4.935,0,0,1-1.051-.188A15.462,15.462,0,0,1,26.2,18.45a3.136,3.136,0,0,0-3.889,1.568l-.345.721A20.653,20.653,0,0,1,17.775,17.6a20.653,20.653,0,0,1-3.136-4.187l.721-.329A3.136,3.136,0,0,0,16.928,9.2a16.419,16.419,0,0,1-.612-2.07c-.078-.345-.141-.706-.188-1.051a4.7,4.7,0,0,0-4.7-3.9H6.7A4.689,4.689,0,0,0,2.046,7.5a29.905,29.905,0,0,0,8.484,17.25,29.905,29.905,0,0,0,17.25,8.484,4.015,4.015,0,0,0,.612,0,4.693,4.693,0,0,0,4.7-4.7v-4.7A4.7,4.7,0,0,0,29.3,19.25Zm.768,9.409a1.576,1.576,0,0,1-1.8,1.552,26.91,26.91,0,0,1-15.478-7.59A26.91,26.91,0,0,1,5.135,7.1,1.576,1.576,0,0,1,6.7,5.293h4.7a1.568,1.568,0,0,1,1.568,1.223A6.171,6.171,0,0,0,13.211,7.8a17.25,17.25,0,0,0,.721,2.415l-2.2,1.035a1.635,1.635,0,0,0-.815,2.07A22.723,22.723,0,0,0,21.9,24.3a1.635,1.635,0,0,0,2.07-.815l.988-2.2a19.461,19.461,0,0,0,2.478.721c.408.094.847.173,1.27.235a1.568,1.568,0,0,1,1.223,1.568ZM20.817,2h-1.1a1.574,1.574,0,1,0,.267,3.136h.831a9.409,9.409,0,0,1,9.409,9.409v.831a1.568,1.568,0,0,0,1.427,1.694h.125a1.568,1.568,0,0,0,1.568-1.427v-1.1A12.545,12.545,0,0,0,20.817,2Zm3.136,12.545a1.568,1.568,0,1,0,3.136,0,6.273,6.273,0,0,0-6.273-6.273,1.568,1.568,0,1,0,0,3.136A3.136,3.136,0,0,1,23.953,14.545Z" transform="translate(-2.002 -2)" fill="#0086c6"/>
</svg>
