<svg xmlns="http://www.w3.org/2000/svg" width="45.184" height="45.184" viewBox="0 0 45.184 45.184">
  <path id="phone-call_3059446" d="M43.762,32.812c-.121-.1-8.888-6.415-11.295-5.962-1.149.2-1.806.987-3.124,2.555-.212.253-.722.86-1.118,1.292a18.434,18.434,0,0,1-2.432-.99A20.177,20.177,0,0,1,16.485,20.4a18.348,18.348,0,0,1-.99-2.432c.433-.4,1.04-.907,1.3-1.125,1.561-1.311,2.346-1.968,2.549-3.119.417-2.386-5.9-11.214-5.965-11.293A3.371,3.371,0,0,0,10.868,1C8.308,1,1,10.48,1,12.077c0,.093.134,9.525,11.765,21.355C24.584,45.05,34.014,45.184,34.107,45.184c1.6,0,11.077-7.308,11.077-9.868a3.362,3.362,0,0,0-1.421-2.5Z" transform="translate(-0.5 -0.5)" fill="#fff" stroke="#131313" stroke-width="1"/>
</svg>
