<svg xmlns="http://www.w3.org/2000/svg" width="43.011" height="43" viewBox="0 0 43.011 43">
  <g id="Group_85" data-name="Group 85" transform="translate(4438.346 1977.705)">
    <path id="Path_8455" data-name="Path 8455" d="M-4395.334-1955.026c-.109.83-.185,1.665-.334,2.487a21.075,21.075,0,0,1-9.608,14.444,20.213,20.213,0,0,1-11.969,3.373,21.032,21.032,0,0,1-18.259-10.848,19.856,19.856,0,0,1-2.826-11.071,21.074,21.074,0,0,1,10.054-17.747,20.6,20.6,0,0,1,9.768-3.248,2.449,2.449,0,0,0,.323-.07h2.688c.787.11,1.58.187,2.359.337.863.166,1.719.379,2.568.608a1.082,1.082,0,0,1,.85,1.4,1.1,1.1,0,0,1-1.473.652,18.775,18.775,0,0,0-6.587-.814,18.982,18.982,0,0,0-13.069,5.968,18.19,18.19,0,0,0-5.264,11.613c-.532,8.1,2.724,14.37,9.708,18.555a17.9,17.9,0,0,0,12.537,2.308,18.866,18.866,0,0,0,15.058-12.128,18.492,18.492,0,0,0,.488-12.583,1.113,1.113,0,0,1,1.012-1.57,1.058,1.058,0,0,1,1,.807,21,21,0,0,1,.894,4.644c.015.179.051.356.078.534Z" fill="#00468a"/>
    <path id="Path_8456" data-name="Path 8456" d="M-4344.786-1871.16a15.113,15.113,0,0,1-15.13-12.492,15,15,0,0,1,11.75-17.2,14.3,14.3,0,0,1,3.8-.267,2.08,2.08,0,0,1,.413.064,1.137,1.137,0,0,1,.842,1.277,1.04,1.04,0,0,1-1.19.819,12.087,12.087,0,0,0-5.742.924,12.836,12.836,0,0,0-7.866,13.251,12.845,12.845,0,0,0,10.957,11.355,12.84,12.84,0,0,0,14.427-10.321,19.2,19.2,0,0,0,.185-3.169c0-.718.338-1.253.993-1.311a1.089,1.089,0,0,1,1.167,1.107,14.182,14.182,0,0,1-.353,4.417,14.994,14.994,0,0,1-12.358,11.375C-4343.638-1871.219-4344.4-1871.194-4344.786-1871.16Z" transform="translate(-71.638 -70.111)" fill="#00468a"/>
    <path id="Path_8457" data-name="Path 8457" d="M-4187.315-1942.761c0-.546.007-1.092,0-1.637a1.417,1.417,0,0,1,.447-1.087q3.1-3.078,6.177-6.175a1.122,1.122,0,0,1,1.287-.346,1.079,1.079,0,0,1,.665,1.149c-.009.84,0,1.679,0,2.519,0,.532,0,.532.553.533.841,0,1.681.006,2.521,0a1.069,1.069,0,0,1,1.119.647,1.109,1.109,0,0,1-.325,1.291q-3.108,3.1-6.206,6.206a1.388,1.388,0,0,1-1.052.428c-1.077-.007-2.155.008-3.232-.009a.924.924,0,0,0-.735.3q-3.313,3.337-6.646,6.654a3.478,3.478,0,0,1-.371.34,1.049,1.049,0,0,1-1.41-.121,1.044,1.044,0,0,1-.061-1.381,3.925,3.925,0,0,1,.343-.367q3.294-3.3,6.6-6.587a.973.973,0,0,0,.341-.8C-4187.336-1941.724-4187.316-1942.243-4187.315-1942.761Zm2.153,1.374h.408c.672,0,1.345.018,2.015-.011a.946.946,0,0,0,.578-.235c1.25-1.224,2.482-2.466,3.719-3.7.083-.084.156-.178.292-.334-.579,0-1.077.007-1.575,0a1.069,1.069,0,0,1-1.15-1.155c-.006-.5,0-.995,0-1.551a1.777,1.777,0,0,0-.186.126q-1.975,1.973-3.945,3.952a.586.586,0,0,0-.148.365C-4185.169-1943.11-4185.162-1942.285-4185.162-1941.386Z" transform="translate(-223.031 -23.461)" fill="#00468a"/>
    <path id="Path_8458" data-name="Path 8458" d="M-4284.007-1816.348a8.606,8.606,0,0,1,8.177-8.563,3.646,3.646,0,0,1,.462,0,1.078,1.078,0,0,1,1.016,1.04,1.052,1.052,0,0,1-.92,1.076c-.566.086-1.148.092-1.7.225a6.405,6.405,0,0,0-4.868,6.553,6.414,6.414,0,0,0,5.8,6.062,6.4,6.4,0,0,0,7.033-6.122c.036-.819.336-1.238.949-1.321a1.066,1.066,0,0,1,1.207,1.169,8.288,8.288,0,0,1-3.316,6.636,8.159,8.159,0,0,1-8.476,1.166,8.244,8.244,0,0,1-5.264-6.795C-4283.963-1815.593-4283.975-1815.972-4284.007-1816.348Z" transform="translate(-141.35 -139.928)" fill="#00468a"/>
  </g>
</svg>
